<svg xmlns="http://www.w3.org/2000/svg" xmlns:xlink="http://www.w3.org/1999/xlink" xmlns:lucid="lucid" width="1760" height="1360"><g transform="translate(0 0)" lucid:page-tab-id="0_0"><path d="M0 0h1760v1360H0z" fill="#fff"/><path d="M180 205a5 5 0 0 1 5-5h270a5 5 0 0 1 5 5v222a5 5 0 0 1-5 5H185a5 5 0 0 1-5-5z" fill="#fff"/><path d="M180 240v-35a5 5 0 0 1 5-5h270a5 5 0 0 1 5 5v35" fill="#ccc"/><path d="M180 205a5 5 0 0 1 5-5h270a5 5 0 0 1 5 5v222a5 5 0 0 1-5 5H185a5 5 0 0 1-5-5zM180 240h280M240 240v192M350 240v192" stroke="#333" fill="none"/><use xlink:href="#a" transform="matrix(1,0,0,1,190,200) translate(0 23.6)"/><use xlink:href="#b" transform="matrix(1,0,0,1,185,242.5) translate(13 17.1)"/><use xlink:href="#c" transform="matrix(1,0,0,1,245,242.5) translate(0 17.1)"/><use xlink:href="#d" transform="matrix(1,0,0,1,355,242.5) translate(0 17.1)"/><use xlink:href="#e" transform="matrix(1,0,0,1,245,274.5) translate(0 17.1)"/><use xlink:href="#f" transform="matrix(1,0,0,1,355,274.5) translate(0 17.1)"/><use xlink:href="#g" transform="matrix(1,0,0,1,245,306.5) translate(0 17.1)"/><use xlink:href="#f" transform="matrix(1,0,0,1,355,306.5) translate(0 17.1)"/><use xlink:href="#h" transform="matrix(1,0,0,1,245,338.5) translate(0 17.1)"/><use xlink:href="#f" transform="matrix(1,0,0,1,355,338.5) translate(0 17.1)"/><use xlink:href="#i" transform="matrix(1,0,0,1,245,370.5) translate(0 17.1)"/><use xlink:href="#j" transform="matrix(1,0,0,1,355,370.5) translate(0 17.1)"/><use xlink:href="#k" transform="matrix(1,0,0,1,245,402.5) translate(0 17.1)"/><use xlink:href="#d" transform="matrix(1,0,0,1,355,402.5) translate(0 17.1)"/><path d="M180 465a5 5 0 0 1 5-5h270a5 5 0 0 1 5 5v190a5 5 0 0 1-5 5H185a5 5 0 0 1-5-5z" fill="#fff"/><path d="M180 500v-35a5 5 0 0 1 5-5h270a5 5 0 0 1 5 5v35" fill="#ccc"/><path d="M180 465a5 5 0 0 1 5-5h270a5 5 0 0 1 5 5v190a5 5 0 0 1-5 5H185a5 5 0 0 1-5-5zM180 500h280M240 500v160M350 500v160" stroke="#333" fill="none"/><use xlink:href="#l" transform="matrix(1,0,0,1,190,460) translate(0 23.6)"/><use xlink:href="#b" transform="matrix(1,0,0,1,185,502.5) translate(13 17.1)"/><use xlink:href="#c" transform="matrix(1,0,0,1,245,502.5) translate(0 17.1)"/><use xlink:href="#d" transform="matrix(1,0,0,1,355,502.5) translate(0 17.1)"/><use xlink:href="#e" transform="matrix(1,0,0,1,245,534.5) translate(0 17.1)"/><use xlink:href="#f" transform="matrix(1,0,0,1,355,534.5) translate(0 17.1)"/><use xlink:href="#g" transform="matrix(1,0,0,1,245,566.5) translate(0 17.1)"/><use xlink:href="#f" transform="matrix(1,0,0,1,355,566.5) translate(0 17.1)"/><use xlink:href="#h" transform="matrix(1,0,0,1,245,598.5) translate(0 17.1)"/><use xlink:href="#f" transform="matrix(1,0,0,1,355,598.5) translate(0 17.1)"/><use xlink:href="#m" transform="matrix(1,0,0,1,245,630.5) translate(0 17.1)"/><use xlink:href="#d" transform="matrix(1,0,0,1,355,630.5) translate(0 17.1)"/><path d="M180 705a5 5 0 0 1 5-5h270a5 5 0 0 1 5 5v158a5 5 0 0 1-5 5H185a5 5 0 0 1-5-5z" fill="#fff"/><path d="M180 740v-35a5 5 0 0 1 5-5h270a5 5 0 0 1 5 5v35" fill="#ccc"/><path d="M180 705a5 5 0 0 1 5-5h270a5 5 0 0 1 5 5v158a5 5 0 0 1-5 5H185a5 5 0 0 1-5-5zM180 740h280M240 740v128M350 740v128" stroke="#333" fill="none"/><use xlink:href="#n" transform="matrix(1,0,0,1,190,700) translate(0 23.6)"/><use xlink:href="#b" transform="matrix(1,0,0,1,185,742.5) translate(13 17.1)"/><use xlink:href="#c" transform="matrix(1,0,0,1,245,742.5) translate(0 17.1)"/><use xlink:href="#d" transform="matrix(1,0,0,1,355,742.5) translate(0 17.1)"/><use xlink:href="#e" transform="matrix(1,0,0,1,245,774.5) translate(0 17.1)"/><use xlink:href="#f" transform="matrix(1,0,0,1,355,774.5) translate(0 17.1)"/><use xlink:href="#g" transform="matrix(1,0,0,1,245,806.5) translate(0 17.1)"/><use xlink:href="#f" transform="matrix(1,0,0,1,355,806.5) translate(0 17.1)"/><use xlink:href="#o" transform="matrix(1,0,0,1,245,838.5) translate(0 17.1)"/><use xlink:href="#j" transform="matrix(1,0,0,1,355,838.5) translate(0 17.1)"/><path d="M180 913a5 5 0 0 1 5-5h270a5 5 0 0 1 5 5v94a5 5 0 0 1-5 5H185a5 5 0 0 1-5-5z" fill="#fff"/><path d="M180 948v-35a5 5 0 0 1 5-5h270a5 5 0 0 1 5 5v35" fill="#ccc"/><path d="M180 913a5 5 0 0 1 5-5h270a5 5 0 0 1 5 5v94a5 5 0 0 1-5 5H185a5 5 0 0 1-5-5zM180 948h280M240 948v64M350 948v64" stroke="#333" fill="none"/><use xlink:href="#p" transform="matrix(1,0,0,1,190,908) translate(0 23.6)"/><use xlink:href="#b" transform="matrix(1,0,0,1,185,950.5) translate(13 17.1)"/><use xlink:href="#c" transform="matrix(1,0,0,1,245,950.5) translate(0 17.1)"/><use xlink:href="#d" transform="matrix(1,0,0,1,355,950.5) translate(0 17.1)"/><use xlink:href="#e" transform="matrix(1,0,0,1,245,982.5) translate(0 17.1)"/><use xlink:href="#f" transform="matrix(1,0,0,1,355,982.5) translate(0 17.1)"/><path d="M580 169a5 5 0 0 1 5-5h430a5 5 0 0 1 5 5v286a5 5 0 0 1-5 5H585a5 5 0 0 1-5-5z" fill="#fff"/><path d="M580 204v-35a5 5 0 0 1 5-5h430a5 5 0 0 1 5 5v35" fill="#ccc"/><path d="M580 169a5 5 0 0 1 5-5h430a5 5 0 0 1 5 5v286a5 5 0 0 1-5 5H585a5 5 0 0 1-5-5zM580 204h440M640 204v256M830 204v256" stroke="#333" fill="none"/><use xlink:href="#q" transform="matrix(1,0,0,1,590,164) translate(0 23.6)"/><use xlink:href="#b" transform="matrix(1,0,0,1,585,206.5) translate(13 17.1)"/><use xlink:href="#r" transform="matrix(1,0,0,1,645,206.5) translate(0 17.1)"/><use xlink:href="#s" transform="matrix(1,0,0,1,835,206.5) translate(0 17.1)"/><use xlink:href="#t" transform="matrix(1,0,0,1,585,238.5) translate(12.524999999999999 17.1)"/><use xlink:href="#u" transform="matrix(1,0,0,1,645,238.5) translate(0 17.1)"/><use xlink:href="#d" transform="matrix(1,0,0,1,835,238.5) translate(0 17.1)"/><use xlink:href="#t" transform="matrix(1,0,0,1,585,270.5) translate(12.524999999999999 17.1)"/><use xlink:href="#v" transform="matrix(1,0,0,1,645,270.5) translate(0 17.1)"/><use xlink:href="#d" transform="matrix(1,0,0,1,835,270.5) translate(0 17.1)"/><use xlink:href="#t" transform="matrix(1,0,0,1,585,302.5) translate(12.524999999999999 17.1)"/><use xlink:href="#w" transform="matrix(1,0,0,1,645,302.5) translate(0 17.1)"/><use xlink:href="#d" transform="matrix(1,0,0,1,835,302.5) translate(0 17.1)"/><use xlink:href="#x" transform="matrix(1,0,0,1,645,334.5) translate(0 17.1)"/><use xlink:href="#j" transform="matrix(1,0,0,1,835,334.5) translate(0 17.1)"/><use xlink:href="#y" transform="matrix(1,0,0,1,645,366.5) translate(0 17.1)"/><use xlink:href="#z" transform="matrix(1,0,0,1,835,366.5) translate(0 17.1)"/><use xlink:href="#A" transform="matrix(1,0,0,1,645,398.5) translate(0 17.1)"/><use xlink:href="#z" transform="matrix(1,0,0,1,835,398.5) translate(0 17.1)"/><use xlink:href="#B" transform="matrix(1,0,0,1,645,430.5) translate(0 17.1)"/><use xlink:href="#C" transform="matrix(1,0,0,1,835,430.5) translate(0 17.1)"/><path d="M640 765a5 5 0 0 1 5-5h290.5a5 5 0 0 1 5 5v190a5 5 0 0 1-5 5H645a5 5 0 0 1-5-5z" fill="#fff"/><path d="M640 800v-35a5 5 0 0 1 5-5h290.5a5 5 0 0 1 5 5v35" fill="#ccc"/><path d="M640 765a5 5 0 0 1 5-5h290.5a5 5 0 0 1 5 5v190a5 5 0 0 1-5 5H645a5 5 0 0 1-5-5zM640 800h300.5M700 800v160M805 800v160" stroke="#333" fill="none"/><use xlink:href="#D" transform="matrix(1,0,0,1,650,760) translate(0 23.6)"/><use xlink:href="#b" transform="matrix(1,0,0,1,645,802.5) translate(13 17.1)"/><use xlink:href="#r" transform="matrix(1,0,0,1,705,802.5) translate(0 17.1)"/><use xlink:href="#s" transform="matrix(1,0,0,1,810.0105830390233,802.5) translate(0 17.1)"/><use xlink:href="#t" transform="matrix(1,0,0,1,645,834.5) translate(12.524999999999999 17.1)"/><use xlink:href="#w" transform="matrix(1,0,0,1,705,834.5) translate(0 17.1)"/><use xlink:href="#d" transform="matrix(1,0,0,1,810.0105830390233,834.5) translate(0 17.1)"/><use xlink:href="#t" transform="matrix(1,0,0,1,645,866.5) translate(12.524999999999999 17.1)"/><use xlink:href="#E" transform="matrix(1,0,0,1,705,866.5) translate(0 17.1)"/><use xlink:href="#j" transform="matrix(1,0,0,1,810.0105830390233,866.5) translate(0 17.1)"/><use xlink:href="#F" transform="matrix(1,0,0,1,705,898.5) translate(0 17.1)"/><use xlink:href="#G" transform="matrix(1,0,0,1,810.0105830390233,898.5) translate(0 17.1)"/><use xlink:href="#H" transform="matrix(1,0,0,1,705,930.5) translate(0 17.1)"/><use xlink:href="#z" transform="matrix(1,0,0,1,810.0105830390233,930.5) translate(0 17.1)"/><path d="M640 499a5 5 0 0 1 5-5h290.5a5 5 0 0 1 5 5v222a5 5 0 0 1-5 5H645a5 5 0 0 1-5-5z" fill="#fff"/><path d="M640 534v-35a5 5 0 0 1 5-5h290.5a5 5 0 0 1 5 5v35" fill="#ccc"/><path d="M640 499a5 5 0 0 1 5-5h290.5a5 5 0 0 1 5 5v222a5 5 0 0 1-5 5H645a5 5 0 0 1-5-5zM640 534h300.5M700 534v192M805 534v192" stroke="#333" fill="none"/><use xlink:href="#I" transform="matrix(1,0,0,1,650,494) translate(0 23.6)"/><use xlink:href="#b" transform="matrix(1,0,0,1,645,536.5) translate(13 17.1)"/><use xlink:href="#r" transform="matrix(1,0,0,1,705,536.5) translate(0 17.1)"/><use xlink:href="#s" transform="matrix(1,0,0,1,810.0105830390233,536.5) translate(0 17.1)"/><use xlink:href="#t" transform="matrix(1,0,0,1,645,568.5) translate(12.524999999999999 17.1)"/><use xlink:href="#v" transform="matrix(1,0,0,1,705,568.5) translate(0 17.1)"/><use xlink:href="#d" transform="matrix(1,0,0,1,810.0105830390233,568.5) translate(0 17.1)"/><use xlink:href="#t" transform="matrix(1,0,0,1,645,600.5) translate(12.524999999999999 17.1)"/><use xlink:href="#E" transform="matrix(1,0,0,1,705,600.5) translate(0 17.1)"/><use xlink:href="#j" transform="matrix(1,0,0,1,810.0105830390233,600.5) translate(0 17.1)"/><use xlink:href="#t" transform="matrix(1,0,0,1,645,632.5) translate(12.524999999999999 17.1)"/><use xlink:href="#J" transform="matrix(1,0,0,1,705,632.5) translate(0 17.1)"/><use xlink:href="#j" transform="matrix(1,0,0,1,810.0105830390233,632.5) translate(0 17.1)"/><use xlink:href="#F" transform="matrix(1,0,0,1,705,664.5) translate(0 17.1)"/><use xlink:href="#G" transform="matrix(1,0,0,1,810.0105830390233,664.5) translate(0 17.1)"/><use xlink:href="#H" transform="matrix(1,0,0,1,705,696.5) translate(0 17.1)"/><use xlink:href="#z" transform="matrix(1,0,0,1,810.0105830390233,696.5) translate(0 17.1)"/><path d="M1300 217a5 5 0 0 1 5-5h371a5 5 0 0 1 5 5v286a5 5 0 0 1-5 5h-371a5 5 0 0 1-5-5z" fill="#fff"/><path d="M1300 252v-35a5 5 0 0 1 5-5h371a5 5 0 0 1 5 5v35" fill="#ccc"/><path d="M1300 217a5 5 0 0 1 5-5h371a5 5 0 0 1 5 5v286a5 5 0 0 1-5 5h-371a5 5 0 0 1-5-5zM1300 252h381M1360 252v256M1545.5 252v256" stroke="#333" fill="none"/><use xlink:href="#K" transform="matrix(1,0,0,1,1310,212) translate(0 23.6)"/><use xlink:href="#b" transform="matrix(1,0,0,1,1305,254.5) translate(13 17.1)"/><use xlink:href="#r" transform="matrix(1,0,0,1,1365,254.5) translate(0 17.1)"/><use xlink:href="#j" transform="matrix(1,0,0,1,1550.5105830390235,254.5) translate(0 17.1)"/><use xlink:href="#L" transform="matrix(1,0,0,1,1365,286.5) translate(0 17.1)"/><use xlink:href="#f" transform="matrix(1,0,0,1,1550.5105830390235,286.5) translate(0 17.1)"/><use xlink:href="#F" transform="matrix(1,0,0,1,1365,318.5) translate(0 17.1)"/><use xlink:href="#G" transform="matrix(1,0,0,1,1550.5105830390235,318.5) translate(0 17.1)"/><use xlink:href="#t" transform="matrix(1,0,0,1,1305,350.5) translate(12.524999999999999 17.1)"/><use xlink:href="#M" transform="matrix(1,0,0,1,1365,350.5) translate(0 17.1)"/><use xlink:href="#s" transform="matrix(1,0,0,1,1550.5105830390235,350.5) translate(0 17.1)"/><use xlink:href="#H" transform="matrix(1,0,0,1,1365,382.5) translate(0 17.1)"/><use xlink:href="#z" transform="matrix(1,0,0,1,1550.5105830390235,382.5) translate(0 17.1)"/><use xlink:href="#N" transform="matrix(1,0,0,1,1365,414.5) translate(0 17.1)"/><use xlink:href="#j" transform="matrix(1,0,0,1,1550.5105830390235,414.5) translate(0 17.1)"/><use xlink:href="#O" transform="matrix(1,0,0,1,1365,446.5) translate(0 17.1)"/><use xlink:href="#j" transform="matrix(1,0,0,1,1550.5105830390235,446.5) translate(0 17.1)"/><use xlink:href="#P" transform="matrix(1,0,0,1,1365,478.5) translate(0 17.1)"/><use xlink:href="#j" transform="matrix(1,0,0,1,1550.5105830390235,478.5) translate(0 17.1)"/><path d="M1280.5 595.2a5 5 0 0 1 5-5h371a5 5 0 0 1 5 5v254a5 5 0 0 1-5 5h-371a5 5 0 0 1-5-5z" fill="#fff"/><path d="M1280.5 630.2v-35a5 5 0 0 1 5-5h371a5 5 0 0 1 5 5v35" fill="#ccc"/><path d="M1280.5 595.2a5 5 0 0 1 5-5h371a5 5 0 0 1 5 5v254a5 5 0 0 1-5 5h-371a5 5 0 0 1-5-5zM1280.5 630.2h381M1340.5 630.2v224M1526 630.2v224" stroke="#333" fill="none"/><use xlink:href="#Q" transform="matrix(1,0,0,1,1290.499906849086,590.1994670865305) translate(0 23.6)"/><use xlink:href="#b" transform="matrix(1,0,0,1,1285.499906849086,632.6994670865305) translate(13 17.1)"/><use xlink:href="#r" transform="matrix(1,0,0,1,1345.499906849086,632.6994670865305) translate(0 17.1)"/><use xlink:href="#j" transform="matrix(1,0,0,1,1531.0104898881095,632.6994670865305) translate(0 17.1)"/><use xlink:href="#L" transform="matrix(1,0,0,1,1345.499906849086,664.6994670865305) translate(0 17.1)"/><use xlink:href="#f" transform="matrix(1,0,0,1,1531.0104898881095,664.6994670865305) translate(0 17.1)"/><use xlink:href="#F" transform="matrix(1,0,0,1,1345.499906849086,696.6994670865305) translate(0 17.1)"/><use xlink:href="#G" transform="matrix(1,0,0,1,1531.0104898881095,696.6994670865305) translate(0 17.1)"/><use xlink:href="#t" transform="matrix(1,0,0,1,1285.499906849086,728.6994670865305) translate(12.524999999999999 17.1)"/><use xlink:href="#M" transform="matrix(1,0,0,1,1345.499906849086,728.6994670865305) translate(0 17.1)"/><use xlink:href="#s" transform="matrix(1,0,0,1,1531.0104898881095,728.6994670865305) translate(0 17.1)"/><use xlink:href="#H" transform="matrix(1,0,0,1,1345.499906849086,760.6994670865305) translate(0 17.1)"/><use xlink:href="#z" transform="matrix(1,0,0,1,1531.0104898881095,760.6994670865305) translate(0 17.1)"/><use xlink:href="#R" transform="matrix(1,0,0,1,1345.499906849086,792.6994670865305) translate(0 17.1)"/><use xlink:href="#j" transform="matrix(1,0,0,1,1531.0104898881095,792.6994670865305) translate(0 17.1)"/><use xlink:href="#N" transform="matrix(1,0,0,1,1345.499906849086,824.6994670865305) translate(0 17.1)"/><use xlink:href="#j" transform="matrix(1,0,0,1,1531.0104898881095,824.6994670865305) translate(0 17.1)"/><path d="M480.5 255.8h79.6" stroke="#333" fill="none"/><path d="M480.5 265.8v-20M460.5 255.8h20" stroke="#333" fill="#fff"/><path d="M579.28 265.8l-20-10 20-10" stroke="#333" fill="#fff" fill-opacity="0"/><path d="M579.28 255.8h-20" stroke="#333" fill="#fff"/><path d="M480.5 515.84H508a12 12 0 0 0 12-12v-207.9a12 12 0 0 1 12-12h28.1" stroke="#333" fill="none"/><path d="M480.5 525.84v-20M460.5 515.84h20" stroke="#333" fill="#fff"/><path d="M579.28 293.94l-20-10 20-10" stroke="#333" fill="#fff" fill-opacity="0"/><path d="M579.28 283.94h-20" stroke="#333" fill="#fff"/><path d="M480.5 755.9H538a12 12 0 0 0 12-12V326.1a10.1 10.1 0 0 1 10.1-10.1" stroke="#333" fill="none"/><path d="M480.5 765.9v-20M460.5 755.9h20" stroke="#333" fill="#fff"/><path d="M579.28 326l-20-10 20-10" stroke="#333" fill="#fff" fill-opacity="0"/><path d="M579.28 316h-20" stroke="#333" fill="#fff"/><path d="M480.5 755.9H538a12 12 0 0 1 12 12v68.06a12 12 0 0 0 12 12h58.1" stroke="#333" fill="none"/><path d="M480.5 765.9v-20M460.5 755.9h20" stroke="#333" fill="#fff"/><path d="M639.28 857.96l-20-10 20-10" stroke="#333" fill="#fff" fill-opacity="0"/><path d="M639.28 847.96h-20" stroke="#333" fill="#fff"/><path d="M480.5 515.84H508a12 12 0 0 1 12 12V570a12 12 0 0 0 12 12h88.1" stroke="#333" fill="none"/><path d="M480.5 525.84v-20M460.5 515.84h20" stroke="#333" fill="#fff"/><path d="M639.28 592l-20-10 20-10" stroke="#333" fill="#fff" fill-opacity="0"/><path d="M639.28 582h-20" stroke="#333" fill="#fff"/><path d="M1280.5 925a5 5 0 0 1 5-5h371a5 5 0 0 1 5 5v158a5 5 0 0 1-5 5h-371a5 5 0 0 1-5-5z" fill="#fff"/><path d="M1280.5 960v-35a5 5 0 0 1 5-5h371a5 5 0 0 1 5 5v35" fill="#ccc"/><path d="M1280.5 925a5 5 0 0 1 5-5h371a5 5 0 0 1 5 5v158a5 5 0 0 1-5 5h-371a5 5 0 0 1-5-5zM1280.5 960h381M1340.5 960v128M1526 960v128" stroke="#333" fill="none"/><use xlink:href="#S" transform="matrix(1,0,0,1,1290.499906849086,920) translate(0 23.6)"/><use xlink:href="#b" transform="matrix(1,0,0,1,1285.499906849086,962.5) translate(13 17.1)"/><use xlink:href="#r" transform="matrix(1,0,0,1,1345.499906849086,962.5) translate(0 17.1)"/><use xlink:href="#j" transform="matrix(1,0,0,1,1531.0104898881095,962.5) translate(0 17.1)"/><use xlink:href="#T" transform="matrix(1,0,0,1,1345.499906849086,994.5) translate(0 17.1)"/><use xlink:href="#C" transform="matrix(1,0,0,1,1531.0104898881095,994.5) translate(0 17.1)"/><use xlink:href="#U" transform="matrix(1,0,0,1,1345.499906849086,1026.5) translate(0 17.1)"/><use xlink:href="#j" transform="matrix(1,0,0,1,1531.0104898881095,1026.5) translate(0 17.1)"/><use xlink:href="#t" transform="matrix(1,0,0,1,1285.499906849086,1058.5) translate(12.524999999999999 17.1)"/><use xlink:href="#J" transform="matrix(1,0,0,1,1345.499906849086,1058.5) translate(0 17.1)"/><use xlink:href="#j" transform="matrix(1,0,0,1,1531.0104898881095,1058.5) translate(0 17.1)"/><path d="M1682 646.2h26a12 12 0 0 1 12 12v401.98a12 12 0 0 1-12 12h-26.6" stroke="#333" fill="none"/><path d="M1682 656.2v-20M1662 646.2h20" stroke="#333" fill="#fff"/><path d="M1662.22 1062.18l20 10-20 10" stroke="#333" fill="#fff" fill-opacity="0"/><path d="M1662.22 1072.18h20" stroke="#333" fill="#fff"/><path d="M1149.96 219.44l1.9.46 1.82.75 1.67 1.03 1.5 1.27 1.26 1.5 1.04 1.67.75 1.8.45 1.92.15 1.93v498.4l.14 1.83.42 1.75.7 1.67.94 1.54 1.17 1.37 1.37 1.17 1.54.95 1.67.68 1.75.43 1.82.14h88.57v1h-88.62l-1.94-.15-1.9-.46-1.82-.76-1.67-1.03-1.5-1.26-1.26-1.5-1.04-1.66-.75-1.82-.45-1.9-.15-1.94v-498.4l-.14-1.83-.42-1.76-.7-1.67-.94-1.54-1.17-1.37-1.37-1.17-1.54-.95-1.67-.7-1.75-.42-1.82-.14H1040.5v-1h107.52z" stroke="#333" stroke-width=".05" fill="#333"/><path fill="#fff"/><path d="M1041 229.8h-1v-20h1z" stroke="#333" stroke-width=".05" fill="#333"/><path fill="#fff"/><path d="M1040.5 220.3h-20v-1h20z" stroke="#333" stroke-width=".05" fill="#333"/><path d="M1279.78 752.2l-20-10 20-10" fill="#fff" fill-opacity="0"/><path d="M1280 732.65l-19.1 9.55 19.1 9.55-.45.9-20.9-10.45 20.9-10.45z" stroke="#333" stroke-width=".05" fill="#333"/><path fill="#fff"/><path d="M1279.78 742.7h-20v-1h20z" stroke="#333" stroke-width=".05" fill="#333"/><path d="M1040.5 219.8H1208a12 12 0 0 1 12 12V352a12 12 0 0 0 12 12h48.1" stroke="#333" fill="none"/><path d="M1040.5 229.8v-20M1020.5 219.8h20" stroke="#333" fill="#fff"/><path d="M1299.28 374l-20-10 20-10" stroke="#333" fill="#fff" fill-opacity="0"/><path d="M1299.28 364h-20" stroke="#333" fill="#fff"/><path d="M971.12 614.5h-10.7v-1h10.7zm308.38-346.24h-197.48l-1.82.14-1.75.42-1.67.7-1.54.94-1.37 1.17-1.17 1.37-.94 1.54-.7 1.66-.42 1.76-.14 1.82v322.24l-.1 1.18h-1l.1-1.22V279.74l.15-1.94.46-1.9.76-1.82 1.03-1.67 1.26-1.48 1.5-1.28 1.66-1.02 1.82-.75 1.9-.46 1.94-.14h197.52z" stroke="#333" stroke-width=".05" fill="#333"/><path fill="#fff"/><path d="M1280 277.76h-1v-20h1z" stroke="#333" stroke-width=".05" fill="#333"/><path fill="#fff"/><path d="M1299.5 268.26h-20v-1h20z" stroke="#333" stroke-width=".05" fill="#333"/><path d="M941.22 604l20 10-20 10" fill="#fff" fill-opacity="0"/><path d="M962.34 614l-20.9 10.45-.44-.9 19.1-9.55-19.1-9.55.45-.9z" stroke="#333" stroke-width=".05" fill="#333"/><path fill="#fff"/><path d="M961.22 614.5h-20v-1h20z" stroke="#333" stroke-width=".05" fill="#333"/><use xlink:href="#V" transform="matrix(1,0,0,1,971.1181774149729,603.2) translate(0.0049999999999954525 14.4)"/><use xlink:href="#W" transform="matrix(1,0,0,1,971.1181774149729,603.2) translate(57.004999999999995 14.4)"/><use xlink:href="#X" transform="matrix(1,0,0,1,971.1181774149729,603.2) translate(86.955 14.4)"/><path d="M1279.5 268.26h-147.23l-1.82.14-1.75.42-1.67.7-1.54.94-1.38 1.17-1.17 1.37-.94 1.54-.7 1.66-.4 1.76-.15 1.82v588.3l-.15 1.94-.46 1.9-.75 1.82-1.04 1.67-1.27 1.5-1.5 1.28-1.67 1.03-1.82.76-1.9.45-1.93.17H960.4v-1h147.83l1.82-.15 1.75-.42 1.67-.7 1.54-.93 1.38-1.17 1.17-1.38.94-1.53.7-1.68.4-1.75.15-1.82v-588.3l.15-1.95.46-1.9.75-1.82 1.04-1.67 1.27-1.48 1.5-1.28 1.67-1.02 1.82-.75 1.9-.46 1.93-.14h147.27z" stroke="#333" stroke-width=".05" fill="#333"/><path fill="#fff"/><path d="M1280 277.76h-1v-20h1z" stroke="#333" stroke-width=".05" fill="#333"/><path fill="#fff"/><path d="M1299.5 268.26h-20v-1h20z" stroke="#333" stroke-width=".05" fill="#333"/><path d="M941.22 870.07l20 10-20 10" fill="#fff" fill-opacity="0"/><path d="M962.34 880.07l-20.9 10.44-.44-.88 19.1-9.55-19.1-9.56.45-.88z" stroke="#333" stroke-width=".05" fill="#333"/><path fill="#fff"/><path d="M961.22 880.57h-20v-1h20zM971.12 646.5h-10.7v-1h10.7zm288.88 0h-156.03v-1H1260z" stroke="#333" stroke-width=".05" fill="#333"/><path fill="#fff"/><path d="M1260.5 656h-1v-20h1z" stroke="#333" stroke-width=".05" fill="#333"/><path fill="#fff"/><path d="M1280 646.5h-20v-1h20z" stroke="#333" stroke-width=".05" fill="#333"/><path d="M941.22 636l20 10-20 10" fill="#fff" fill-opacity="0"/><path d="M962.34 646l-20.9 10.45-.44-.9 19.1-9.55-19.1-9.55.45-.9z" stroke="#333" stroke-width=".05" fill="#333"/><path fill="#fff"/><path d="M961.22 646.5h-20v-1h20z" stroke="#333" stroke-width=".05" fill="#333"/><g><use xlink:href="#V" transform="matrix(1,0,0,1,971.1181774149729,635.2) translate(0.0049999999999954525 14.4)"/><use xlink:href="#W" transform="matrix(1,0,0,1,971.1181774149729,635.2) translate(57.004999999999995 14.4)"/><use xlink:href="#X" transform="matrix(1,0,0,1,971.1181774149729,635.2) translate(86.955 14.4)"/></g><defs><path fill="#333" d="M11 0l48-248h184l-5 28H87l-15 79h140l-5 27H67L50-27h158l-5 27H11" id="Y"/><path fill="#333" d="M55-144c13 50 104 24 104 88C159 21 15 23 1-39l26-10c6 40 102 42 102-4-13-50-104-23-104-87 0-71 143-71 148-8l-29 4c-5-35-85-37-89 0" id="Z"/><path fill="#333" d="M51-54c-9 22 5 41 31 30L79-1C43 14 10-4 19-52l22-115H19l5-23h22l19-43h21l-9 43h35l-4 23H73" id="aa"/><path fill="#333" d="M67 3c-93-2-31-127-26-193h32L48-50c-3 39 53 32 70 12 30-34 30-101 43-152h32L157 0h-30c1-10 6-24 4-33-14 20-29 37-64 36" id="ab"/><path fill="#333" d="M133-28C103 26-5 8 13-77c13-62 24-115 90-117 29-1 46 15 56 35l19-102h32L160 0h-30zM45-64c-2 27 10 43 35 43 54-1 69-50 69-103 0-29-15-46-42-46-53-1-58 58-62 106" id="ac"/><path fill="#333" d="M50-231l6-30h32l-6 30H50zM6 0l37-190h31L37 0H6" id="ad"/><path fill="#333" d="M165-48c-4 18 1 34 23 27l-3 20c-29 8-62 0-52-35h-2C116-14 99 4 63 4 30 4 8-16 8-49c0-68 71-67 138-67 10-26 0-56-31-54-26 1-42 9-47 31l-32-5c8-67 160-71 144 15-5 28-9 54-15 81zM42-50c3 52 80 24 89-6 7-12 7-24 11-38-47 1-103-4-100 44" id="ae"/><path fill="#333" d="M67-158c22-48 132-52 116 29L158 0h-32l25-140c3-38-53-32-70-12C52-117 51-52 38 0H6l36-190h30" id="af"/><path fill="#333" d="M111-194c62-3 86 47 72 106H45c-7 38 6 69 45 68 27-1 43-14 53-32l24 11C152-15 129 4 87 4 38 3 12-23 12-71c0-70 32-119 99-123zm44 81c14-66-71-72-95-28-4 8-8 17-11 28h106" id="ag"/><g id="a"><use transform="matrix(0.05,0,0,0.05,0,0)" xlink:href="#Y"/><use transform="matrix(0.05,0,0,0.05,12,0)" xlink:href="#Z"/><use transform="matrix(0.05,0,0,0.05,21,0)" xlink:href="#aa"/><use transform="matrix(0.05,0,0,0.05,26,0)" xlink:href="#ab"/><use transform="matrix(0.05,0,0,0.05,36,0)" xlink:href="#ac"/><use transform="matrix(0.05,0,0,0.05,46,0)" xlink:href="#ad"/><use transform="matrix(0.05,0,0,0.05,49.95,0)" xlink:href="#ae"/><use transform="matrix(0.05,0,0,0.05,59.95,0)" xlink:href="#af"/><use transform="matrix(0.05,0,0,0.05,69.95,0)" xlink:href="#aa"/><use transform="matrix(0.05,0,0,0.05,74.95,0)" xlink:href="#ag"/></g><path d="M30-248c87 1 191-15 191 75 0 78-77 80-158 76V0H30v-248zm33 125c57 0 124 11 124-50 0-59-68-47-124-48v98" id="ah"/><path d="M194 0L95-120 63-95V0H30v-248h33v124l119-124h40L117-140 236 0h-42" id="ai"/><g id="b"><use transform="matrix(0.05,0,0,0.05,0,0)" xlink:href="#ah"/><use transform="matrix(0.05,0,0,0.05,12,0)" xlink:href="#ai"/></g><path fill="#333" d="M44-68c0 29 11 47 38 47 30 0 42-19 51-41l28 9C148-21 126 4 82 4 31 4 10-29 12-85c3-77 74-140 146-93 12 8 15 23 18 40l-31 5c-1-22-13-36-36-36-52 0-65 49-65 101" id="aj"/><path fill="#333" d="M30-147c31-64 166-65 159 27C183-49 158 1 86 4 9 8 1-88 30-147zM88-20c53 0 68-48 68-100 0-31-11-51-44-50-52 1-68 46-68 97 0 32 13 53 44 53" id="ak"/><path fill="#333" d="M66-151c12-25 30-51 66-40l-6 26C45-176 58-65 38 0H6l36-190h30" id="al"/><g id="c"><use transform="matrix(0.05,0,0,0.05,0,0)" xlink:href="#aj"/><use transform="matrix(0.05,0,0,0.05,9,0)" xlink:href="#ak"/><use transform="matrix(0.05,0,0,0.05,19,0)" xlink:href="#al"/><use transform="matrix(0.05,0,0,0.05,24.95,0)" xlink:href="#al"/><use transform="matrix(0.05,0,0,0.05,30.899999999999995,0)" xlink:href="#ag"/><use transform="matrix(0.05,0,0,0.05,40.9,0)" xlink:href="#ak"/></g><path fill="#333" d="M89 0H52L20-190h33L74-25l89-165h34" id="am"/><path fill="#333" d="M67-158c15-20 31-36 64-36 94 0 33 127 27 194h-32l25-140c3-38-53-32-70-12C52-117 51-51 37 0H6l51-261h31" id="an"/><path fill="#333" d="M17-49c1-102 45-165 103-212h30C92-210 49-145 49-46 49 4 63 43 85 75H54C30 43 18 2 17-49" id="ao"/><path fill="#333" d="M148-71c0-36-31-44-71-41l5-28c46 3 81-6 81-50 0-23-15-35-39-35-30 0-49 17-56 41l-32-3c12-39 42-63 90-64 43 0 69 19 71 60 1 43-30 58-65 66 27 5 49 22 49 53 0 85-133 99-164 35-4-7-7-15-9-22l29-9c8 25 25 45 58 45 34 1 53-17 53-48" id="ap"/><path fill="#333" d="M16-82c0-90 25-169 113-169 48 0 68 33 68 82C197-79 170 4 84 4 37 4 16-31 16-82zm30 5c0 32 11 55 40 55 69 0 76-79 80-149 2-32-10-55-39-55-69 0-81 81-81 149" id="aq"/><path fill="#333" d="M98-137C97-35 54 29-4 75h-31C23 23 67-41 67-140c0-50-15-89-37-121h31c24 32 36 73 37 124" id="ar"/><g id="d"><use transform="matrix(0.05,0,0,0.05,0,0)" xlink:href="#am"/><use transform="matrix(0.05,0,0,0.05,9,0)" xlink:href="#ae"/><use transform="matrix(0.05,0,0,0.05,19,0)" xlink:href="#al"/><use transform="matrix(0.05,0,0,0.05,24.95,0)" xlink:href="#aj"/><use transform="matrix(0.05,0,0,0.05,33.95,0)" xlink:href="#an"/><use transform="matrix(0.05,0,0,0.05,43.95,0)" xlink:href="#ae"/><use transform="matrix(0.05,0,0,0.05,53.95,0)" xlink:href="#al"/><use transform="matrix(0.05,0,0,0.05,59.900000000000006,0)" xlink:href="#ao"/><use transform="matrix(0.05,0,0,0.05,65.85000000000001,0)" xlink:href="#ap"/><use transform="matrix(0.05,0,0,0.05,75.85000000000001,0)" xlink:href="#aq"/><use transform="matrix(0.05,0,0,0.05,85.85000000000001,0)" xlink:href="#aq"/><use transform="matrix(0.05,0,0,0.05,95.85000000000001,0)" xlink:href="#ar"/></g><path fill="#333" d="M67-158c22-48 132-52 116 29L158 0h-32l25-140c3-38-53-32-70-12C52-117 51-52 38 0H6l36-190h30zm126-100c-8 21-15 46-44 47-22 0-30-19-50-21-14 0-21 10-25 21H58c8-21 14-47 44-47 22 0 32 18 50 21 13-1 21-10 25-21h16" id="as"/><g id="e"><use transform="matrix(0.05,0,0,0.05,0,0)" xlink:href="#aj"/><use transform="matrix(0.05,0,0,0.05,9,0)" xlink:href="#ak"/><use transform="matrix(0.05,0,0,0.05,19,0)" xlink:href="#af"/><use transform="matrix(0.05,0,0,0.05,29,0)" xlink:href="#aa"/><use transform="matrix(0.05,0,0,0.05,34,0)" xlink:href="#al"/><use transform="matrix(0.05,0,0,0.05,39.95,0)" xlink:href="#ae"/><use transform="matrix(0.05,0,0,0.05,49.95,0)" xlink:href="#Z"/><use transform="matrix(0.05,0,0,0.05,58.95,0)" xlink:href="#ag"/><use transform="matrix(0.05,0,0,0.05,68.95,0)" xlink:href="#as"/><use transform="matrix(0.05,0,0,0.05,78.95,0)" xlink:href="#ae"/></g><path fill="#333" d="M9 0l6-27h63l36-188-63 39 6-31 66-41h29L110-27h60l-5 27H9" id="at"/><g id="f"><use transform="matrix(0.05,0,0,0.05,0,0)" xlink:href="#am"/><use transform="matrix(0.05,0,0,0.05,9,0)" xlink:href="#ae"/><use transform="matrix(0.05,0,0,0.05,19,0)" xlink:href="#al"/><use transform="matrix(0.05,0,0,0.05,24.95,0)" xlink:href="#aj"/><use transform="matrix(0.05,0,0,0.05,33.95,0)" xlink:href="#an"/><use transform="matrix(0.05,0,0,0.05,43.95,0)" xlink:href="#ae"/><use transform="matrix(0.05,0,0,0.05,53.95,0)" xlink:href="#al"/><use transform="matrix(0.05,0,0,0.05,59.900000000000006,0)" xlink:href="#ao"/><use transform="matrix(0.05,0,0,0.05,65.85000000000001,0)" xlink:href="#at"/><use transform="matrix(0.05,0,0,0.05,75.85000000000001,0)" xlink:href="#aq"/><use transform="matrix(0.05,0,0,0.05,85.85000000000001,0)" xlink:href="#aq"/><use transform="matrix(0.05,0,0,0.05,95.85000000000001,0)" xlink:href="#ar"/></g><path fill="#333" d="M248-111c6-24 9-61-24-58-72 9-57 108-77 169h-31l26-142c3-37-50-30-64-10C52-115 50-51 37 0H6l36-190h30c-1 10-6 24-4 32 13-43 101-52 105 5 13-22 29-41 61-41 90 0 28 129 23 194h-31" id="au"/><path fill="#333" d="M68-162c25-46 127-43 121 31C183-60 169 1 98 4 69 5 53-11 43-31L36 0H5l52-261h31zm88 36c2-27-9-43-34-43-55 0-70 51-70 103 0 29 15 45 43 46 52 0 58-58 61-106" id="av"/><g id="g"><use transform="matrix(0.05,0,0,0.05,0,0)" xlink:href="#af"/><use transform="matrix(0.05,0,0,0.05,10,0)" xlink:href="#ak"/><use transform="matrix(0.05,0,0,0.05,20,0)" xlink:href="#au"/><use transform="matrix(0.05,0,0,0.05,34.95,0)" xlink:href="#av"/><use transform="matrix(0.05,0,0,0.05,44.95,0)" xlink:href="#al"/><use transform="matrix(0.05,0,0,0.05,50.900000000000006,0)" xlink:href="#ag"/></g><path fill="#333" d="M67-162c32-53 139-36 121 50C175-51 163 2 97 4 68 4 52-11 42-31 38 6 28 39 22 75H-9l50-265h29c-1 10 0 20-3 28zm89 36c0-26-10-43-35-43-54 0-67 50-69 103-1 29 14 45 42 46 53 0 62-58 62-106" id="aw"/><path fill="#333" d="M6 0l50-261h32L37 0H6" id="ax"/><g id="h"><use transform="matrix(0.05,0,0,0.05,0,0)" xlink:href="#ae"/><use transform="matrix(0.05,0,0,0.05,10,0)" xlink:href="#aw"/><use transform="matrix(0.05,0,0,0.05,20,0)" xlink:href="#ag"/><use transform="matrix(0.05,0,0,0.05,30,0)" xlink:href="#ax"/><use transform="matrix(0.05,0,0,0.05,33.95,0)" xlink:href="#ax"/><use transform="matrix(0.05,0,0,0.05,37.900000000000006,0)" xlink:href="#ad"/><use transform="matrix(0.05,0,0,0.05,41.85000000000001,0)" xlink:href="#ac"/><use transform="matrix(0.05,0,0,0.05,51.85,0)" xlink:href="#ak"/></g><g id="i"><use transform="matrix(0.05,0,0,0.05,0,0)" xlink:href="#aj"/><use transform="matrix(0.05,0,0,0.05,9,0)" xlink:href="#ae"/><use transform="matrix(0.05,0,0,0.05,19,0)" xlink:href="#al"/><use transform="matrix(0.05,0,0,0.05,24.95,0)" xlink:href="#af"/><use transform="matrix(0.05,0,0,0.05,34.95,0)" xlink:href="#ag"/><use transform="matrix(0.05,0,0,0.05,44.95,0)" xlink:href="#aa"/></g><path fill="#333" d="M198-190L69 30C53 58 25 83-20 72c4-11-1-27 19-22 33-1 43-29 59-52L20-190h32L79-34l84-156h35" id="ay"/><g id="j"><use transform="matrix(0.05,0,0,0.05,0,0)" xlink:href="#aa"/><use transform="matrix(0.05,0,0,0.05,5,0)" xlink:href="#ad"/><use transform="matrix(0.05,0,0,0.05,8.95,0)" xlink:href="#af"/><use transform="matrix(0.05,0,0,0.05,18.95,0)" xlink:href="#ay"/><use transform="matrix(0.05,0,0,0.05,27.950000000000003,0)" xlink:href="#ad"/><use transform="matrix(0.05,0,0,0.05,31.899999999999995,0)" xlink:href="#af"/><use transform="matrix(0.05,0,0,0.05,41.9,0)" xlink:href="#aa"/></g><g id="k"><use transform="matrix(0.05,0,0,0.05,0,0)" xlink:href="#aj"/><use transform="matrix(0.05,0,0,0.05,9,0)" xlink:href="#ae"/><use transform="matrix(0.05,0,0,0.05,19,0)" xlink:href="#al"/><use transform="matrix(0.05,0,0,0.05,24.95,0)" xlink:href="#al"/><use transform="matrix(0.05,0,0,0.05,30.899999999999995,0)" xlink:href="#ag"/><use transform="matrix(0.05,0,0,0.05,40.9,0)" xlink:href="#al"/><use transform="matrix(0.05,0,0,0.05,46.85,0)" xlink:href="#ae"/></g><path fill="#333" d="M238-179c0 84-86 86-175 82L45 0H11l48-248c82 0 179-12 179 69zm-34 1c0-53-64-42-116-43l-19 98c63 0 135 9 135-55" id="az"/><path fill="#333" d="M76-167L44 0H12l33-167H18l4-23h27c3-47 25-81 82-69l-4 24c-35-8-44 15-46 45h37l-5 23H76" id="aA"/><g id="l"><use transform="matrix(0.05,0,0,0.05,0,0)" xlink:href="#az"/><use transform="matrix(0.05,0,0,0.05,12,0)" xlink:href="#al"/><use transform="matrix(0.05,0,0,0.05,17.95,0)" xlink:href="#ak"/><use transform="matrix(0.05,0,0,0.05,27.950000000000003,0)" xlink:href="#aA"/><use transform="matrix(0.05,0,0,0.05,32.95,0)" xlink:href="#ag"/><use transform="matrix(0.05,0,0,0.05,42.95,0)" xlink:href="#Z"/><use transform="matrix(0.05,0,0,0.05,51.95,0)" xlink:href="#ak"/><use transform="matrix(0.05,0,0,0.05,61.95,0)" xlink:href="#al"/></g><g id="m"><use transform="matrix(0.05,0,0,0.05,0,0)" xlink:href="#ag"/><use transform="matrix(0.05,0,0,0.05,10,0)" xlink:href="#Z"/><use transform="matrix(0.05,0,0,0.05,19,0)" xlink:href="#aj"/><use transform="matrix(0.05,0,0,0.05,28,0)" xlink:href="#ab"/><use transform="matrix(0.05,0,0,0.05,38,0)" xlink:href="#ag"/><use transform="matrix(0.05,0,0,0.05,48,0)" xlink:href="#ax"/><use transform="matrix(0.05,0,0,0.05,51.95,0)" xlink:href="#ae"/></g><g id="n"><use transform="matrix(0.05,0,0,0.05,0,0)" xlink:href="#Y"/><use transform="matrix(0.05,0,0,0.05,12,0)" xlink:href="#au"/><use transform="matrix(0.05,0,0,0.05,26.950000000000003,0)" xlink:href="#aw"/><use transform="matrix(0.05,0,0,0.05,36.95,0)" xlink:href="#al"/><use transform="matrix(0.05,0,0,0.05,42.900000000000006,0)" xlink:href="#ag"/><use transform="matrix(0.05,0,0,0.05,52.900000000000006,0)" xlink:href="#Z"/><use transform="matrix(0.05,0,0,0.05,61.900000000000006,0)" xlink:href="#ae"/></g><g id="o"><use transform="matrix(0.05,0,0,0.05,0,0)" xlink:href="#aa"/><use transform="matrix(0.05,0,0,0.05,5,0)" xlink:href="#ag"/><use transform="matrix(0.05,0,0,0.05,15,0)" xlink:href="#ax"/><use transform="matrix(0.05,0,0,0.05,18.95,0)" xlink:href="#ag"/><use transform="matrix(0.05,0,0,0.05,28.950000000000003,0)" xlink:href="#aA"/><use transform="matrix(0.05,0,0,0.05,33.95,0)" xlink:href="#ak"/><use transform="matrix(0.05,0,0,0.05,43.95,0)" xlink:href="#af"/><use transform="matrix(0.05,0,0,0.05,53.95,0)" xlink:href="#ak"/></g><path fill="#333" d="M187 0l-14-72H61L19 0h-37l149-248h38L221 0h-34zm-19-99l-22-123L76-99h92" id="aB"/><g id="p"><use transform="matrix(0.05,0,0,0.05,0,0)" xlink:href="#aB"/><use transform="matrix(0.05,0,0,0.05,12,0)" xlink:href="#ac"/><use transform="matrix(0.05,0,0,0.05,22,0)" xlink:href="#au"/><use transform="matrix(0.05,0,0,0.05,36.95,0)" xlink:href="#ad"/><use transform="matrix(0.05,0,0,0.05,40.900000000000006,0)" xlink:href="#af"/><use transform="matrix(0.05,0,0,0.05,50.900000000000006,0)" xlink:href="#ad"/><use transform="matrix(0.05,0,0,0.05,54.85,0)" xlink:href="#Z"/><use transform="matrix(0.05,0,0,0.05,63.85,0)" xlink:href="#aa"/><use transform="matrix(0.05,0,0,0.05,68.85000000000001,0)" xlink:href="#al"/><use transform="matrix(0.05,0,0,0.05,74.80000000000001,0)" xlink:href="#ae"/><use transform="matrix(0.05,0,0,0.05,84.80000000000001,0)" xlink:href="#ac"/><use transform="matrix(0.05,0,0,0.05,94.80000000000001,0)" xlink:href="#ak"/><use transform="matrix(0.05,0,0,0.05,104.80000000000001,0)" xlink:href="#al"/></g><g id="q"><use transform="matrix(0.05,0,0,0.05,0,0)" xlink:href="#az"/><use transform="matrix(0.05,0,0,0.05,12,0)" xlink:href="#al"/><use transform="matrix(0.05,0,0,0.05,17.95,0)" xlink:href="#ae"/><use transform="matrix(0.05,0,0,0.05,27.950000000000003,0)" xlink:href="#aj"/><use transform="matrix(0.05,0,0,0.05,36.95,0)" xlink:href="#aa"/><use transform="matrix(0.05,0,0,0.05,41.95,0)" xlink:href="#ad"/><use transform="matrix(0.05,0,0,0.05,45.900000000000006,0)" xlink:href="#aj"/><use transform="matrix(0.05,0,0,0.05,54.900000000000006,0)" xlink:href="#ae"/><use transform="matrix(0.05,0,0,0.05,64.9,0)" xlink:href="#az"/><use transform="matrix(0.05,0,0,0.05,76.9,0)" xlink:href="#al"/><use transform="matrix(0.05,0,0,0.05,82.85000000000001,0)" xlink:href="#ak"/><use transform="matrix(0.05,0,0,0.05,92.85000000000001,0)" xlink:href="#aA"/><use transform="matrix(0.05,0,0,0.05,97.85000000000001,0)" xlink:href="#ag"/><use transform="matrix(0.05,0,0,0.05,107.85000000000001,0)" xlink:href="#Z"/><use transform="matrix(0.05,0,0,0.05,116.85000000000001,0)" xlink:href="#ad"/><use transform="matrix(0.05,0,0,0.05,120.80000000000001,0)" xlink:href="#ak"/><use transform="matrix(0.05,0,0,0.05,130.8,0)" xlink:href="#af"/><use transform="matrix(0.05,0,0,0.05,140.8,0)" xlink:href="#ae"/><use transform="matrix(0.05,0,0,0.05,150.8,0)" xlink:href="#ax"/></g><g id="r"><use transform="matrix(0.05,0,0,0.05,0,0)" xlink:href="#ad"/><use transform="matrix(0.05,0,0,0.05,3.95,0)" xlink:href="#ac"/></g><g id="s"><use transform="matrix(0.05,0,0,0.05,0,0)" xlink:href="#Z"/><use transform="matrix(0.05,0,0,0.05,9,0)" xlink:href="#au"/><use transform="matrix(0.05,0,0,0.05,23.950000000000003,0)" xlink:href="#ae"/><use transform="matrix(0.05,0,0,0.05,33.95,0)" xlink:href="#ax"/><use transform="matrix(0.05,0,0,0.05,37.900000000000006,0)" xlink:href="#ax"/><use transform="matrix(0.05,0,0,0.05,41.85000000000001,0)" xlink:href="#ad"/><use transform="matrix(0.05,0,0,0.05,45.80000000000001,0)" xlink:href="#af"/><use transform="matrix(0.05,0,0,0.05,55.80000000000001,0)" xlink:href="#aa"/></g><path d="M233-177c-1 41-23 64-60 70L243 0h-38l-65-103H63V0H30v-248c88 3 205-21 203 71zM63-129c60-2 137 13 137-47 0-61-80-42-137-45v92" id="aC"/><g id="t"><use transform="matrix(0.05,0,0,0.05,0,0)" xlink:href="#aC"/><use transform="matrix(0.05,0,0,0.05,12.950000000000001,0)" xlink:href="#ai"/></g><g id="u"><use transform="matrix(0.05,0,0,0.05,0,0)" xlink:href="#ag"/><use transform="matrix(0.05,0,0,0.05,10,0)" xlink:href="#Z"/><use transform="matrix(0.05,0,0,0.05,19,0)" xlink:href="#aa"/><use transform="matrix(0.05,0,0,0.05,24,0)" xlink:href="#ab"/><use transform="matrix(0.05,0,0,0.05,34,0)" xlink:href="#ac"/><use transform="matrix(0.05,0,0,0.05,44,0)" xlink:href="#ad"/><use transform="matrix(0.05,0,0,0.05,47.95,0)" xlink:href="#ae"/><use transform="matrix(0.05,0,0,0.05,57.95,0)" xlink:href="#af"/><use transform="matrix(0.05,0,0,0.05,67.95,0)" xlink:href="#aa"/><use transform="matrix(0.05,0,0,0.05,72.95,0)" xlink:href="#ag"/></g><g id="v"><use transform="matrix(0.05,0,0,0.05,0,0)" xlink:href="#aw"/><use transform="matrix(0.05,0,0,0.05,10,0)" xlink:href="#al"/><use transform="matrix(0.05,0,0,0.05,15.949999999999998,0)" xlink:href="#ak"/><use transform="matrix(0.05,0,0,0.05,25.950000000000003,0)" xlink:href="#aA"/><use transform="matrix(0.05,0,0,0.05,30.950000000000003,0)" xlink:href="#ag"/><use transform="matrix(0.05,0,0,0.05,40.95,0)" xlink:href="#Z"/><use transform="matrix(0.05,0,0,0.05,49.95,0)" xlink:href="#ak"/><use transform="matrix(0.05,0,0,0.05,59.95,0)" xlink:href="#al"/></g><g id="w"><use transform="matrix(0.05,0,0,0.05,0,0)" xlink:href="#ag"/><use transform="matrix(0.05,0,0,0.05,10,0)" xlink:href="#au"/><use transform="matrix(0.05,0,0,0.05,24.950000000000003,0)" xlink:href="#aw"/><use transform="matrix(0.05,0,0,0.05,34.95,0)" xlink:href="#al"/><use transform="matrix(0.05,0,0,0.05,40.900000000000006,0)" xlink:href="#ag"/><use transform="matrix(0.05,0,0,0.05,50.900000000000006,0)" xlink:href="#Z"/><use transform="matrix(0.05,0,0,0.05,59.900000000000006,0)" xlink:href="#ae"/></g><path fill="#333" d="M87-220l-18 92h140l-5 28H64L45 0H11l48-248h178l-5 28H87" id="aD"/><g id="x"><use transform="matrix(0.05,0,0,0.05,0,0)" xlink:href="#aj"/><use transform="matrix(0.05,0,0,0.05,9,0)" xlink:href="#ae"/><use transform="matrix(0.05,0,0,0.05,19,0)" xlink:href="#ax"/><use transform="matrix(0.05,0,0,0.05,22.95,0)" xlink:href="#ad"/><use transform="matrix(0.05,0,0,0.05,26.899999999999995,0)" xlink:href="#aA"/><use transform="matrix(0.05,0,0,0.05,31.899999999999995,0)" xlink:href="#ad"/><use transform="matrix(0.05,0,0,0.05,35.85,0)" xlink:href="#aj"/><use transform="matrix(0.05,0,0,0.05,44.85,0)" xlink:href="#ae"/><use transform="matrix(0.05,0,0,0.05,54.85,0)" xlink:href="#aj"/><use transform="matrix(0.05,0,0,0.05,63.85,0)" xlink:href="#ad"/><use transform="matrix(0.05,0,0,0.05,67.8,0)" xlink:href="#ak"/><use transform="matrix(0.05,0,0,0.05,77.8,0)" xlink:href="#af"/><use transform="matrix(0.05,0,0,0.05,87.8,0)" xlink:href="#aD"/><use transform="matrix(0.05,0,0,0.05,98.75,0)" xlink:href="#ad"/><use transform="matrix(0.05,0,0,0.05,102.7,0)" xlink:href="#af"/><use transform="matrix(0.05,0,0,0.05,112.7,0)" xlink:href="#ae"/><use transform="matrix(0.05,0,0,0.05,122.7,0)" xlink:href="#ax"/></g><path fill="#333" d="M14 0l48-248h34L48 0H14" id="aE"/><g id="y"><use transform="matrix(0.05,0,0,0.05,0,0)" xlink:href="#aA"/><use transform="matrix(0.05,0,0,0.05,5,0)" xlink:href="#ag"/><use transform="matrix(0.05,0,0,0.05,15,0)" xlink:href="#aj"/><use transform="matrix(0.05,0,0,0.05,24,0)" xlink:href="#an"/><use transform="matrix(0.05,0,0,0.05,34,0)" xlink:href="#ae"/><use transform="matrix(0.05,0,0,0.05,44,0)" xlink:href="#aE"/><use transform="matrix(0.05,0,0,0.05,49,0)" xlink:href="#af"/><use transform="matrix(0.05,0,0,0.05,59,0)" xlink:href="#ad"/><use transform="matrix(0.05,0,0,0.05,62.95,0)" xlink:href="#aj"/><use transform="matrix(0.05,0,0,0.05,71.95,0)" xlink:href="#ad"/><use transform="matrix(0.05,0,0,0.05,75.9,0)" xlink:href="#ak"/></g><g id="z"><use transform="matrix(0.05,0,0,0.05,0,0)" xlink:href="#ac"/><use transform="matrix(0.05,0,0,0.05,10,0)" xlink:href="#ae"/><use transform="matrix(0.05,0,0,0.05,20,0)" xlink:href="#aa"/><use transform="matrix(0.05,0,0,0.05,25,0)" xlink:href="#ag"/><use transform="matrix(0.05,0,0,0.05,35,0)" xlink:href="#aa"/><use transform="matrix(0.05,0,0,0.05,40,0)" xlink:href="#ad"/><use transform="matrix(0.05,0,0,0.05,43.95,0)" xlink:href="#au"/><use transform="matrix(0.05,0,0,0.05,58.900000000000006,0)" xlink:href="#ag"/></g><g id="A"><use transform="matrix(0.05,0,0,0.05,0,0)" xlink:href="#aA"/><use transform="matrix(0.05,0,0,0.05,5,0)" xlink:href="#ag"/><use transform="matrix(0.05,0,0,0.05,15,0)" xlink:href="#aj"/><use transform="matrix(0.05,0,0,0.05,24,0)" xlink:href="#an"/><use transform="matrix(0.05,0,0,0.05,34,0)" xlink:href="#ae"/><use transform="matrix(0.05,0,0,0.05,44,0)" xlink:href="#aD"/><use transform="matrix(0.05,0,0,0.05,54.95,0)" xlink:href="#ad"/><use transform="matrix(0.05,0,0,0.05,58.900000000000006,0)" xlink:href="#af"/><use transform="matrix(0.05,0,0,0.05,68.9,0)" xlink:href="#ae"/><use transform="matrix(0.05,0,0,0.05,78.9,0)" xlink:href="#ax"/></g><g id="B"><use transform="matrix(0.05,0,0,0.05,0,0)" xlink:href="#Z"/><use transform="matrix(0.05,0,0,0.05,9,0)" xlink:href="#aa"/><use transform="matrix(0.05,0,0,0.05,14,0)" xlink:href="#ae"/><use transform="matrix(0.05,0,0,0.05,24,0)" xlink:href="#aa"/><use transform="matrix(0.05,0,0,0.05,29,0)" xlink:href="#ab"/><use transform="matrix(0.05,0,0,0.05,39,0)" xlink:href="#Z"/></g><path fill="#333" d="M151-85c6-55-69-56-94-29H26l34-134h141l-5 27H84l-20 79c41-34 127-11 121 53C199 13 30 38 8-54l29-8C52 0 159-13 151-85" id="aF"/><g id="C"><use transform="matrix(0.05,0,0,0.05,0,0)" xlink:href="#am"/><use transform="matrix(0.05,0,0,0.05,9,0)" xlink:href="#ae"/><use transform="matrix(0.05,0,0,0.05,19,0)" xlink:href="#al"/><use transform="matrix(0.05,0,0,0.05,24.95,0)" xlink:href="#aj"/><use transform="matrix(0.05,0,0,0.05,33.95,0)" xlink:href="#an"/><use transform="matrix(0.05,0,0,0.05,43.95,0)" xlink:href="#ae"/><use transform="matrix(0.05,0,0,0.05,53.95,0)" xlink:href="#al"/><use transform="matrix(0.05,0,0,0.05,59.900000000000006,0)" xlink:href="#ao"/><use transform="matrix(0.05,0,0,0.05,65.85000000000001,0)" xlink:href="#aF"/><use transform="matrix(0.05,0,0,0.05,75.85000000000001,0)" xlink:href="#aq"/><use transform="matrix(0.05,0,0,0.05,85.85000000000001,0)" xlink:href="#ar"/></g><path fill="#333" d="M125-24c46 0 70-25 89-51l25 16C214-24 183 4 123 4 8 4-5-146 60-208c32-50 158-61 191-5 5 7 9 14 11 22l-32 10c-9-28-33-43-69-43-74 0-108 51-108 125 0 46 24 75 72 75" id="aG"/><g id="D"><use transform="matrix(0.05,0,0,0.05,0,0)" xlink:href="#aG"/><use transform="matrix(0.05,0,0,0.05,12.950000000000001,0)" xlink:href="#ak"/><use transform="matrix(0.05,0,0,0.05,22.950000000000003,0)" xlink:href="#au"/><use transform="matrix(0.05,0,0,0.05,37.900000000000006,0)" xlink:href="#ag"/><use transform="matrix(0.05,0,0,0.05,47.900000000000006,0)" xlink:href="#af"/><use transform="matrix(0.05,0,0,0.05,57.900000000000006,0)" xlink:href="#aa"/><use transform="matrix(0.05,0,0,0.05,62.900000000000006,0)" xlink:href="#ae"/><use transform="matrix(0.05,0,0,0.05,72.9,0)" xlink:href="#al"/><use transform="matrix(0.05,0,0,0.05,78.85000000000001,0)" xlink:href="#ad"/><use transform="matrix(0.05,0,0,0.05,82.80000000000001,0)" xlink:href="#ak"/><use transform="matrix(0.05,0,0,0.05,92.80000000000001,0)" xlink:href="#Y"/><use transform="matrix(0.05,0,0,0.05,104.80000000000001,0)" xlink:href="#au"/><use transform="matrix(0.05,0,0,0.05,119.75,0)" xlink:href="#aw"/><use transform="matrix(0.05,0,0,0.05,129.75,0)" xlink:href="#al"/><use transform="matrix(0.05,0,0,0.05,135.7,0)" xlink:href="#ag"/><use transform="matrix(0.05,0,0,0.05,145.7,0)" xlink:href="#Z"/><use transform="matrix(0.05,0,0,0.05,154.7,0)" xlink:href="#ae"/></g><g id="E"><use transform="matrix(0.05,0,0,0.05,0,0)" xlink:href="#ad"/><use transform="matrix(0.05,0,0,0.05,3.95,0)" xlink:href="#af"/><use transform="matrix(0.05,0,0,0.05,13.949999999999998,0)" xlink:href="#aA"/><use transform="matrix(0.05,0,0,0.05,18.95,0)" xlink:href="#ak"/><use transform="matrix(0.05,0,0,0.05,28.950000000000003,0)" xlink:href="#al"/><use transform="matrix(0.05,0,0,0.05,34.9,0)" xlink:href="#au"/><use transform="matrix(0.05,0,0,0.05,49.85,0)" xlink:href="#ag"/></g><g id="F"><use transform="matrix(0.05,0,0,0.05,0,0)" xlink:href="#aj"/><use transform="matrix(0.05,0,0,0.05,9,0)" xlink:href="#ak"/><use transform="matrix(0.05,0,0,0.05,19,0)" xlink:href="#af"/><use transform="matrix(0.05,0,0,0.05,29,0)" xlink:href="#aa"/><use transform="matrix(0.05,0,0,0.05,34,0)" xlink:href="#ag"/><use transform="matrix(0.05,0,0,0.05,44,0)" xlink:href="#af"/><use transform="matrix(0.05,0,0,0.05,54,0)" xlink:href="#ad"/><use transform="matrix(0.05,0,0,0.05,57.95,0)" xlink:href="#ac"/><use transform="matrix(0.05,0,0,0.05,67.95,0)" xlink:href="#ak"/></g><path fill="#333" d="M222 0l43-216c-8 16-17 34-26 49L143 0h-22L81-216 41 0H11l48-248h42l38 208 116-208h45L252 0h-30" id="aH"/><path fill="#333" d="M176 0l-54-107L30 0H-7l115-131-60-117h35l48 97 83-97h37L146-129 211 0h-35" id="aI"/><g id="G"><use transform="matrix(0.05,0,0,0.05,0,0)" xlink:href="#am"/><use transform="matrix(0.05,0,0,0.05,9,0)" xlink:href="#ae"/><use transform="matrix(0.05,0,0,0.05,19,0)" xlink:href="#al"/><use transform="matrix(0.05,0,0,0.05,24.95,0)" xlink:href="#aj"/><use transform="matrix(0.05,0,0,0.05,33.95,0)" xlink:href="#an"/><use transform="matrix(0.05,0,0,0.05,43.95,0)" xlink:href="#ae"/><use transform="matrix(0.05,0,0,0.05,53.95,0)" xlink:href="#al"/><use transform="matrix(0.05,0,0,0.05,59.900000000000006,0)" xlink:href="#ao"/><use transform="matrix(0.05,0,0,0.05,65.85000000000001,0)" xlink:href="#aH"/><use transform="matrix(0.05,0,0,0.05,80.80000000000001,0)" xlink:href="#aB"/><use transform="matrix(0.05,0,0,0.05,92.80000000000001,0)" xlink:href="#aI"/><use transform="matrix(0.05,0,0,0.05,104.80000000000001,0)" xlink:href="#ar"/></g><g id="H"><use transform="matrix(0.05,0,0,0.05,0,0)" xlink:href="#aw"/><use transform="matrix(0.05,0,0,0.05,10,0)" xlink:href="#ak"/><use transform="matrix(0.05,0,0,0.05,20,0)" xlink:href="#Z"/><use transform="matrix(0.05,0,0,0.05,29,0)" xlink:href="#aa"/><use transform="matrix(0.05,0,0,0.05,34,0)" xlink:href="#aa"/><use transform="matrix(0.05,0,0,0.05,39,0)" xlink:href="#ad"/><use transform="matrix(0.05,0,0,0.05,42.95,0)" xlink:href="#au"/><use transform="matrix(0.05,0,0,0.05,57.900000000000006,0)" xlink:href="#ag"/></g><g id="I"><use transform="matrix(0.05,0,0,0.05,0,0)" xlink:href="#aG"/><use transform="matrix(0.05,0,0,0.05,12.950000000000001,0)" xlink:href="#ak"/><use transform="matrix(0.05,0,0,0.05,22.950000000000003,0)" xlink:href="#au"/><use transform="matrix(0.05,0,0,0.05,37.900000000000006,0)" xlink:href="#ag"/><use transform="matrix(0.05,0,0,0.05,47.900000000000006,0)" xlink:href="#af"/><use transform="matrix(0.05,0,0,0.05,57.900000000000006,0)" xlink:href="#aa"/><use transform="matrix(0.05,0,0,0.05,62.900000000000006,0)" xlink:href="#ae"/><use transform="matrix(0.05,0,0,0.05,72.9,0)" xlink:href="#al"/><use transform="matrix(0.05,0,0,0.05,78.85000000000001,0)" xlink:href="#ad"/><use transform="matrix(0.05,0,0,0.05,82.80000000000001,0)" xlink:href="#ak"/><use transform="matrix(0.05,0,0,0.05,92.80000000000001,0)" xlink:href="#az"/><use transform="matrix(0.05,0,0,0.05,104.80000000000001,0)" xlink:href="#al"/><use transform="matrix(0.05,0,0,0.05,110.75,0)" xlink:href="#ak"/><use transform="matrix(0.05,0,0,0.05,120.75,0)" xlink:href="#aA"/><use transform="matrix(0.05,0,0,0.05,125.75,0)" xlink:href="#ag"/><use transform="matrix(0.05,0,0,0.05,135.75,0)" xlink:href="#Z"/><use transform="matrix(0.05,0,0,0.05,144.75,0)" xlink:href="#ak"/><use transform="matrix(0.05,0,0,0.05,154.75,0)" xlink:href="#al"/></g><g id="J"><use transform="matrix(0.05,0,0,0.05,0,0)" xlink:href="#av"/><use transform="matrix(0.05,0,0,0.05,10,0)" xlink:href="#ad"/><use transform="matrix(0.05,0,0,0.05,13.949999999999998,0)" xlink:href="#aa"/><use transform="matrix(0.05,0,0,0.05,18.95,0)" xlink:href="#ae"/><use transform="matrix(0.05,0,0,0.05,28.950000000000003,0)" xlink:href="#aj"/><use transform="matrix(0.05,0,0,0.05,37.95,0)" xlink:href="#ak"/><use transform="matrix(0.05,0,0,0.05,47.95,0)" xlink:href="#al"/><use transform="matrix(0.05,0,0,0.05,53.900000000000006,0)" xlink:href="#ae"/></g><g id="K"><use transform="matrix(0.05,0,0,0.05,0,0)" xlink:href="#aE"/><use transform="matrix(0.05,0,0,0.05,5,0)" xlink:href="#af"/><use transform="matrix(0.05,0,0,0.05,15,0)" xlink:href="#aA"/><use transform="matrix(0.05,0,0,0.05,20,0)" xlink:href="#ak"/><use transform="matrix(0.05,0,0,0.05,30,0)" xlink:href="#al"/><use transform="matrix(0.05,0,0,0.05,35.95,0)" xlink:href="#au"/><use transform="matrix(0.05,0,0,0.05,50.900000000000006,0)" xlink:href="#ag"/></g><g id="L"><use transform="matrix(0.05,0,0,0.05,0,0)" xlink:href="#aa"/><use transform="matrix(0.05,0,0,0.05,5,0)" xlink:href="#ad"/><use transform="matrix(0.05,0,0,0.05,8.95,0)" xlink:href="#aa"/><use transform="matrix(0.05,0,0,0.05,13.949999999999998,0)" xlink:href="#ab"/><use transform="matrix(0.05,0,0,0.05,23.95,0)" xlink:href="#ax"/><use transform="matrix(0.05,0,0,0.05,27.899999999999995,0)" xlink:href="#ak"/></g><g id="M"><use transform="matrix(0.05,0,0,0.05,0,0)" xlink:href="#aw"/><use transform="matrix(0.05,0,0,0.05,10,0)" xlink:href="#al"/><use transform="matrix(0.05,0,0,0.05,15.949999999999998,0)" xlink:href="#ae"/><use transform="matrix(0.05,0,0,0.05,25.950000000000003,0)" xlink:href="#aj"/><use transform="matrix(0.05,0,0,0.05,34.95,0)" xlink:href="#aa"/><use transform="matrix(0.05,0,0,0.05,39.95,0)" xlink:href="#ad"/><use transform="matrix(0.05,0,0,0.05,43.900000000000006,0)" xlink:href="#aj"/><use transform="matrix(0.05,0,0,0.05,52.900000000000006,0)" xlink:href="#ae"/></g><g id="N"><use transform="matrix(0.05,0,0,0.05,0,0)" xlink:href="#aj"/><use transform="matrix(0.05,0,0,0.05,9,0)" xlink:href="#ae"/><use transform="matrix(0.05,0,0,0.05,19,0)" xlink:href="#ax"/><use transform="matrix(0.05,0,0,0.05,22.95,0)" xlink:href="#ad"/><use transform="matrix(0.05,0,0,0.05,26.899999999999995,0)" xlink:href="#aA"/><use transform="matrix(0.05,0,0,0.05,31.899999999999995,0)" xlink:href="#ad"/><use transform="matrix(0.05,0,0,0.05,35.85,0)" xlink:href="#aj"/><use transform="matrix(0.05,0,0,0.05,44.85,0)" xlink:href="#ae"/><use transform="matrix(0.05,0,0,0.05,54.85,0)" xlink:href="#aj"/><use transform="matrix(0.05,0,0,0.05,63.85,0)" xlink:href="#ad"/><use transform="matrix(0.05,0,0,0.05,67.8,0)" xlink:href="#ak"/><use transform="matrix(0.05,0,0,0.05,77.8,0)" xlink:href="#af"/><use transform="matrix(0.05,0,0,0.05,87.8,0)" xlink:href="#az"/><use transform="matrix(0.05,0,0,0.05,99.8,0)" xlink:href="#al"/><use transform="matrix(0.05,0,0,0.05,105.75,0)" xlink:href="#ak"/><use transform="matrix(0.05,0,0,0.05,115.75,0)" xlink:href="#aA"/><use transform="matrix(0.05,0,0,0.05,120.75,0)" xlink:href="#ag"/><use transform="matrix(0.05,0,0,0.05,130.75,0)" xlink:href="#Z"/><use transform="matrix(0.05,0,0,0.05,139.75,0)" xlink:href="#ak"/><use transform="matrix(0.05,0,0,0.05,149.75,0)" xlink:href="#al"/></g><g id="O"><use transform="matrix(0.05,0,0,0.05,0,0)" xlink:href="#aj"/><use transform="matrix(0.05,0,0,0.05,9,0)" xlink:href="#ae"/><use transform="matrix(0.05,0,0,0.05,19,0)" xlink:href="#ax"/><use transform="matrix(0.05,0,0,0.05,22.95,0)" xlink:href="#ad"/><use transform="matrix(0.05,0,0,0.05,26.899999999999995,0)" xlink:href="#aA"/><use transform="matrix(0.05,0,0,0.05,31.899999999999995,0)" xlink:href="#ad"/><use transform="matrix(0.05,0,0,0.05,35.85,0)" xlink:href="#aj"/><use transform="matrix(0.05,0,0,0.05,44.85,0)" xlink:href="#ae"/><use transform="matrix(0.05,0,0,0.05,54.85,0)" xlink:href="#aj"/><use transform="matrix(0.05,0,0,0.05,63.85,0)" xlink:href="#ad"/><use transform="matrix(0.05,0,0,0.05,67.8,0)" xlink:href="#ak"/><use transform="matrix(0.05,0,0,0.05,77.8,0)" xlink:href="#af"/><use transform="matrix(0.05,0,0,0.05,87.8,0)" xlink:href="#Y"/><use transform="matrix(0.05,0,0,0.05,99.8,0)" xlink:href="#au"/><use transform="matrix(0.05,0,0,0.05,114.75,0)" xlink:href="#aw"/><use transform="matrix(0.05,0,0,0.05,124.75,0)" xlink:href="#al"/><use transform="matrix(0.05,0,0,0.05,130.7,0)" xlink:href="#ag"/><use transform="matrix(0.05,0,0,0.05,140.7,0)" xlink:href="#Z"/><use transform="matrix(0.05,0,0,0.05,149.7,0)" xlink:href="#ae"/></g><path fill="#333" d="M151-220L108 0H75l42-220H32l6-28h203l-5 28h-85" id="aJ"/><g id="P"><use transform="matrix(0.05,0,0,0.05,0,0)" xlink:href="#aj"/><use transform="matrix(0.05,0,0,0.05,9,0)" xlink:href="#ae"/><use transform="matrix(0.05,0,0,0.05,19,0)" xlink:href="#ax"/><use transform="matrix(0.05,0,0,0.05,22.95,0)" xlink:href="#ad"/><use transform="matrix(0.05,0,0,0.05,26.899999999999995,0)" xlink:href="#aA"/><use transform="matrix(0.05,0,0,0.05,31.899999999999995,0)" xlink:href="#ad"/><use transform="matrix(0.05,0,0,0.05,35.85,0)" xlink:href="#aj"/><use transform="matrix(0.05,0,0,0.05,44.85,0)" xlink:href="#ae"/><use transform="matrix(0.05,0,0,0.05,54.85,0)" xlink:href="#aj"/><use transform="matrix(0.05,0,0,0.05,63.85,0)" xlink:href="#ad"/><use transform="matrix(0.05,0,0,0.05,67.8,0)" xlink:href="#ak"/><use transform="matrix(0.05,0,0,0.05,77.8,0)" xlink:href="#af"/><use transform="matrix(0.05,0,0,0.05,87.8,0)" xlink:href="#aJ"/><use transform="matrix(0.05,0,0,0.05,97.1,0)" xlink:href="#ak"/><use transform="matrix(0.05,0,0,0.05,107.09999999999998,0)" xlink:href="#aa"/><use transform="matrix(0.05,0,0,0.05,112.09999999999998,0)" xlink:href="#ae"/><use transform="matrix(0.05,0,0,0.05,122.09999999999998,0)" xlink:href="#ax"/></g><path fill="#333" d="M219-77C219 17 104-2 11 0l48-248c73 2 169-15 169 57 0 38-24 54-60 60 29 5 51 21 51 54zm-26-111c0-44-62-31-105-33l-16 79c55 0 121 9 121-46zm-7 110c-1-49-69-36-119-38L50-27c61-1 137 12 136-51" id="aK"/><path fill="#333" d="M194-120c59 52 2 134-86 124-53-6-90-18-98-63l31-7c8 30 29 43 70 43 46 0 84-17 71-62-32-43-135-20-137-98-3-89 178-90 191-16l-30 9c-8-48-127-53-127 5 0 53 81 35 115 65" id="aL"/><g id="Q"><use transform="matrix(0.05,0,0,0.05,0,0)" xlink:href="#aK"/><use transform="matrix(0.05,0,0,0.05,12,0)" xlink:href="#ad"/><use transform="matrix(0.05,0,0,0.05,15.949999999999998,0)" xlink:href="#aa"/><use transform="matrix(0.05,0,0,0.05,20.95,0)" xlink:href="#ae"/><use transform="matrix(0.05,0,0,0.05,30.950000000000003,0)" xlink:href="#aj"/><use transform="matrix(0.05,0,0,0.05,39.95,0)" xlink:href="#ak"/><use transform="matrix(0.05,0,0,0.05,49.95,0)" xlink:href="#al"/><use transform="matrix(0.05,0,0,0.05,55.900000000000006,0)" xlink:href="#ae"/><use transform="matrix(0.05,0,0,0.05,65.9,0)" xlink:href="#aL"/><use transform="matrix(0.05,0,0,0.05,77.9,0)" xlink:href="#ag"/><use transform="matrix(0.05,0,0,0.05,87.9,0)" xlink:href="#au"/><use transform="matrix(0.05,0,0,0.05,102.85000000000001,0)" xlink:href="#ae"/><use transform="matrix(0.05,0,0,0.05,112.85000000000001,0)" xlink:href="#af"/><use transform="matrix(0.05,0,0,0.05,122.85000000000001,0)" xlink:href="#ae"/><use transform="matrix(0.05,0,0,0.05,132.85000000000002,0)" xlink:href="#ax"/></g><g id="R"><use transform="matrix(0.05,0,0,0.05,0,0)" xlink:href="#Z"/><use transform="matrix(0.05,0,0,0.05,9,0)" xlink:href="#ag"/><use transform="matrix(0.05,0,0,0.05,19,0)" xlink:href="#au"/><use transform="matrix(0.05,0,0,0.05,33.95,0)" xlink:href="#ae"/><use transform="matrix(0.05,0,0,0.05,43.95,0)" xlink:href="#af"/><use transform="matrix(0.05,0,0,0.05,53.95,0)" xlink:href="#ae"/></g><path fill="#333" d="M179 0l23-115H67L45 0H11l48-248h34L72-143h135l21-105h32L212 0h-33" id="aM"/><path fill="#333" d="M248-139C247-14 144 9 11 0l48-248c105-6 190 8 189 109zm-34 0c1-70-52-87-126-82L50-27c98 7 163-21 164-112" id="aN"/><g id="S"><use transform="matrix(0.05,0,0,0.05,0,0)" xlink:href="#aM"/><use transform="matrix(0.05,0,0,0.05,12.950000000000001,0)" xlink:href="#ak"/><use transform="matrix(0.05,0,0,0.05,22.950000000000003,0)" xlink:href="#al"/><use transform="matrix(0.05,0,0,0.05,28.900000000000002,0)" xlink:href="#ae"/><use transform="matrix(0.05,0,0,0.05,38.900000000000006,0)" xlink:href="#Z"/><use transform="matrix(0.05,0,0,0.05,47.900000000000006,0)" xlink:href="#aN"/><use transform="matrix(0.05,0,0,0.05,60.85,0)" xlink:href="#ad"/><use transform="matrix(0.05,0,0,0.05,64.80000000000001,0)" xlink:href="#ae"/></g><g id="T"><use transform="matrix(0.05,0,0,0.05,0,0)" xlink:href="#ac"/><use transform="matrix(0.05,0,0,0.05,10,0)" xlink:href="#ad"/><use transform="matrix(0.05,0,0,0.05,13.949999999999998,0)" xlink:href="#ae"/></g><g id="U"><use transform="matrix(0.05,0,0,0.05,0,0)" xlink:href="#an"/><use transform="matrix(0.05,0,0,0.05,10,0)" xlink:href="#ak"/><use transform="matrix(0.05,0,0,0.05,20,0)" xlink:href="#al"/><use transform="matrix(0.05,0,0,0.05,25.950000000000003,0)" xlink:href="#ae"/><use transform="matrix(0.05,0,0,0.05,35.95,0)" xlink:href="#Z"/></g><path fill="#333" d="M30-248c87 1 191-15 191 75 0 78-77 80-158 76V0H30v-248zm33 125c57 0 124 11 124-50 0-59-68-47-124-48v98" id="aO"/><path fill="#333" d="M84 4C-5 8 30-112 23-190h32v120c0 31 7 50 39 49 72-2 45-101 50-169h31l1 190h-30c-1-10 1-25-2-33-11 22-28 36-60 37" id="aP"/><path fill="#333" d="M100-194c63 0 86 42 84 106H49c0 40 14 67 53 68 26 1 43-12 49-29l28 8c-11 28-37 45-77 45C44 4 14-33 15-96c1-61 26-98 85-98zm52 81c6-60-76-77-97-28-3 7-6 17-6 28h103" id="aQ"/><path fill="#333" d="M85-194c31 0 48 13 60 33l-1-100h32l1 261h-30c-2-10 0-23-3-31C134-8 116 4 85 4 32 4 16-35 15-94c0-66 23-100 70-100zm9 24c-40 0-46 34-46 75 0 40 6 74 45 74 42 0 51-32 51-76 0-42-9-74-50-73" id="aR"/><g id="V"><use transform="matrix(0.05,0,0,0.05,0,0)" xlink:href="#aO"/><use transform="matrix(0.05,0,0,0.05,12,0)" xlink:href="#aP"/><use transform="matrix(0.05,0,0,0.05,22,0)" xlink:href="#aQ"/><use transform="matrix(0.05,0,0,0.05,32,0)" xlink:href="#aR"/><use transform="matrix(0.05,0,0,0.05,42,0)" xlink:href="#aQ"/></g><path fill="#333" d="M135-143c-3-34-86-38-87 0 15 53 115 12 119 90S17 21 10-45l28-5c4 36 97 45 98 0-10-56-113-15-118-90-4-57 82-63 122-42 12 7 21 19 24 35" id="aS"/><path fill="#333" d="M114-163C36-179 61-72 57 0H25l-1-190h30c1 12-1 29 2 39 6-27 23-49 58-41v29" id="aT"/><g id="W"><use transform="matrix(0.05,0,0,0.05,0,0)" xlink:href="#aS"/><use transform="matrix(0.05,0,0,0.05,9,0)" xlink:href="#aQ"/><use transform="matrix(0.05,0,0,0.05,19,0)" xlink:href="#aT"/></g><path fill="#333" d="M190 0L58-211 59 0H30v-248h39L202-35l-2-213h31V0h-41" id="aU"/><path fill="#333" d="M232-93c-1 65-40 97-104 97C67 4 28-28 28-90v-158h33c8 89-33 224 67 224 102 0 64-133 71-224h33v155" id="aV"/><path fill="#333" d="M30 0v-248h33v221h125V0H30" id="aW"/><g id="X"><use transform="matrix(0.05,0,0,0.05,0,0)" xlink:href="#aU"/><use transform="matrix(0.05,0,0,0.05,12.950000000000001,0)" xlink:href="#aV"/><use transform="matrix(0.05,0,0,0.05,25.900000000000002,0)" xlink:href="#aW"/><use transform="matrix(0.05,0,0,0.05,35.900000000000006,0)" xlink:href="#aW"/></g></defs></g></svg>