<svg xmlns="http://www.w3.org/2000/svg" xmlns:xlink="http://www.w3.org/1999/xlink" xmlns:lucid="lucid" width="1353.96" height="1175.83"><g transform="translate(1175.4637899780528 681.5)" lucid:page-tab-id="0_0"><path d="M-1500-1000H500V500h-2000z" fill="#fff"/><path d="M-1117.64-500.5v4.97m0 4.97v9.95m0 4.96v9.94m0 4.97v9.95m0 4.97v9.93m0 4.97v9.94m0 4.98v9.94m0 4.97v9.94m0 4.98v9.94m0 4.96v9.94m0 4.98v9.94m0 4.97v9.93m0 4.98v9.95m0 4.97v9.94m0 4.97v9.95m0 4.97v9.94m0 4.96v9.95m0 4.98v9.94m0 4.97v9.94m0 4.97v9.95m0 4.97v9.95m0 4.97v9.94m0 4.97v9.95m0 4.97v9.94m0 4.98v9.95m0 4.97v9.94m0 4.97v9.95m0 4.98v9.94m0 4.97v9.94m0 4.98V-63m0 4.97v9.94m0 5v9.93m0 4.97v9.94m0 4.98v9.94m0 4.97v9.94m0 4.98v9.94m0 4.96v9.94m0 4.97v9.95m0 4.97v9.93m0 4.97v9.95m0 4.97v9.94m0 4.97v9.95m0 4.97v9.94m0 4.96v9.95m0 4.98v9.94m0 4.97v9.94m0 4.97v9.95m0 4.97v9.94m0 4.98v9.94m0 4.97v9.94m0 4.97v9.94m0 4.98v9.94m0 4.98v9.94m0 4.97v9.95m0 4.98v9.94m0 4.97v9.94m0 4.97v9.95m0 4.97v9.94m0 4.98v9.95m0 4.97v9.94m0 4.97v9.96m0 4.97v9.94m0 4.97v9.95m0 4.96v9.94m0 4.97v4.97M-1117.64-500.5v-.5M-1117.63 454.03v.5" stroke="#333" fill="none"/><path d="M-1136.57-450.27a8 8 0 0 1 8-8h24a8 8 0 0 1 8 8v824a8 8 0 0 1-8 8h-24a8 8 0 0 1-8-8z" stroke="#f2f2f2" fill="#d2d3d5"/><path d="M-744.96-523.17v4.96m0 4.95v9.9m0 4.97v9.9m0 4.97v9.9m0 4.96v9.92m0 4.95v9.92m0 4.95v9.92m0 4.96v9.9m0 4.97v9.9m0 4.97v9.9m0 4.97v9.9m0 4.96v9.9m0 4.97v9.92m0 4.95v9.92m0 4.95v9.92m0 4.94v9.92m0 4.96v9.9m0 4.97v9.9m0 4.96v9.9m0 4.97v9.9m0 4.97v9.9m0 4.97v9.92m0 4.94v9.92m0 4.95v9.93m0 4.96v9.9m0 4.96v9.9m0 4.97v9.9m0 4.97v9.9m0 4.97v9.9m0 4.97v9.92m0 4.95v9.93m0 4.95v9.92m0 4.96v9.9m0 4.97v9.9m0 4.97v4.95l.02.3.07.3.1.26.17.26.2.22.2.2.26.15.28.1.28.08.3.03.3.03.28.07.27.1.25.16.23.2.2.2.14.26.1.27.07.3.03.28v4.97m0 4.96v9.9m0 4.97v9.9m0 4.97v9.9m0 4.97v9.92m0 4.95v9.93m0 4.95v9.92m0 4.95v9.92m0 4.96v9.9m0 4.97v9.9m0 4.97v9.9m0 4.97v9.9m0 4.97v9.93m0 4.95v9.92m0 4.95v9.92m0 4.95v9.92m0 4.96v9.9m0 4.97v9.9m0 4.97v9.9m0 4.97v9.92m0 4.96v9.92m0 4.95v9.92m0 4.95v9.92m0 4.95v9.9m0 4.97v9.9m0 4.97v9.9m0 4.97v9.92m0 4.96v9.9m0 4.97v9.9m0 4.97v9.92m0 4.95v9.9m0 4.96v9.92m0 4.95v9.92m0 4.96v9.92m0 4.96v4.95" stroke="#333" fill="none"/><path d="M-744.46-523.15h-1v-.52h1z" stroke="#333" stroke-width=".05" fill="#333"/><path d="M-741.2 491.82v.5" stroke="#333" fill="none"/><path d="M-764.96-390.27a8 8 0 0 1 8-8h24a8 8 0 0 1 8 8v764a8 8 0 0 1-8 8h-24a8 8 0 0 1-8-8z" stroke="#f2f2f2" fill="#d2d3d5"/><path d="M-1096.07-388.27h314.72" stroke="#333" fill="none"/><path d="M-1096.06-387.77v-1z" stroke="#333" stroke-width=".05" fill="#333"/><path d="M-766.58-388.27l-14.27 4.63v-9.27z" stroke="#333" fill="#333"/><use xlink:href="#a" transform="matrix(1,0,0,1,-959.7071004826354,-415.10708657587134) translate(0 15.223828541048864)"/><path d="M66.72-523.17v4.98m0 5v9.94m0 4.97v9.96m0 4.98v9.95m0 4.96v9.96m0 4.97v9.94m0 4.98v9.95m0 4.97v9.96m0 4.97v9.95m0 4.98v9.95m0 4.97v9.95m0 4.98v9.95m0 4.98v9.95m0 4.97v9.95m0 4.98v9.95m0 4.98v9.95m0 4.98v9.95m0 4.98v9.96m0 4.98v9.95m0 4.96v9.95m0 5v9.94m0 4.97v9.97m0 4.97v9.95m0 4.97v9.95m0 4.97v9.94m0 4.98v9.95m0 4.98v9.95m0 4.97v9.95m0 4.98v9.95m0 4.98v9.95m0 4.97v9.95m0 4.98v9.95m0 4.98v9.96m0 4.97v9.95m0 4.98v9.95m0 4.98v9.96m0 4.97v9.96m0 4.98v9.95m0 4.96V49m0 5v9.94m0 4.98v9.95m0 4.97v9.95m0 4.97v9.95m0 4.98v9.95m0 4.97v9.95m0 4.98v9.95m0 4.98v9.95m0 4.97v9.95m0 4.98v9.95m0 4.97v9.96m0 4.98v9.95m0 4.98v9.96m0 4.97V258m0 4.96v9.95m0 5v9.94m0 4.97v9.96m0 4.98v9.95m0 4.97v9.95m0 4.97v9.94m0 4.98v9.95m0 4.98v9.95m0 4.97v9.95m0 4.98v9.95m0 4.98v9.95m0 4.97v9.95m0 4.98v9.95m0 4.98v9.96m0 4.97v9.95m0 4.98v4.97" stroke="#333" fill="none"/><path d="M67.22-523.15h-1v-.52h1z" stroke="#333" stroke-width=".05" fill="#333"/><path d="M66.72 491.82v.5" stroke="#333" fill="none"/><path d="M42.96 88a8 8 0 0 1 8-8h24a8 8 0 0 1 8 8v204a8 8 0 0 1-8 8h-24a8 8 0 0 1-8-8z" stroke="#f2f2f2" fill="#d2d3d5"/><path d="M-840-639.67a8 8 0 0 1 8-8h174.08a8 8 0 0 1 8 8v108a8 8 0 0 1-8 8H-832a8 8 0 0 1-8-8z" stroke="#000" stroke-opacity="0" fill="#ffcc78"/><use xlink:href="#b" transform="matrix(1,0,0,1,-832,-639.6657925685986) translate(51.052674378287534 57.80595713526222)"/><path d="M-32.08-639.67a8 8 0 0 1 8-8H150a8 8 0 0 1 8 8v108a8 8 0 0 1-8 8H-24.08a8 8 0 0 1-8-8z" stroke="#000" stroke-opacity="0" fill="#ffd99a"/><use xlink:href="#c" transform="matrix(1,0,0,1,-24.079068973252532,-639.6657925685986) translate(16.40260629267111 57.80595713526222)"/><use xlink:href="#d" transform="matrix(1,0,0,1,-24.079068973252532,-639.6657925685986) translate(94.58330911284912 57.80595713526222)"/><use xlink:href="#e" transform="matrix(1,0,0,1,-24.079068973252532,-639.6657925685986) translate(127.30396837295068 57.80595713526222)"/><path d="M-1100.7-644.14c0 8.76-7.1 15.86-15.87 15.86-8.76 0-15.86-7.1-15.86-15.86s7.1-15.86 15.86-15.86 15.86 7.1 15.86 15.86z" stroke="#5e5e5e" stroke-width="3" fill="#fff"/><path d="M-1116.57-628.3v47.5a23.05 23.05 0 0 0 2.93 11.24l28.8 51.56m-31.73-56.8l-31.72 56.8m0-94.43h63.45" stroke="#5e5e5e" stroke-width="3" fill="none"/><path d="M-1148.3-654a6 6 0 0 1 6-6h51.45a6 6 0 0 1 6 6v152a6 6 0 0 1-6 6h-51.44a6 6 0 0 1-6-6z" fill="none"/><use xlink:href="#f" transform="matrix(1,0,0,1,-1228.2847776323738,-518.0000000000003) translate(73.82098765432099 17.77777777777778)"/><path d="M-424.96-523.5v4.96m0 4.95v9.93m0 4.96v9.9m0 4.96v9.9m0 4.97v9.9m0 4.97v9.9m0 4.97v9.9m0 4.97v9.92m0 4.95v9.93m0 4.95v9.92m0 4.95v9.92m0 4.96v9.9m0 4.97v9.9m0 4.97v9.9m0 4.97v9.9m0 4.97v9.92m0 4.96v9.92m0 4.95v9.92m0 4.95v9.92m0 4.96v9.9m0 4.97v9.9m0 4.97v9.9m0 4.97v9.92m0 4.96v9.9m0 4.97v9.92m0 4.95v9.92m0 4.95v9.9m0 4.97v9.9m0 4.97v9.9m0 4.97v9.92m0 4.96v9.9m0 4.97v9.9m0 4.97v9.9m0 4.97v9.9m0 4.96v4.96l.02.3.07.28.1.27.17.26.2.22.2.2.26.15.28.1.28.08.3.02.3.02.28.07.27.1.25.16.23.2.2.2.14.27.1.27.07.3.03.28v4.96m0 4.95v9.9m0 4.96v9.92m0 4.96v9.9m0 4.97v9.92m0 4.96v9.9m0 4.97v9.9m0 4.97v9.92m0 4.95v9.9m0 4.96v9.92m0 4.95v9.92m0 4.96v9.92m0 4.96v9.9m0 4.97v9.9m0 4.97v9.9m0 4.97v9.9m0 4.96v9.92m0 4.95v9.92m0 4.95v9.92m0 4.96v9.9m0 4.97v9.9m0 4.97v9.9m0 4.97v9.9m0 4.96v9.9m0 4.97v9.92m0 4.95v9.92m0 4.95v9.92m0 4.94v9.92m0 4.96v9.9m0 4.97v9.9m0 4.96v9.9m0 4.97v9.9m0 4.97v9.9m0 4.97v9.92m0 4.94v4.96" stroke="#333" fill="none"/><path d="M-424.46-523.5h-1v-.5h1z" stroke="#333" stroke-width=".05" fill="#333"/><path d="M-421.2 491.5v.5" stroke="#333" fill="none"/><path d="M-444.96-272a8 8 0 0 1 8-8h24a8 8 0 0 1 8 8v644a8 8 0 0 1-8 8h-24a8 8 0 0 1-8-8z" stroke="#f2f2f2" fill="#d2d3d5"/><path d="M-520-640a8 8 0 0 1 8-8h174.07a8 8 0 0 1 8 8v108a8 8 0 0 1-8 8H-512a8 8 0 0 1-8-8z" stroke="#000" stroke-opacity="0" fill="#ffcc78"/><use xlink:href="#g" transform="matrix(1,0,0,1,-512,-640.0000000000003) translate(22.085111737680677 57.80595713526222)"/><use xlink:href="#h" transform="matrix(1,0,0,1,-512,-640.0000000000003) translate(72.77834635874268 57.80595713526222)"/><use xlink:href="#i" transform="matrix(1,0,0,1,-512,-640.0000000000003) translate(100.21295404209116 57.80595713526222)"/><path d="M-723.46-266h259.5" stroke="#5e5e5e" stroke-width="2" fill="none"/><path d="M-723.44-265h-1.02v-2h1.02z" stroke="#5e5e5e" stroke-width=".05" fill="#5e5e5e"/><path d="M-448.7-266l-14.26 4.63v-9.26z" stroke="#5e5e5e" stroke-width="2" fill="#5e5e5e"/><use xlink:href="#j" transform="matrix(1,0,0,1,-623.8513231543382,-291.33333250643255) translate(0.005000000000002558 14.222222222222223)"/><path d="M-403.46 96H23.96" stroke="#5e5e5e" stroke-width="2" fill="none"/><path d="M-403.44 97h-1.02v-2h1.02z" stroke="#5e5e5e" stroke-width=".05" fill="#5e5e5e"/><path d="M39.22 96l-14.26 4.64v-9.28z" stroke="#5e5e5e" stroke-width="2" fill="#5e5e5e"/><use xlink:href="#k" transform="matrix(1,0,0,1,-270.7303299512153,70.6666762600152) translate(0.0049999999999954525 14.222222222222223)"/><path d="M41.46 266h-427.42" stroke="#5e5e5e" stroke-width="2" fill="none"/><path d="M42.46 267h-1.03v-2h1.03z" stroke="#5e5e5e" stroke-width=".05" fill="#5e5e5e"/><path d="M-401.23 266l14.27-4.63v9.26z" stroke="#5e5e5e" stroke-width="2" fill="#5e5e5e"/><use xlink:href="#l" transform="matrix(1,0,0,1,-270.2611392833277,269.99999117835364) translate(0.0049999999999954525 14.222222222222223)"/><use xlink:href="#m" transform="matrix(1,0,0,1,-270.2611392833277,269.99999117835364) translate(115.41240740740741 14.222222222222223)"/><path d="M-446.46 276h-259.5" stroke="#5e5e5e" stroke-width="2" fill="none"/><path d="M-445.46 277h-1.03v-2h1.04z" stroke="#5e5e5e" stroke-width=".05" fill="#5e5e5e"/><path d="M-721.23 276l14.27-4.63v9.26z" stroke="#5e5e5e" stroke-width="2" fill="#5e5e5e"/><use xlink:href="#n" transform="matrix(1,0,0,1,-647.061110216446,279.99999927518354) translate(0.005000000000002558 14.222222222222223)"/><use xlink:href="#o" transform="matrix(1,0,0,1,-647.061110216446,279.99999927518354) translate(70.96796296296296 14.222222222222223)"/><path d="M-766.46 344h-311.1" stroke="#5e5e5e" stroke-width="2" fill="none"/><path d="M-765.46 345h-1.03v-2h1.04z" stroke="#5e5e5e" stroke-width=".05" fill="#5e5e5e"/><path d="M-1092.83 344l14.26-4.63v9.26z" stroke="#5e5e5e" stroke-width="2" fill="#5e5e5e"/><use xlink:href="#p" transform="matrix(1,0,0,1,-1037.7288848123915,347.99999835893726) translate(0.0049999999999954525 14.222222222222223)"/><use xlink:href="#q" transform="matrix(1,0,0,1,-1037.7288848123915,347.99999835893726) translate(51.26425925925926 14.222222222222223)"/><use xlink:href="#r" transform="matrix(1,0,0,1,-1037.7288848123915,347.99999835893726) translate(76.8938888888889 14.222222222222223)"/><use xlink:href="#s" transform="matrix(1,0,0,1,-1037.7288848123915,347.99999835893726) translate(149.88154320987655 14.222222222222223)"/><path d="M-403.46-262H-326a6 6 0 0 1 6 6v98a6 6 0 0 1-6 6h-59.96" stroke="#5e5e5e" stroke-width="2" fill="none"/><path d="M-403.44-261h-1.02v-2h1.02z" stroke="#5e5e5e" stroke-width=".05" fill="#5e5e5e"/><path d="M-401.23-152l14.27-4.63v9.26z" stroke="#5e5e5e" stroke-width="2" fill="#5e5e5e"/><use xlink:href="#t" transform="matrix(1,0,0,1,-312,-217.66663167685792) translate(0.0049999999999954525 14.222222222222223)"/><use xlink:href="#q" transform="matrix(1,0,0,1,-312,-217.66663167685792) translate(41.980308641975306 14.222222222222223)"/><use xlink:href="#u" transform="matrix(1,0,0,1,-312,-217.66663167685792) translate(67.60993827160493 14.222222222222223)"/><path d="M-301 166a6 6 0 0 1 6-6h228a6 6 0 0 1 6 6v48a6 6 0 0 1-6 6h-228a6 6 0 0 1-6-6z" fill="none"/><g><use xlink:href="#v" transform="matrix(1,0,0,1,-301.00191542170285,160) translate(8.123456790123441 22.888888888888886)"/><use xlink:href="#w" transform="matrix(1,0,0,1,-301.00191542170285,160) translate(29.85185185185184 22.888888888888886)"/><use xlink:href="#x" transform="matrix(1,0,0,1,-301.00191542170285,160) translate(100.81481481481481 22.888888888888886)"/><use xlink:href="#y" transform="matrix(1,0,0,1,-301.00191542170285,160) translate(125.50617283950618 22.888888888888886)"/><use xlink:href="#z" transform="matrix(1,0,0,1,-301.00191542170285,160) translate(221.06172839506175 22.888888888888886)"/><use xlink:href="#A" transform="matrix(1,0,0,1,-301.00191542170285,160) translate(51.16049382716048 44.22222222222222)"/><use xlink:href="#B" transform="matrix(1,0,0,1,-301.00191542170285,160) translate(129.03703703703704 44.22222222222222)"/><use xlink:href="#C" transform="matrix(1,0,0,1,-301.00191542170285,160) translate(159.60493827160494 44.22222222222222)"/></g><path d="M-140-92.27a6 6 0 0 1 6-6H-6a6 6 0 0 1 6 6v108a6 6 0 0 1-6 6h-128a6 6 0 0 1-6-6z" fill="none"/><g><use xlink:href="#v" transform="matrix(1,0,0,1,-140,-98.27134376429774) translate(13.777777777777771 42.22222222222222)"/><use xlink:href="#w" transform="matrix(1,0,0,1,-140,-98.27134376429774) translate(35.50617283950617 42.22222222222222)"/><use xlink:href="#D" transform="matrix(1,0,0,1,-140,-98.27134376429774) translate(106.46913580246914 42.22222222222222)"/><use xlink:href="#E" transform="matrix(1,0,0,1,-140,-98.27134376429774) translate(24.617283950617278 63.55555555555556)"/><use xlink:href="#z" transform="matrix(1,0,0,1,-140,-98.27134376429774) translate(104.56790123456791 63.55555555555556)"/><use xlink:href="#F" transform="matrix(1,0,0,1,-140,-98.27134376429774) translate(9.407407407407405 84.8888888888889)"/></g><path d="M-403.46-96H-326a6 6 0 0 1 6 6V18a6 6 0 0 1-6 6h-59.96" stroke="#5e5e5e" stroke-width="2" fill="none"/><path d="M-403.44-95h-1.02v-2h1.02z" stroke="#5e5e5e" stroke-width=".05" fill="#5e5e5e"/><path d="M-401.23 24l14.27-4.64v9.28z" stroke="#5e5e5e" stroke-width="2" fill="#5e5e5e"/><g><use xlink:href="#G" transform="matrix(1,0,0,1,-312,-46.66667373771604) translate(0.0049999999999954525 14.222222222222223)"/><use xlink:href="#H" transform="matrix(1,0,0,1,-312,-46.66667373771604) translate(63.165493827160496 14.222222222222223)"/><use xlink:href="#I" transform="matrix(1,0,0,1,-312,-46.66667373771604) translate(99.60993827160495 14.222222222222223)"/></g><defs><path fill="#333" d="M25 0v-261h50V0H25" id="J"/><path fill="#333" d="M110-194c64 0 96 36 96 99 0 64-35 99-97 99-61 0-95-36-95-99 0-62 34-99 96-99zm-1 164c35 0 45-28 45-65 0-40-10-65-43-65-34 0-45 26-45 65 0 36 10 65 43 65" id="K"/><path fill="#333" d="M195-6C206 82 75 100 31 46c-4-6-6-13-8-21l49-6c3 16 16 24 34 25 40 0 42-37 40-79-11 22-30 35-61 35-53 0-70-43-70-97 0-56 18-96 73-97 30 0 46 14 59 34l2-30h47zm-90-29c32 0 41-27 41-63 0-35-9-62-40-62-32 0-39 29-40 63 0 36 9 62 39 62" id="L"/><path fill="#333" d="M25-224v-37h50v37H25zM25 0v-190h50V0H25" id="M"/><path fill="#333" d="M135-194c87-1 58 113 63 194h-50c-7-57 23-157-34-157-59 0-34 97-39 157H25l-1-190h47c2 12-1 28 3 38 12-26 28-41 61-42" id="N"/><path fill="#333" d="M67-93c0 74 22 123 53 168H70C40 30 18-18 18-93s22-123 52-168h50c-32 44-53 94-53 168" id="O"/><path fill="#333" d="M102-93c0 74-22 123-52 168H0C30 29 54-18 53-93c0-74-22-123-53-168h50c30 45 52 94 52 168" id="P"/><g id="a"><use transform="matrix(0.05286051576753077,0,0,0.05286051576753077,0,0)" xlink:href="#J"/><use transform="matrix(0.05286051576753077,0,0,0.05286051576753077,5.286051576753077,0)" xlink:href="#K"/><use transform="matrix(0.05286051576753077,0,0,0.05286051576753077,16.862504529842315,0)" xlink:href="#L"/><use transform="matrix(0.05286051576753077,0,0,0.05286051576753077,28.438957482931556,0)" xlink:href="#M"/><use transform="matrix(0.05286051576753077,0,0,0.05286051576753077,33.72500905968463,0)" xlink:href="#N"/><use transform="matrix(0.05286051576753077,0,0,0.05286051576753077,45.30146201277387,0)" xlink:href="#O"/><use transform="matrix(0.05286051576753077,0,0,0.05286051576753077,51.59186338911003,0)" xlink:href="#P"/></g><path fill="#333" d="M169-182c-1-43-94-46-97-3 18 66 151 10 154 114 3 95-165 93-204 36-6-8-10-19-12-30l50-8c3 46 112 56 116 5-17-69-150-10-154-114-4-87 153-88 188-35 5 8 8 18 10 28" id="Q"/><path fill="#333" d="M137-138c1-29-70-34-71-4 15 46 118 7 119 86 1 83-164 76-172 9l43-7c4 19 20 25 44 25 33 8 57-30 24-41C81-84 22-81 20-136c-2-80 154-74 161-7" id="R"/><path fill="#333" d="M115-3C79 11 28 4 28-45v-112H4v-33h27l15-45h31v45h36v33H77v99c-1 23 16 31 38 25v30" id="S"/><path fill="#333" d="M185-48c-13 30-37 53-82 52C43 2 14-33 14-96s30-98 90-98c62 0 83 45 84 108H66c0 31 8 55 39 56 18 0 30-7 34-22zm-45-69c5-46-57-63-70-21-2 6-4 13-4 21h74" id="T"/><path fill="#333" d="M220-157c-53 9-28 100-34 157h-49v-107c1-27-5-49-29-50C55-147 81-57 75 0H25l-1-190h47c2 12-1 28 3 38 10-53 101-56 108 0 13-22 24-43 59-42 82 1 51 116 57 194h-49v-107c-1-25-5-48-29-50" id="U"/><path fill="#333" d="M133-34C117-15 103 5 69 4 32 3 11-16 11-54c-1-60 55-63 116-61 1-26-3-47-28-47-18 1-26 9-28 27l-52-2c7-38 36-58 82-57s74 22 75 68l1 82c-1 14 12 18 25 15v27c-30 8-71 5-69-32zm-48 3c29 0 43-24 42-57-32 0-66-3-65 30 0 17 8 27 23 27" id="V"/><g id="b"><use transform="matrix(0.05286051576753077,0,0,0.05286051576753077,0,0)" xlink:href="#Q"/><use transform="matrix(0.05286051576753077,0,0,0.05286051576753077,12.686523784207385,0)" xlink:href="#M"/><use transform="matrix(0.05286051576753077,0,0,0.05286051576753077,17.972575360960462,0)" xlink:href="#R"/><use transform="matrix(0.05286051576753077,0,0,0.05286051576753077,28.544678514466618,0)" xlink:href="#S"/><use transform="matrix(0.05286051576753077,0,0,0.05286051576753077,34.83507989080278,0)" xlink:href="#T"/><use transform="matrix(0.05286051576753077,0,0,0.05286051576753077,45.40718304430894,0)" xlink:href="#U"/><use transform="matrix(0.05286051576753077,0,0,0.05286051576753077,62.32254808991878,0)" xlink:href="#V"/></g><g id="c"><use transform="matrix(0.05286051576753077,0,0,0.05286051576753077,0,0)" xlink:href="#Q"/><use transform="matrix(0.05286051576753077,0,0,0.05286051576753077,12.686523784207385,0)" xlink:href="#M"/><use transform="matrix(0.05286051576753077,0,0,0.05286051576753077,17.972575360960462,0)" xlink:href="#R"/><use transform="matrix(0.05286051576753077,0,0,0.05286051576753077,28.544678514466618,0)" xlink:href="#S"/><use transform="matrix(0.05286051576753077,0,0,0.05286051576753077,34.83507989080278,0)" xlink:href="#T"/><use transform="matrix(0.05286051576753077,0,0,0.05286051576753077,45.40718304430894,0)" xlink:href="#U"/><use transform="matrix(0.05286051576753077,0,0,0.05286051576753077,62.32254808991878,0)" xlink:href="#V"/></g><path fill="#333" d="M88-194c31-1 46 15 58 34l-1-101h50l1 261h-48c-2-10 0-23-3-31C134-8 116 4 84 4 32 4 16-41 15-95c0-56 19-97 73-99zm17 164c33 0 40-30 41-66 1-37-9-64-41-64s-38 30-39 65c0 43 13 65 39 65" id="W"/><g id="d"><use transform="matrix(0.05286051576753077,0,0,0.05286051576753077,0,0)" xlink:href="#W"/><use transform="matrix(0.05286051576753077,0,0,0.05286051576753077,11.57645295308924,0)" xlink:href="#T"/><use transform="matrix(0.05286051576753077,0,0,0.05286051576753077,22.148556106595393,0)" xlink:href="#J"/></g><path fill="#333" d="M136-208V0H84v-208H4v-40h212v40h-80" id="X"/><path fill="#333" d="M190-63c-7 42-38 67-86 67-59 0-84-38-90-98-12-110 154-137 174-36l-49 2c-2-19-15-32-35-32-30 0-35 28-38 64-6 74 65 87 74 30" id="Y"/><g id="e"><use transform="matrix(0.05286051576753077,0,0,0.05286051576753077,0,0)" xlink:href="#X"/><use transform="matrix(0.05286051576753077,0,0,0.05286051576753077,10.149219027365909,0)" xlink:href="#T"/><use transform="matrix(0.05286051576753077,0,0,0.05286051576753077,20.721322180872065,0)" xlink:href="#Y"/></g><path fill="#333" d="M232-93c-1 65-40 97-104 97C67 4 28-28 28-90v-158h33c8 89-33 224 67 224 102 0 64-133 71-224h33v155" id="Z"/><path fill="#333" d="M135-143c-3-34-86-38-87 0 15 53 115 12 119 90S17 21 10-45l28-5c4 36 97 45 98 0-10-56-113-15-118-90-4-57 82-63 122-42 12 7 21 19 24 35" id="aa"/><path fill="#333" d="M84 4C-5 8 30-112 23-190h32v120c0 31 7 50 39 49 72-2 45-101 50-169h31l1 190h-30c-1-10 1-25-2-33-11 22-28 36-60 37" id="ab"/><path fill="#333" d="M141-36C126-15 110 5 73 4 37 3 15-17 15-53c-1-64 63-63 125-63 3-35-9-54-41-54-24 1-41 7-42 31l-33-3c5-37 33-52 76-52 45 0 72 20 72 64v82c-1 20 7 32 28 27v20c-31 9-61-2-59-35zM48-53c0 20 12 33 32 33 41-3 63-29 60-74-43 2-92-5-92 41" id="ac"/><path fill="#333" d="M114-163C36-179 61-72 57 0H25l-1-190h30c1 12-1 29 2 39 6-27 23-49 58-41v29" id="ad"/><path fill="#333" d="M24-231v-30h32v30H24zM24 0v-190h32V0H24" id="ae"/><path fill="#333" d="M100-194c62-1 85 37 85 99 1 63-27 99-86 99S16-35 15-95c0-66 28-99 85-99zM99-20c44 1 53-31 53-75 0-43-8-75-51-75s-53 32-53 75 10 74 51 75" id="af"/><g id="f"><use transform="matrix(0.06172839506172839,0,0,0.06172839506172839,0,0)" xlink:href="#Z"/><use transform="matrix(0.06172839506172839,0,0,0.06172839506172839,15.987654320987653,0)" xlink:href="#aa"/><use transform="matrix(0.06172839506172839,0,0,0.06172839506172839,27.098765432098766,0)" xlink:href="#ab"/><use transform="matrix(0.06172839506172839,0,0,0.06172839506172839,39.44444444444444,0)" xlink:href="#ac"/><use transform="matrix(0.06172839506172839,0,0,0.06172839506172839,51.79012345679012,0)" xlink:href="#ad"/><use transform="matrix(0.06172839506172839,0,0,0.06172839506172839,59.1358024691358,0)" xlink:href="#ae"/><use transform="matrix(0.06172839506172839,0,0,0.06172839506172839,64.01234567901234,0)" xlink:href="#af"/></g><path fill="#333" d="M182-130c37 4 62 22 62 59C244 23 116-4 24 0v-248c84 5 203-23 205 63 0 31-19 50-47 55zM76-148c40-3 101 13 101-30 0-44-60-28-101-31v61zm0 110c48-3 116 14 116-37 0-48-69-32-116-35v72" id="ag"/><g id="g"><use transform="matrix(0.05286051576753077,0,0,0.05286051576753077,0,0)" xlink:href="#ag"/><use transform="matrix(0.05286051576753077,0,0,0.05286051576753077,13.69087358379047,0)" xlink:href="#V"/><use transform="matrix(0.05286051576753077,0,0,0.05286051576753077,24.262976737296626,0)" xlink:href="#R"/><use transform="matrix(0.05286051576753077,0,0,0.05286051576753077,34.83507989080278,0)" xlink:href="#T"/></g><g id="h"><use transform="matrix(0.05286051576753077,0,0,0.05286051576753077,0,0)" xlink:href="#W"/><use transform="matrix(0.05286051576753077,0,0,0.05286051576753077,11.57645295308924,0)" xlink:href="#T"/></g><path fill="#333" d="M24-248c120-7 223 5 221 122C244-46 201 0 124 0H24v-248zM76-40c74 7 117-18 117-86 0-67-45-88-117-82v168" id="ah"/><g id="i"><use transform="matrix(0.05286051576753077,0,0,0.05286051576753077,0,0)" xlink:href="#ah"/><use transform="matrix(0.05286051576753077,0,0,0.05286051576753077,13.69087358379047,0)" xlink:href="#V"/><use transform="matrix(0.05286051576753077,0,0,0.05286051576753077,24.262976737296626,0)" xlink:href="#S"/><use transform="matrix(0.05286051576753077,0,0,0.05286051576753077,30.553378113632785,0)" xlink:href="#K"/><use transform="matrix(0.05286051576753077,0,0,0.05286051576753077,42.129831066722026,0)" xlink:href="#R"/></g><path fill="#333" d="M238-95c0 69-44 99-111 99C63 4 22-25 22-93v-155h51v151c-1 38 19 59 55 60 90 1 49-130 58-211h52v153" id="ai"/><path fill="#333" d="M135-150c-39-12-60 13-60 57V0H25l-1-190h47c2 13-1 29 3 40 6-28 27-53 61-41v41" id="aj"/><g id="j"><use transform="matrix(0.04938271604938272,0,0,0.04938271604938272,0,0)" xlink:href="#L"/><use transform="matrix(0.04938271604938272,0,0,0.04938271604938272,10.814814814814815,0)" xlink:href="#T"/><use transform="matrix(0.04938271604938272,0,0,0.04938271604938272,20.69135802469136,0)" xlink:href="#S"/><use transform="matrix(0.04938271604938272,0,0,0.04938271604938272,26.567901234567902,0)" xlink:href="#ai"/><use transform="matrix(0.04938271604938272,0,0,0.04938271604938272,39.35802469135803,0)" xlink:href="#R"/><use transform="matrix(0.04938271604938272,0,0,0.04938271604938272,49.23456790123458,0)" xlink:href="#T"/><use transform="matrix(0.04938271604938272,0,0,0.04938271604938272,59.111111111111114,0)" xlink:href="#aj"/><use transform="matrix(0.04938271604938272,0,0,0.04938271604938272,66.0246913580247,0)" xlink:href="#O"/><use transform="matrix(0.04938271604938272,0,0,0.04938271604938272,71.90123456790124,0)" xlink:href="#P"/></g><path fill="#333" d="M128 0H69L1-190h53L99-40l48-150h52" id="ak"/><path fill="#333" d="M67-125c0 53 21 87 73 88 37 1 54-22 65-47l45 17C233-25 199 4 140 4 58 4 20-42 15-125 8-235 124-281 211-232c18 10 29 29 36 50l-46 12c-8-25-30-41-62-41-52 0-71 34-72 86" id="al"/><g id="k"><use transform="matrix(0.04938271604938272,0,0,0.04938271604938272,0,0)" xlink:href="#ak"/><use transform="matrix(0.04938271604938272,0,0,0.04938271604938272,9.876543209876544,0)" xlink:href="#V"/><use transform="matrix(0.04938271604938272,0,0,0.04938271604938272,19.75308641975309,0)" xlink:href="#J"/><use transform="matrix(0.04938271604938272,0,0,0.04938271604938272,24.69135802469136,0)" xlink:href="#M"/><use transform="matrix(0.04938271604938272,0,0,0.04938271604938272,29.629629629629633,0)" xlink:href="#W"/><use transform="matrix(0.04938271604938272,0,0,0.04938271604938272,40.44444444444445,0)" xlink:href="#V"/><use transform="matrix(0.04938271604938272,0,0,0.04938271604938272,50.320987654320994,0)" xlink:href="#aj"/><use transform="matrix(0.04938271604938272,0,0,0.04938271604938272,57.23456790123457,0)" xlink:href="#al"/><use transform="matrix(0.04938271604938272,0,0,0.04938271604938272,70.0246913580247,0)" xlink:href="#aj"/><use transform="matrix(0.04938271604938272,0,0,0.04938271604938272,76.93827160493828,0)" xlink:href="#T"/><use transform="matrix(0.04938271604938272,0,0,0.04938271604938272,86.81481481481482,0)" xlink:href="#W"/><use transform="matrix(0.04938271604938272,0,0,0.04938271604938272,97.62962962962963,0)" xlink:href="#T"/><use transform="matrix(0.04938271604938272,0,0,0.04938271604938272,107.50617283950618,0)" xlink:href="#N"/><use transform="matrix(0.04938271604938272,0,0,0.04938271604938272,118.320987654321,0)" xlink:href="#Y"/><use transform="matrix(0.04938271604938272,0,0,0.04938271604938272,128.19753086419752,0)" xlink:href="#M"/><use transform="matrix(0.04938271604938272,0,0,0.04938271604938272,133.1358024691358,0)" xlink:href="#V"/><use transform="matrix(0.04938271604938272,0,0,0.04938271604938272,143.01234567901236,0)" xlink:href="#J"/><use transform="matrix(0.04938271604938272,0,0,0.04938271604938272,147.95061728395063,0)" xlink:href="#T"/><use transform="matrix(0.04938271604938272,0,0,0.04938271604938272,157.8271604938272,0)" xlink:href="#R"/><use transform="matrix(0.04938271604938272,0,0,0.04938271604938272,167.70370370370375,0)" xlink:href="#O"/><use transform="matrix(0.04938271604938272,0,0,0.04938271604938272,173.58024691358028,0)" xlink:href="#P"/></g><g id="l"><use transform="matrix(0.04938271604938272,0,0,0.04938271604938272,0,0)" xlink:href="#al"/><use transform="matrix(0.04938271604938272,0,0,0.04938271604938272,12.790123456790125,0)" xlink:href="#aj"/><use transform="matrix(0.04938271604938272,0,0,0.04938271604938272,19.703703703703706,0)" xlink:href="#T"/><use transform="matrix(0.04938271604938272,0,0,0.04938271604938272,29.58024691358025,0)" xlink:href="#W"/><use transform="matrix(0.04938271604938272,0,0,0.04938271604938272,40.39506172839506,0)" xlink:href="#T"/><use transform="matrix(0.04938271604938272,0,0,0.04938271604938272,50.27160493827161,0)" xlink:href="#N"/><use transform="matrix(0.04938271604938272,0,0,0.04938271604938272,61.086419753086425,0)" xlink:href="#Y"/><use transform="matrix(0.04938271604938272,0,0,0.04938271604938272,70.96296296296296,0)" xlink:href="#M"/><use transform="matrix(0.04938271604938272,0,0,0.04938271604938272,75.90123456790124,0)" xlink:href="#V"/><use transform="matrix(0.04938271604938272,0,0,0.04938271604938272,85.77777777777779,0)" xlink:href="#J"/><use transform="matrix(0.04938271604938272,0,0,0.04938271604938272,90.71604938271605,0)" xlink:href="#T"/><use transform="matrix(0.04938271604938272,0,0,0.04938271604938272,100.5925925925926,0)" xlink:href="#R"/></g><path fill="#333" d="M147 0H94L2-248h55l64 206c17-72 42-137 63-206h54" id="am"/><path fill="#333" d="M132-34C116-15 102 5 68 4 31 3 10-16 10-54c-1-60 55-63 116-61 1-26-3-47-28-47-18 1-26 9-28 27l-52-2c7-38 36-58 82-57s74 22 75 68l1 82c-1 14 12 18 25 15v27c-30 8-71 5-69-32zm-48 3c29 0 43-24 42-57-32 0-66-3-65 30 0 17 8 27 23 27zM66-208v-5l45-51h45v8l-60 48H66" id="an"/><g id="m"><use transform="matrix(0.04938271604938272,0,0,0.04938271604938272,0,0)" xlink:href="#am"/><use transform="matrix(0.04938271604938272,0,0,0.04938271604938272,11.851851851851853,0)" xlink:href="#an"/><use transform="matrix(0.04938271604938272,0,0,0.04938271604938272,21.7283950617284,0)" xlink:href="#J"/><use transform="matrix(0.04938271604938272,0,0,0.04938271604938272,26.666666666666668,0)" xlink:href="#M"/><use transform="matrix(0.04938271604938272,0,0,0.04938271604938272,31.60493827160494,0)" xlink:href="#W"/><use transform="matrix(0.04938271604938272,0,0,0.04938271604938272,42.41975308641976,0)" xlink:href="#K"/><use transform="matrix(0.04938271604938272,0,0,0.04938271604938272,53.23456790123457,0)" xlink:href="#R"/></g><path fill="#333" d="M85 4C-2 5 27-109 22-190h50c7 57-23 150 33 157 60-5 35-97 40-157h50l1 190h-47c-2-12 1-28-3-38-12 25-28 42-61 42" id="ao"/><g id="n"><use transform="matrix(0.04938271604938272,0,0,0.04938271604938272,0,0)" xlink:href="#ai"/><use transform="matrix(0.04938271604938272,0,0,0.04938271604938272,12.790123456790125,0)" xlink:href="#R"/><use transform="matrix(0.04938271604938272,0,0,0.04938271604938272,22.66666666666667,0)" xlink:href="#ao"/><use transform="matrix(0.04938271604938272,0,0,0.04938271604938272,33.48148148148149,0)" xlink:href="#V"/><use transform="matrix(0.04938271604938272,0,0,0.04938271604938272,43.35802469135803,0)" xlink:href="#aj"/><use transform="matrix(0.04938271604938272,0,0,0.04938271604938272,50.271604938271615,0)" xlink:href="#M"/><use transform="matrix(0.04938271604938272,0,0,0.04938271604938272,55.209876543209894,0)" xlink:href="#K"/></g><g id="o"><use transform="matrix(0.04938271604938272,0,0,0.04938271604938272,0,0)" xlink:href="#am"/><use transform="matrix(0.04938271604938272,0,0,0.04938271604938272,11.851851851851853,0)" xlink:href="#an"/><use transform="matrix(0.04938271604938272,0,0,0.04938271604938272,21.7283950617284,0)" xlink:href="#J"/><use transform="matrix(0.04938271604938272,0,0,0.04938271604938272,26.666666666666668,0)" xlink:href="#M"/><use transform="matrix(0.04938271604938272,0,0,0.04938271604938272,31.60493827160494,0)" xlink:href="#W"/><use transform="matrix(0.04938271604938272,0,0,0.04938271604938272,42.41975308641976,0)" xlink:href="#K"/></g><path fill="#333" d="M24 0v-248h52V0H24" id="ap"/><g id="p"><use transform="matrix(0.04938271604938272,0,0,0.04938271604938272,0,0)" xlink:href="#ap"/><use transform="matrix(0.04938271604938272,0,0,0.04938271604938272,4.938271604938272,0)" xlink:href="#N"/><use transform="matrix(0.04938271604938272,0,0,0.04938271604938272,15.753086419753087,0)" xlink:href="#M"/><use transform="matrix(0.04938271604938272,0,0,0.04938271604938272,20.69135802469136,0)" xlink:href="#Y"/><use transform="matrix(0.04938271604938272,0,0,0.04938271604938272,30.567901234567906,0)" xlink:href="#M"/><use transform="matrix(0.04938271604938272,0,0,0.04938271604938272,35.50617283950618,0)" xlink:href="#K"/></g><g id="q"><use transform="matrix(0.04938271604938272,0,0,0.04938271604938272,0,0)" xlink:href="#W"/><use transform="matrix(0.04938271604938272,0,0,0.04938271604938272,10.814814814814815,0)" xlink:href="#T"/></g><path fill="#333" d="M110-194c64 0 96 36 96 99 0 64-35 99-97 99-61 0-95-36-95-99 0-62 34-99 96-99zm-1 164c35 0 45-28 45-65 0-40-10-65-43-65-34 0-45 26-45 65 0 36 10 65 43 65zM81-208v-5l45-51h45v8l-60 48H81" id="aq"/><g id="r"><use transform="matrix(0.04938271604938272,0,0,0.04938271604938272,0,0)" xlink:href="#Q"/><use transform="matrix(0.04938271604938272,0,0,0.04938271604938272,11.851851851851853,0)" xlink:href="#T"/><use transform="matrix(0.04938271604938272,0,0,0.04938271604938272,21.7283950617284,0)" xlink:href="#Y"/><use transform="matrix(0.04938271604938272,0,0,0.04938271604938272,31.60493827160494,0)" xlink:href="#Y"/><use transform="matrix(0.04938271604938272,0,0,0.04938271604938272,41.48148148148149,0)" xlink:href="#M"/><use transform="matrix(0.04938271604938272,0,0,0.04938271604938272,46.41975308641976,0)" xlink:href="#aq"/><use transform="matrix(0.04938271604938272,0,0,0.04938271604938272,57.23456790123457,0)" xlink:href="#N"/></g><path fill="#333" d="M24 0v-248h195v40H76v63h132v40H76v65h150V0H24" id="ar"/><path fill="#333" d="M144 0l-44-69L55 0H2l70-98-66-92h53l41 62 40-62h54l-67 91 71 99h-54" id="as"/><g id="s"><use transform="matrix(0.04938271604938272,0,0,0.04938271604938272,0,0)" xlink:href="#ar"/><use transform="matrix(0.04938271604938272,0,0,0.04938271604938272,11.851851851851853,0)" xlink:href="#as"/><use transform="matrix(0.04938271604938272,0,0,0.04938271604938272,21.7283950617284,0)" xlink:href="#M"/><use transform="matrix(0.04938271604938272,0,0,0.04938271604938272,26.666666666666668,0)" xlink:href="#S"/><use transform="matrix(0.04938271604938272,0,0,0.04938271604938272,32.543209876543216,0)" xlink:href="#K"/><use transform="matrix(0.04938271604938272,0,0,0.04938271604938272,43.35802469135803,0)" xlink:href="#R"/><use transform="matrix(0.04938271604938272,0,0,0.04938271604938272,53.23456790123457,0)" xlink:href="#K"/></g><path fill="#333" d="M135-194c53 0 70 44 70 98 0 56-19 98-73 100-31 1-45-17-59-34 3 33 2 69 2 105H25l-1-265h48c2 10 0 23 3 31 11-24 29-35 60-35zM114-30c33 0 39-31 40-66 0-38-9-64-40-64-56 0-55 130 0 130" id="at"/><g id="t"><use transform="matrix(0.04938271604938272,0,0,0.04938271604938272,0,0)" xlink:href="#X"/><use transform="matrix(0.04938271604938272,0,0,0.04938271604938272,10.469135802469136,0)" xlink:href="#M"/><use transform="matrix(0.04938271604938272,0,0,0.04938271604938272,15.407407407407408,0)" xlink:href="#at"/><use transform="matrix(0.04938271604938272,0,0,0.04938271604938272,26.222222222222218,0)" xlink:href="#K"/></g><g id="u"><use transform="matrix(0.04938271604938272,0,0,0.04938271604938272,0,0)" xlink:href="#ai"/><use transform="matrix(0.04938271604938272,0,0,0.04938271604938272,12.790123456790125,0)" xlink:href="#R"/><use transform="matrix(0.04938271604938272,0,0,0.04938271604938272,22.66666666666667,0)" xlink:href="#ao"/><use transform="matrix(0.04938271604938272,0,0,0.04938271604938272,33.48148148148149,0)" xlink:href="#V"/><use transform="matrix(0.04938271604938272,0,0,0.04938271604938272,43.35802469135803,0)" xlink:href="#aj"/><use transform="matrix(0.04938271604938272,0,0,0.04938271604938272,50.271604938271615,0)" xlink:href="#M"/><use transform="matrix(0.04938271604938272,0,0,0.04938271604938272,55.209876543209894,0)" xlink:href="#K"/></g><g id="v"><use transform="matrix(0.04938271604938272,0,0,0.04938271604938272,0,0)" xlink:href="#ar"/><use transform="matrix(0.04938271604938272,0,0,0.04938271604938272,11.851851851851853,0)" xlink:href="#J"/></g><g id="w"><use transform="matrix(0.04938271604938272,0,0,0.04938271604938272,0,0)" xlink:href="#ai"/><use transform="matrix(0.04938271604938272,0,0,0.04938271604938272,12.790123456790125,0)" xlink:href="#R"/><use transform="matrix(0.04938271604938272,0,0,0.04938271604938272,22.66666666666667,0)" xlink:href="#ao"/><use transform="matrix(0.04938271604938272,0,0,0.04938271604938272,33.48148148148149,0)" xlink:href="#V"/><use transform="matrix(0.04938271604938272,0,0,0.04938271604938272,43.35802469135803,0)" xlink:href="#aj"/><use transform="matrix(0.04938271604938272,0,0,0.04938271604938272,50.271604938271615,0)" xlink:href="#M"/><use transform="matrix(0.04938271604938272,0,0,0.04938271604938272,55.209876543209894,0)" xlink:href="#K"/></g><g id="x"><use transform="matrix(0.04938271604938272,0,0,0.04938271604938272,0,0)" xlink:href="#T"/><use transform="matrix(0.04938271604938272,0,0,0.04938271604938272,9.876543209876544,0)" xlink:href="#R"/></g><g id="y"><use transform="matrix(0.04938271604938272,0,0,0.04938271604938272,0,0)" xlink:href="#ar"/><use transform="matrix(0.04938271604938272,0,0,0.04938271604938272,11.851851851851853,0)" xlink:href="#R"/><use transform="matrix(0.04938271604938272,0,0,0.04938271604938272,21.7283950617284,0)" xlink:href="#S"/><use transform="matrix(0.04938271604938272,0,0,0.04938271604938272,27.604938271604947,0)" xlink:href="#ao"/><use transform="matrix(0.04938271604938272,0,0,0.04938271604938272,38.41975308641976,0)" xlink:href="#W"/><use transform="matrix(0.04938271604938272,0,0,0.04938271604938272,49.23456790123458,0)" xlink:href="#M"/><use transform="matrix(0.04938271604938272,0,0,0.04938271604938272,54.17283950617284,0)" xlink:href="#V"/><use transform="matrix(0.04938271604938272,0,0,0.04938271604938272,64.0493827160494,0)" xlink:href="#N"/><use transform="matrix(0.04938271604938272,0,0,0.04938271604938272,74.8641975308642,0)" xlink:href="#S"/><use transform="matrix(0.04938271604938272,0,0,0.04938271604938272,80.74074074074075,0)" xlink:href="#T"/></g><use transform="matrix(0.04938271604938272,0,0,0.04938271604938272,0,0)" xlink:href="#K" id="z"/><path fill="#333" d="M24-248c93 1 206-16 204 79-1 75-69 88-152 82V0H24v-248zm52 121c47 0 100 7 100-41 0-47-54-39-100-39v80" id="au"/><path fill="#333" d="M121-226c-27-7-43 5-38 36h38v33H83V0H34v-157H6v-33h28c-9-59 32-81 87-68v32" id="av"/><g id="A"><use transform="matrix(0.04938271604938272,0,0,0.04938271604938272,0,0)" xlink:href="#au"/><use transform="matrix(0.04938271604938272,0,0,0.04938271604938272,11.851851851851853,0)" xlink:href="#aj"/><use transform="matrix(0.04938271604938272,0,0,0.04938271604938272,18.765432098765434,0)" xlink:href="#K"/><use transform="matrix(0.04938271604938272,0,0,0.04938271604938272,29.58024691358025,0)" xlink:href="#av"/><use transform="matrix(0.04938271604938272,0,0,0.04938271604938272,35.45679012345679,0)" xlink:href="#T"/><use transform="matrix(0.04938271604938272,0,0,0.04938271604938272,45.333333333333336,0)" xlink:href="#R"/><use transform="matrix(0.04938271604938272,0,0,0.04938271604938272,55.20987654320988,0)" xlink:href="#K"/><use transform="matrix(0.04938271604938272,0,0,0.04938271604938272,66.0246913580247,0)" xlink:href="#aj"/></g><g id="B"><use transform="matrix(0.04938271604938272,0,0,0.04938271604938272,0,0)" xlink:href="#W"/><use transform="matrix(0.04938271604938272,0,0,0.04938271604938272,10.814814814814815,0)" xlink:href="#T"/><use transform="matrix(0.04938271604938272,0,0,0.04938271604938272,20.69135802469136,0)" xlink:href="#J"/></g><g id="C"><use transform="matrix(0.04938271604938272,0,0,0.04938271604938272,0,0)" xlink:href="#X"/><use transform="matrix(0.04938271604938272,0,0,0.04938271604938272,9.481481481481481,0)" xlink:href="#T"/><use transform="matrix(0.04938271604938272,0,0,0.04938271604938272,19.358024691358025,0)" xlink:href="#Y"/></g><g id="D"><use transform="matrix(0.04938271604938272,0,0,0.04938271604938272,0,0)" xlink:href="#T"/><use transform="matrix(0.04938271604938272,0,0,0.04938271604938272,9.876543209876544,0)" xlink:href="#R"/></g><g id="E"><use transform="matrix(0.04938271604938272,0,0,0.04938271604938272,0,0)" xlink:href="#ar"/><use transform="matrix(0.04938271604938272,0,0,0.04938271604938272,11.851851851851853,0)" xlink:href="#U"/><use transform="matrix(0.04938271604938272,0,0,0.04938271604938272,27.654320987654323,0)" xlink:href="#at"/><use transform="matrix(0.04938271604938272,0,0,0.04938271604938272,38.46913580246914,0)" xlink:href="#aj"/><use transform="matrix(0.04938271604938272,0,0,0.04938271604938272,45.38271604938272,0)" xlink:href="#T"/><use transform="matrix(0.04938271604938272,0,0,0.04938271604938272,55.25925925925927,0)" xlink:href="#R"/><use transform="matrix(0.04938271604938272,0,0,0.04938271604938272,65.13580246913581,0)" xlink:href="#V"/></g><path fill="#333" d="M199 0l-22-63H83L61 0H9l90-248h61L250 0h-51zm-33-102l-36-108c-10 38-24 72-36 108h72" id="aw"/><g id="F"><use transform="matrix(0.04938271604938272,0,0,0.04938271604938272,0,0)" xlink:href="#aw"/><use transform="matrix(0.04938271604938272,0,0,0.04938271604938272,12.790123456790125,0)" xlink:href="#W"/><use transform="matrix(0.04938271604938272,0,0,0.04938271604938272,23.60493827160494,0)" xlink:href="#U"/><use transform="matrix(0.04938271604938272,0,0,0.04938271604938272,39.40740740740741,0)" xlink:href="#M"/><use transform="matrix(0.04938271604938272,0,0,0.04938271604938272,44.345679012345684,0)" xlink:href="#N"/><use transform="matrix(0.04938271604938272,0,0,0.04938271604938272,55.1604938271605,0)" xlink:href="#M"/><use transform="matrix(0.04938271604938272,0,0,0.04938271604938272,60.09876543209877,0)" xlink:href="#R"/><use transform="matrix(0.04938271604938272,0,0,0.04938271604938272,69.97530864197532,0)" xlink:href="#S"/><use transform="matrix(0.04938271604938272,0,0,0.04938271604938272,75.85185185185186,0)" xlink:href="#aj"/><use transform="matrix(0.04938271604938272,0,0,0.04938271604938272,82.76543209876544,0)" xlink:href="#V"/><use transform="matrix(0.04938271604938272,0,0,0.04938271604938272,92.64197530864199,0)" xlink:href="#W"/><use transform="matrix(0.04938271604938272,0,0,0.04938271604938272,103.4567901234568,0)" xlink:href="#K"/><use transform="matrix(0.04938271604938272,0,0,0.04938271604938272,114.27160493827161,0)" xlink:href="#aj"/></g><g id="G"><use transform="matrix(0.04938271604938272,0,0,0.04938271604938272,0,0)" xlink:href="#am"/><use transform="matrix(0.04938271604938272,0,0,0.04938271604938272,10.864197530864198,0)" xlink:href="#V"/><use transform="matrix(0.04938271604938272,0,0,0.04938271604938272,20.74074074074074,0)" xlink:href="#J"/><use transform="matrix(0.04938271604938272,0,0,0.04938271604938272,25.679012345679016,0)" xlink:href="#M"/><use transform="matrix(0.04938271604938272,0,0,0.04938271604938272,30.617283950617285,0)" xlink:href="#W"/><use transform="matrix(0.04938271604938272,0,0,0.04938271604938272,41.4320987654321,0)" xlink:href="#V"/><use transform="matrix(0.04938271604938272,0,0,0.04938271604938272,51.308641975308646,0)" xlink:href="#aj"/></g><g id="H"><use transform="matrix(0.04938271604938272,0,0,0.04938271604938272,0,0)" xlink:href="#Y"/><use transform="matrix(0.04938271604938272,0,0,0.04938271604938272,9.876543209876544,0)" xlink:href="#K"/><use transform="matrix(0.04938271604938272,0,0,0.04938271604938272,20.69135802469136,0)" xlink:href="#N"/></g><g id="I"><use transform="matrix(0.04938271604938272,0,0,0.04938271604938272,0,0)" xlink:href="#ag"/><use transform="matrix(0.04938271604938272,0,0,0.04938271604938272,12.790123456790125,0)" xlink:href="#V"/><use transform="matrix(0.04938271604938272,0,0,0.04938271604938272,22.66666666666667,0)" xlink:href="#R"/><use transform="matrix(0.04938271604938272,0,0,0.04938271604938272,32.543209876543216,0)" xlink:href="#T"/></g></defs></g></svg>