<svg xmlns="http://www.w3.org/2000/svg" xmlns:xlink="http://www.w3.org/1999/xlink" xmlns:lucid="lucid" width="1220.98" height="1283.5"><g transform="translate(1189.7230492373121 681.5)" lucid:page-tab-id="0_0"><path d="M-1500-1000H0v2000h-1500z" fill="#fff"/><path d="M-1117.64-500.5v5.02m0 5.03v10.04m0 5v10.06m0 5.02v10.05m0 5.02v10.05m0 5.02v10.05m0 5.02v10.03m0 5.03V-390m0 5.02v10.05m0 5.02v10.04m0 5.02v10.05m0 5.03v10.05m0 5.02v10.05m0 5.02v10.04m0 5.04v10.04m0 5.02v10.05m0 5.02v10.05m0 5.02v10.05m0 5v10.06m0 5.02v10.04m0 5.03v10.04m0 5v10.06m0 5.02v10.05m0 5.02v10.05m0 5.02v10.05m0 5.02v10.04m0 5.02v10.04m0 5.03v10.04m0 5.02v10.04m0 5.02v10.05m0 5.03v10.05m0 5.02v10.05m0 5.02v10.04m0 5.04V1.78m0 5.03v10.05m0 5.02v10.05m0 5.02V47m0 5v10.06m0 5.02v10.05m0 5.02V92.2m0 5.02v10.04m0 5.02v10.05m0 5.02v10.05m0 5.02v10.05m0 5.02v10.04m0 5.02v10.04m0 5.03v10.04m0 5.03v10.04m0 5.02v10.05m0 5.03v10.05m0 5.02v10.05m0 5.02v10.05m0 5.02v10.04m0 5.03v10.05m0 5.03v10.04m0 5.02v10.05m0 5v10.06m0 5.02v10.05m0 5.02v10.05m0 5.02v10.04m0 5.03v10.03m0 5.02v10.05m0 5.02v10.05m0 5.02v10.04m0 5.02v10.05m0 5.03v10.05m0 5.02v10.04m0 5.03v10.04m0 5.03v10.05m0 5.02v10.05m0 5.02v10.05m0 5.02v10.05m0 5v10.05m0 5.03v5.02M-1117.64-500.5v-.5M-1117.64 599.5v.5" stroke="#333" fill="none"/><path d="M-1136.57-450.27a8 8 0 0 1 8-8h24a8 8 0 0 1 8 8V552a8 8 0 0 1-8 8h-24a8 8 0 0 1-8-8z" stroke="#f2f2f2" fill="#d2d3d5"/><path d="M-744.96-523.17v5.04m0 5.03v10.07m0 5.04v10.08m0 5.03v10.08m0 5.04v10.06m0 5.04v10.07m0 5.02v10.07m0 5.03v10.07m0 5.03v10.07m0 5.04v10.07m0 5.04v10.07m0 5.05V-352m0 5.05v10.07m0 5.03v10.07m0 5.04v10.07m0 5.03v10.07m0 5.03v10.07m0 5.04v10.07m0 5.03v10.07m0 5.04v10.07m0 5.03v10.07m0 5.04v10.06m0 5.03v10.06m0 5.03v10.06m0 5.04v10.07m0 5.03v10.07m0 5.04v10.08m0 5.03v10.08m0 5.03v10.08m0 5.04v10.07m0 5.02V-65m0 5.03v10.07m0 5.03v10.07m0 5.03v10.07m0 5.04V-4.6m0 5.04V10.5m0 5.05v10.07m0 5.03v5.04l.03.37.1.38.14.36.2.34.26.3.3.25.33.2.35.15.38.1.4.02.38.03.4.1.35.14.33.2.3.25.25.3.2.32.15.36.1.38.02.4v5.02m0 5.04V60.8m0 5.02V75.9m0 5.03V91m0 5.03v10.07m0 5.03v10.07m0 5.04v10.07m0 5.04v10.07m0 5.05v10.07m0 5.03v10.07m0 5.03v10.07m0 5.04v10.07m0 5.03v10.07m0 5.04v10.07m0 5.03v10.07m0 5.04v10.06m0 5.04v10.07m0 5.03v10.07m0 5.04v10.06m0 5.03v10.06m0 5.04v10.06m0 5.04v10.07m0 5.03v10.07m0 5.04v10.08m0 5.03v10.08m0 5.04v10.06m0 5.04v10.07m0 5.02v10.07m0 5.03v10.07m0 5.03v10.07m0 5.04v10.07m0 5.04v10.07m0 5.05V529m0 5.05v10.07m0 5.03v10.07m0 5.04v10.07m0 5.03v10.07m0 5.04v5.03" stroke="#333" fill="none"/><path d="M-744.46-523.15h-1v-.52h1z" stroke="#333" stroke-width=".05" fill="#333"/><path d="M-740 599.5v.5" stroke="#333" fill="none"/><path d="M-764.96-332a8 8 0 0 1 8-8h24a8 8 0 0 1 8 8v884a8 8 0 0 1-8 8h-24a8 8 0 0 1-8-8z" stroke="#f2f2f2" fill="#d2d3d5"/><path d="M-1095.57-272h313.72" stroke="#333" fill="none"/><path d="M-1095.56-271.5h-.5v-1h.5z" stroke="#333" stroke-width=".05" fill="#333"/><path d="M-767.08-272l-14.27 4.63v-9.26z" stroke="#333" fill="#333"/><use xlink:href="#a" transform="matrix(1,0,0,1,-995.0708275224425,-298.8358762225897) translate(0 15.223828541048864)"/><path d="M-84.53-511.17v5m0 5v10.02m0 5v10m0 5v10m0 5.02v10m0 5v10m0 5v10.02m0 5v10m0 5v10m0 5v10.02m0 5v10m0 5v10.02m0 5v10m0 5v10m0 5.02v10m0 5v10m0 5.02v10m0 5v10m0 5V-236m0 5v10m0 5v10.02m0 5v10m0 5v10m0 5.02v10m0 5v10m0 5.02v10m0 5v10m0 5v10.02m0 5v10m0 5v10.02m0 5v10m0 5v10.02m0 5v10m0 5v10m0 5.02v10m0 5v10m0 5.02v10m0 5v10m0 5V64.2m0 5v10m0 5V94.2m0 5v10m0 5v10.02m0 5v10m0 5v10m0 5.02v10m0 5v10m0 5v10.02m0 5v10m0 5v10.02m0 5v10m0 5v10.02m0 5v10m0 5v10m0 5.02v10m0 5v10m0 5v10.02m0 5v10m0 5v10.02m0 5v10m0 5v10.02m0 5v10m0 5v10m0 5.02v10m0 5v10m0 5.02v10m0 5v10m0 5v10.02m0 5v10m0 5v10.02m0 5v10m0 5v10.02m0 5v10m0 5v10m0 5.02v5M-84.53-511.15v-.52M-84.53 599.5v.5" stroke="#333" fill="none"/><path d="M-108.28 100a8 8 0 0 1 8-8h24a8 8 0 0 1 8 8v204a8 8 0 0 1-8 8h-24a8 8 0 0 1-8-8z" stroke="#f2f2f2" fill="#d2d3d5"/><path d="M-840-639.67a8 8 0 0 1 8-8h174.08a8 8 0 0 1 8 8v108a8 8 0 0 1-8 8H-832a8 8 0 0 1-8-8z" stroke="#000" stroke-opacity="0" fill="#ffcc78"/><use xlink:href="#b" transform="matrix(1,0,0,1,-832,-639.6657925685986) translate(51.052674378287534 57.80595713526222)"/><path d="M-1100.7-644.14c0 8.76-7.1 15.86-15.87 15.86-8.76 0-15.86-7.1-15.86-15.86s7.1-15.86 15.86-15.86 15.86 7.1 15.86 15.86z" stroke="#5e5e5e" stroke-width="3" fill="#fff"/><path d="M-1116.57-628.3v47.5a23.05 23.05 0 0 0 2.93 11.24l28.8 51.56m-31.73-56.8l-31.72 56.8m0-94.43h63.45" stroke="#5e5e5e" stroke-width="3" fill="none"/><path d="M-1148.3-654a6 6 0 0 1 6-6h51.45a6 6 0 0 1 6 6v152a6 6 0 0 1-6 6h-51.44a6 6 0 0 1-6-6z" fill="none"/><use xlink:href="#c" transform="matrix(1,0,0,1,-1228.2847776323738,-518.0000000000003) translate(59.56172839506173 17.77777777777778)"/><path d="M-424.96-523.5v5m0 4.98v9.98m0 5v9.98m0 5v9.97m0 5v9.98m0 5v9.98m0 5v9.97m0 5v9.97m0 5v9.98m0 5v9.97m0 5v9.97m0 5v9.98m0 5v9.97m0 5v9.97m0 5v9.98m0 5v9.97m0 4.98v9.98m0 5v9.98m0 5v9.97m0 5v9.98m0 5v9.98m0 5v9.97m0 5v9.97m0 5v9.98m0 5v9.97m0 5v9.97m0 5v9.98m0 5v9.97m0 5v9.97m0 5v9.98m0 5v9.97m0 4.98v9.98m0 5v9.98m0 5v9.97m0 5v9.98m0 5v9.98m0 5v9.97m0 5v9.97m0 5v9.98m0 5v9.97m0 5v9.97m0 5v9.98m0 5v9.97m0 5v9.97m0 5v9.98m0 5v9.97m0 4.98v9.98m0 5v9.98m0 5v9.97m0 5v9.98m0 5v9.98m0 5v9.97m0 5v9.97m0 5v9.98m0 5v9.97m0 5V305m0 5V320m0 5v9.97m0 5v9.97m0 5v9.98m0 5v9.97m0 4.98v9.98m0 5v9.98m0 5v9.97m0 5v9.98m0 5v9.98m0 5v9.97m0 5v9.97m0 5v9.98m0 5v9.97m0 5v9.97m0 5v9.98m0 5v9.97m0 5v9.97m0 5v9.98m0 5v4.98" stroke="#333" fill="none"/><path d="M-424.46-523.5h-1v-.5h1z" stroke="#333" stroke-width=".05" fill="#333"/><path d="M-424.96 599.5v.5" stroke="#333" fill="none"/><path d="M-444.96-272a8 8 0 0 1 8-8h24a8 8 0 0 1 8 8V12a8 8 0 0 1-8 8h-24a8 8 0 0 1-8-8z" stroke="#f2f2f2" fill="#d2d3d5"/><path d="M-520-640a8 8 0 0 1 8-8h174.07a8 8 0 0 1 8 8v108a8 8 0 0 1-8 8H-512a8 8 0 0 1-8-8z" stroke="#000" stroke-opacity="0" fill="#ffcc78"/><use xlink:href="#d" transform="matrix(1,0,0,1,-512,-640.0000000000003) translate(22.085111737680677 57.80595713526222)"/><use xlink:href="#e" transform="matrix(1,0,0,1,-512,-640.0000000000003) translate(72.77834635874268 57.80595713526222)"/><use xlink:href="#f" transform="matrix(1,0,0,1,-512,-640.0000000000003) translate(100.21295404209116 57.80595713526222)"/><path d="M-723.46-208h259.5" stroke="#5e5e5e" stroke-width="2" fill="none"/><path d="M-723.44-207h-1.02v-2h1.02z" stroke="#5e5e5e" stroke-width=".05" fill="#5e5e5e"/><path d="M-448.7-208l-14.26 4.63v-9.26z" stroke="#5e5e5e" stroke-width="2" fill="#5e5e5e"/><use xlink:href="#g" transform="matrix(1,0,0,1,-645.0858993844023,-233.33328209961567) translate(0.005000000000002558 14.222222222222223)"/><path d="M-403.46-162H-346a6 6 0 0 1 6 6v87.06a6 6 0 0 1-6 6h-39.96" stroke="#5e5e5e" stroke-width="2" fill="none"/><path d="M-403.44-163v2h-1.02v-2z" stroke="#5e5e5e" stroke-width=".05" fill="#5e5e5e"/><path d="M-401.23-62.94l14.27-4.63v9.27z" stroke="#5e5e5e" stroke-width="2" fill="#5e5e5e"/><use xlink:href="#h" transform="matrix(1,0,0,1,-332,-133.80273736803608) translate(5.906234567901237 14.222222222222223)"/><use xlink:href="#i" transform="matrix(1,0,0,1,-332,-133.80273736803608) translate(32.57290123456791 14.222222222222223)"/><use xlink:href="#j" transform="matrix(1,0,0,1,-332,-133.80273736803608) translate(106.49882716049383 14.222222222222223)"/><use xlink:href="#k" transform="matrix(1,0,0,1,-332,-133.80273736803608) translate(0.0049999999999954525 35.55555555555556)"/><use xlink:href="#l" transform="matrix(1,0,0,1,-332,-133.80273736803608) translate(52.202530864197534 35.55555555555556)"/><use xlink:href="#m" transform="matrix(1,0,0,1,-332,-133.80273736803608) translate(77.83216049382716 35.55555555555556)"/><use xlink:href="#n" transform="matrix(1,0,0,1,-332,-133.80273736803608) translate(97.58524691358025 35.55555555555556)"/><path d="M-1095.07-424h49.07a6 6 0 0 1 6 6v78a6 6 0 0 1-6 6h-31.57" stroke="#5e5e5e" stroke-width="2" fill="none"/><path d="M-1095.04-423h-1.03v-2h1.03z" stroke="#5e5e5e" stroke-width=".05" fill="#5e5e5e"/><path d="M-1092.83-334l14.26-4.63v9.26z" stroke="#5e5e5e" stroke-width="2" fill="#5e5e5e"/><use xlink:href="#o" transform="matrix(1,0,0,1,-1032,-389.66663920003026) translate(0.0049999999999954525 14.222222222222223)"/><use xlink:href="#p" transform="matrix(1,0,0,1,-1032,-389.66663920003026) translate(71.06672839506174 14.222222222222223)"/><path d="M-72.43-632.14c0 8.76-7.1 15.86-15.85 15.86-8.76 0-15.86-7.1-15.86-15.86S-97.04-648-88.28-648c8.75 0 15.85 7.1 15.85 15.86z" stroke="#5e5e5e" stroke-width="3" fill="#fff"/><path d="M-88.28-616.3v47.5a23.05 23.05 0 0 0 2.92 11.24l28.8 51.56m-31.72-56.8L-120-506m0-94.43h63.43" stroke="#5e5e5e" stroke-width="3" fill="none"/><path d="M-120-642a6 6 0 0 1 6-6h51.43a6 6 0 0 1 6 6v152a6 6 0 0 1-6 6H-114a6 6 0 0 1-6-6z" fill="none"/><use xlink:href="#q" transform="matrix(1,0,0,1,-200,-506.0000000000008) translate(13.975308641975317 17.77777777777778)"/><use xlink:href="#r" transform="matrix(1,0,0,1,-200,-506.0000000000008) translate(103.97530864197532 17.77777777777778)"/><use xlink:href="#s" transform="matrix(1,0,0,1,-200,-506.0000000000008) translate(121.25925925925927 17.77777777777778)"/><path d="M-446.46-32h-259.5" stroke="#5e5e5e" stroke-width="2" fill="none"/><path d="M-445.46-31h-1.03v-2h1.04z" stroke="#5e5e5e" stroke-width=".05" fill="#5e5e5e"/><path d="M-721.23-32l14.27-4.63v9.27z" stroke="#5e5e5e" stroke-width="2" fill="#5e5e5e"/><use xlink:href="#t" transform="matrix(1,0,0,1,-642.0981747794987,-78.66667028092697) translate(0.005000000000002558 14.222222222222223)"/><use xlink:href="#u" transform="matrix(1,0,0,1,-642.0981747794987,-78.66667028092697) translate(4.893888888888881 35.55555555555556)"/><use xlink:href="#v" transform="matrix(1,0,0,1,-642.0981747794987,-78.66667028092697) translate(30.523518518518514 35.55555555555556)"/><path d="M-723.46 128h596.17" stroke="#5e5e5e" stroke-width="2" fill="none"/><path d="M-723.44 129h-1.02v-2h1.02z" stroke="#5e5e5e" stroke-width=".05" fill="#5e5e5e"/><path d="M-112.02 128l-14.27 4.63v-9.27z" stroke="#5e5e5e" stroke-width="2" fill="#5e5e5e"/><use xlink:href="#w" transform="matrix(1,0,0,1,-335.47831145226763,102.66666871595524) translate(0.0049999999999954525 14.222222222222223)"/><use xlink:href="#p" transform="matrix(1,0,0,1,-335.47831145226763,102.66666871595524) translate(69.98030864197531 14.222222222222223)"/><path d="M-109.78 270h-596.18" stroke="#5e5e5e" stroke-width="2" fill="none"/><path d="M-108.78 271h-1.03v-2h1.02z" stroke="#5e5e5e" stroke-width=".05" fill="#5e5e5e"/><path d="M-721.23 270l14.27-4.63v9.26z" stroke="#5e5e5e" stroke-width="2" fill="#5e5e5e"/><use xlink:href="#x" transform="matrix(1,0,0,1,-341.03047437122535,244.6666601885756) translate(0.0049999999999954525 14.222222222222223)"/><use xlink:href="#y" transform="matrix(1,0,0,1,-341.03047437122535,244.6666601885756) translate(98.62228395061729 14.222222222222223)"/><use xlink:href="#z" transform="matrix(1,0,0,1,-341.03047437122535,244.6666601885756) translate(124.25191358024692 14.222222222222223)"/><path d="M-723.46 324.1H-666a6 6 0 0 1 6 6v86.94a6 6 0 0 1-6 6h-39.96" stroke="#5e5e5e" stroke-width="2" fill="none"/><path d="M-723.44 323.1v2h-1.02v-2z" stroke="#5e5e5e" stroke-width=".05" fill="#5e5e5e"/><path d="M-721.23 423.04l14.27-4.63v9.28z" stroke="#5e5e5e" stroke-width="2" fill="#5e5e5e"/><g><use xlink:href="#A" transform="matrix(1,0,0,1,-651.9999999999999,362.903650926614) translate(0.0049999999999954525 14.222222222222223)"/><use xlink:href="#y" transform="matrix(1,0,0,1,-651.9999999999999,362.903650926614) translate(68.99265432098767 14.222222222222223)"/><use xlink:href="#B" transform="matrix(1,0,0,1,-651.9999999999999,362.903650926614) translate(94.6222839506173 14.222222222222223)"/><use xlink:href="#C" transform="matrix(1,0,0,1,-651.9999999999999,362.903650926614) translate(136.9432716049383 14.222222222222223)"/></g><path d="M-766.46 487.43h-311.1" stroke="#5e5e5e" stroke-width="2" fill="none"/><path d="M-765.46 488.43h-1.03v-2h1.04z" stroke="#5e5e5e" stroke-width=".05" fill="#5e5e5e"/><path d="M-1092.83 487.43l14.26-4.64v9.26z" stroke="#5e5e5e" stroke-width="2" fill="#5e5e5e"/><g><use xlink:href="#w" transform="matrix(1,0,0,1,-1005.1362953439209,462.09379795749413) translate(0.0049999999999954525 14.222222222222223)"/><use xlink:href="#D" transform="matrix(1,0,0,1,-1005.1362953439209,462.09379795749413) translate(69.98030864197531 14.222222222222223)"/><use xlink:href="#C" transform="matrix(1,0,0,1,-1005.1362953439209,462.09379795749413) translate(112.3012962962963 14.222222222222223)"/></g><path d="M-766.46 269.8h-311.1" stroke="#5e5e5e" stroke-width="2" fill="none"/><path d="M-765.46 270.8h-1.03v-2h1.04z" stroke="#5e5e5e" stroke-width=".05" fill="#5e5e5e"/><path d="M-1092.83 269.8l14.26-4.64v9.27z" stroke="#5e5e5e" stroke-width="2" fill="#5e5e5e"/><g><use xlink:href="#w" transform="matrix(1,0,0,1,-1021.4819975223253,244.46540232587694) translate(0.0049999999999954525 14.222222222222223)"/><use xlink:href="#E" transform="matrix(1,0,0,1,-1021.4819975223253,244.46540232587694) translate(69.98030864197531 14.222222222222223)"/></g><path d="M-444.96 428a8 8 0 0 1 8-8h24a8 8 0 0 1 8 8v104a8 8 0 0 1-8 8h-24a8 8 0 0 1-8-8z" stroke="#f2f2f2" fill="#d2d3d5"/><path d="M-723.46 489.23h259.5" stroke="#5e5e5e" stroke-width="2" fill="none"/><path d="M-723.44 490.23h-1.02v-2h1.02z" stroke="#5e5e5e" stroke-width=".05" fill="#5e5e5e"/><path d="M-448.7 489.23l-14.26 4.63v-9.27z" stroke="#5e5e5e" stroke-width="2" fill="#5e5e5e"/><g><use xlink:href="#F" transform="matrix(1,0,0,1,-666.3203797415763,463.8923820175163) translate(0.0049999999999954525 14.222222222222223)"/></g><defs><path fill="#333" d="M137-138c1-29-70-34-71-4 15 46 118 7 119 86 1 83-164 76-172 9l43-7c4 19 20 25 44 25 33 8 57-30 24-41C81-84 22-81 20-136c-2-80 154-74 161-7" id="G"/><path fill="#333" d="M85 4C-2 5 27-109 22-190h50c7 57-23 150 33 157 60-5 35-97 40-157h50l1 190h-47c-2-12 1-28-3-38-12 25-28 42-61 42" id="H"/><path fill="#333" d="M135-194c52 0 70 43 70 98 0 56-19 99-73 100-30 1-46-15-58-35L72 0H24l1-261h50v104c11-23 29-37 60-37zM114-30c31 0 40-27 40-66 0-37-7-63-39-63s-41 28-41 65c0 36 8 64 40 64" id="I"/><path fill="#333" d="M25-224v-37h50v37H25zM25 0v-190h50V0H25" id="J"/><path fill="#333" d="M135-150c-39-12-60 13-60 57V0H25l-1-190h47c2 13-1 29 3 40 6-28 27-53 61-41v41" id="K"/><path fill="#333" d="M24 0v-248h52V0H24" id="L"/><path fill="#333" d="M135-194c87-1 58 113 63 194h-50c-7-57 23-157-34-157-59 0-34 97-39 157H25l-1-190h47c2 12-1 28 3 38 12-26 28-41 61-42" id="M"/><path fill="#333" d="M121-226c-27-7-43 5-38 36h38v33H83V0H34v-157H6v-33h28c-9-59 32-81 87-68v32" id="N"/><path fill="#333" d="M110-194c64 0 96 36 96 99 0 64-35 99-97 99-61 0-95-36-95-99 0-62 34-99 96-99zm-1 164c35 0 45-28 45-65 0-40-10-65-43-65-34 0-45 26-45 65 0 36 10 65 43 65" id="O"/><path fill="#333" d="M220-157c-53 9-28 100-34 157h-49v-107c1-27-5-49-29-50C55-147 81-57 75 0H25l-1-190h47c2 12-1 28 3 38 10-53 101-56 108 0 13-22 24-43 59-42 82 1 51 116 57 194h-49v-107c-1-25-5-48-29-50" id="P"/><path fill="#333" d="M185-48c-13 30-37 53-82 52C43 2 14-33 14-96s30-98 90-98c62 0 83 45 84 108H66c0 31 8 55 39 56 18 0 30-7 34-22zm-45-69c5-46-57-63-70-21-2 6-4 13-4 21h74" id="Q"/><path fill="#333" d="M67-93c0 74 22 123 53 168H70C40 30 18-18 18-93s22-123 52-168h50c-32 44-53 94-53 168" id="R"/><path fill="#333" d="M102-93c0 74-22 123-52 168H0C30 29 54-18 53-93c0-74-22-123-53-168h50c30 45 52 94 52 168" id="S"/><g id="a"><use transform="matrix(0.05286051576753077,0,0,0.05286051576753077,0,0)" xlink:href="#G"/><use transform="matrix(0.05286051576753077,0,0,0.05286051576753077,10.572103153506154,0)" xlink:href="#H"/><use transform="matrix(0.05286051576753077,0,0,0.05286051576753077,22.148556106595393,0)" xlink:href="#I"/><use transform="matrix(0.05286051576753077,0,0,0.05286051576753077,33.72500905968463,0)" xlink:href="#J"/><use transform="matrix(0.05286051576753077,0,0,0.05286051576753077,39.011060636437705,0)" xlink:href="#K"/><use transform="matrix(0.05286051576753077,0,0,0.05286051576753077,46.41153284389201,0)" xlink:href="#L"/><use transform="matrix(0.05286051576753077,0,0,0.05286051576753077,51.697584420645086,0)" xlink:href="#M"/><use transform="matrix(0.05286051576753077,0,0,0.05286051576753077,63.27403737373432,0)" xlink:href="#N"/><use transform="matrix(0.05286051576753077,0,0,0.05286051576753077,69.56443875007048,0)" xlink:href="#O"/><use transform="matrix(0.05286051576753077,0,0,0.05286051576753077,81.14089170315972,0)" xlink:href="#K"/><use transform="matrix(0.05286051576753077,0,0,0.05286051576753077,88.54136391061404,0)" xlink:href="#P"/><use transform="matrix(0.05286051576753077,0,0,0.05286051576753077,105.45672895622388,0)" xlink:href="#Q"/><use transform="matrix(0.05286051576753077,0,0,0.05286051576753077,116.02883210973005,0)" xlink:href="#R"/><use transform="matrix(0.05286051576753077,0,0,0.05286051576753077,122.31923348606621,0)" xlink:href="#S"/></g><path fill="#333" d="M169-182c-1-43-94-46-97-3 18 66 151 10 154 114 3 95-165 93-204 36-6-8-10-19-12-30l50-8c3 46 112 56 116 5-17-69-150-10-154-114-4-87 153-88 188-35 5 8 8 18 10 28" id="T"/><path fill="#333" d="M115-3C79 11 28 4 28-45v-112H4v-33h27l15-45h31v45h36v33H77v99c-1 23 16 31 38 25v30" id="U"/><path fill="#333" d="M133-34C117-15 103 5 69 4 32 3 11-16 11-54c-1-60 55-63 116-61 1-26-3-47-28-47-18 1-26 9-28 27l-52-2c7-38 36-58 82-57s74 22 75 68l1 82c-1 14 12 18 25 15v27c-30 8-71 5-69-32zm-48 3c29 0 43-24 42-57-32 0-66-3-65 30 0 17 8 27 23 27" id="V"/><g id="b"><use transform="matrix(0.05286051576753077,0,0,0.05286051576753077,0,0)" xlink:href="#T"/><use transform="matrix(0.05286051576753077,0,0,0.05286051576753077,12.686523784207385,0)" xlink:href="#J"/><use transform="matrix(0.05286051576753077,0,0,0.05286051576753077,17.972575360960462,0)" xlink:href="#G"/><use transform="matrix(0.05286051576753077,0,0,0.05286051576753077,28.544678514466618,0)" xlink:href="#U"/><use transform="matrix(0.05286051576753077,0,0,0.05286051576753077,34.83507989080278,0)" xlink:href="#Q"/><use transform="matrix(0.05286051576753077,0,0,0.05286051576753077,45.40718304430894,0)" xlink:href="#P"/><use transform="matrix(0.05286051576753077,0,0,0.05286051576753077,62.32254808991878,0)" xlink:href="#V"/></g><path fill="#333" d="M30 0v-248h187v28H63v79h144v27H63v87h162V0H30" id="W"/><path fill="#333" d="M135-143c-3-34-86-38-87 0 15 53 115 12 119 90S17 21 10-45l28-5c4 36 97 45 98 0-10-56-113-15-118-90-4-57 82-63 122-42 12 7 21 19 24 35" id="X"/><path fill="#333" d="M59-47c-2 24 18 29 38 22v24C64 9 27 4 27-40v-127H5v-23h24l9-43h21v43h35v23H59v120" id="Y"/><path fill="#333" d="M84 4C-5 8 30-112 23-190h32v120c0 31 7 50 39 49 72-2 45-101 50-169h31l1 190h-30c-1-10 1-25-2-33-11 22-28 36-60 37" id="Z"/><path fill="#333" d="M85-194c31 0 48 13 60 33l-1-100h32l1 261h-30c-2-10 0-23-3-31C134-8 116 4 85 4 32 4 16-35 15-94c0-66 23-100 70-100zm9 24c-40 0-46 34-46 75 0 40 6 74 45 74 42 0 51-32 51-76 0-42-9-74-50-73" id="aa"/><path fill="#333" d="M24-231v-30h32v30H24zM24 0v-190h32V0H24" id="ab"/><path fill="#333" d="M141-36C126-15 110 5 73 4 37 3 15-17 15-53c-1-64 63-63 125-63 3-35-9-54-41-54-24 1-41 7-42 31l-33-3c5-37 33-52 76-52 45 0 72 20 72 64v82c-1 20 7 32 28 27v20c-31 9-61-2-59-35zM48-53c0 20 12 33 32 33 41-3 63-29 60-74-43 2-92-5-92 41" id="ac"/><path fill="#333" d="M117-194c89-4 53 116 60 194h-32v-121c0-31-8-49-39-48C34-167 62-67 57 0H25l-1-190h30c1 10-1 24 2 32 11-22 29-35 61-36" id="ad"/><path fill="#333" d="M100-194c63 0 86 42 84 106H49c0 40 14 67 53 68 26 1 43-12 49-29l28 8c-11 28-37 45-77 45C44 4 14-33 15-96c1-61 26-98 85-98zm52 81c6-60-76-77-97-28-3 7-6 17-6 28h103" id="ae"/><g id="c"><use transform="matrix(0.06172839506172839,0,0,0.06172839506172839,0,0)" xlink:href="#W"/><use transform="matrix(0.06172839506172839,0,0,0.06172839506172839,14.814814814814813,0)" xlink:href="#X"/><use transform="matrix(0.06172839506172839,0,0,0.06172839506172839,25.925925925925924,0)" xlink:href="#Y"/><use transform="matrix(0.06172839506172839,0,0,0.06172839506172839,32.098765432098766,0)" xlink:href="#Z"/><use transform="matrix(0.06172839506172839,0,0,0.06172839506172839,44.44444444444444,0)" xlink:href="#aa"/><use transform="matrix(0.06172839506172839,0,0,0.06172839506172839,56.79012345679012,0)" xlink:href="#ab"/><use transform="matrix(0.06172839506172839,0,0,0.06172839506172839,61.666666666666664,0)" xlink:href="#ac"/><use transform="matrix(0.06172839506172839,0,0,0.06172839506172839,74.01234567901234,0)" xlink:href="#ad"/><use transform="matrix(0.06172839506172839,0,0,0.06172839506172839,86.35802469135803,0)" xlink:href="#Y"/><use transform="matrix(0.06172839506172839,0,0,0.06172839506172839,92.53086419753086,0)" xlink:href="#ae"/></g><path fill="#333" d="M182-130c37 4 62 22 62 59C244 23 116-4 24 0v-248c84 5 203-23 205 63 0 31-19 50-47 55zM76-148c40-3 101 13 101-30 0-44-60-28-101-31v61zm0 110c48-3 116 14 116-37 0-48-69-32-116-35v72" id="af"/><g id="d"><use transform="matrix(0.05286051576753077,0,0,0.05286051576753077,0,0)" xlink:href="#af"/><use transform="matrix(0.05286051576753077,0,0,0.05286051576753077,13.69087358379047,0)" xlink:href="#V"/><use transform="matrix(0.05286051576753077,0,0,0.05286051576753077,24.262976737296626,0)" xlink:href="#G"/><use transform="matrix(0.05286051576753077,0,0,0.05286051576753077,34.83507989080278,0)" xlink:href="#Q"/></g><path fill="#333" d="M88-194c31-1 46 15 58 34l-1-101h50l1 261h-48c-2-10 0-23-3-31C134-8 116 4 84 4 32 4 16-41 15-95c0-56 19-97 73-99zm17 164c33 0 40-30 41-66 1-37-9-64-41-64s-38 30-39 65c0 43 13 65 39 65" id="ag"/><g id="e"><use transform="matrix(0.05286051576753077,0,0,0.05286051576753077,0,0)" xlink:href="#ag"/><use transform="matrix(0.05286051576753077,0,0,0.05286051576753077,11.57645295308924,0)" xlink:href="#Q"/></g><path fill="#333" d="M24-248c120-7 223 5 221 122C244-46 201 0 124 0H24v-248zM76-40c74 7 117-18 117-86 0-67-45-88-117-82v168" id="ah"/><g id="f"><use transform="matrix(0.05286051576753077,0,0,0.05286051576753077,0,0)" xlink:href="#ah"/><use transform="matrix(0.05286051576753077,0,0,0.05286051576753077,13.69087358379047,0)" xlink:href="#V"/><use transform="matrix(0.05286051576753077,0,0,0.05286051576753077,24.262976737296626,0)" xlink:href="#U"/><use transform="matrix(0.05286051576753077,0,0,0.05286051576753077,30.553378113632785,0)" xlink:href="#O"/><use transform="matrix(0.05286051576753077,0,0,0.05286051576753077,42.129831066722026,0)" xlink:href="#G"/></g><path fill="#333" d="M190-63c-7 42-38 67-86 67-59 0-84-38-90-98-12-110 154-137 174-36l-49 2c-2-19-15-32-35-32-30 0-35 28-38 64-6 74 65 87 74 30" id="ai"/><g id="g"><use transform="matrix(0.04938271604938272,0,0,0.04938271604938272,0,0)" xlink:href="#ai"/><use transform="matrix(0.04938271604938272,0,0,0.04938271604938272,9.876543209876544,0)" xlink:href="#K"/><use transform="matrix(0.04938271604938272,0,0,0.04938271604938272,16.790123456790127,0)" xlink:href="#Q"/><use transform="matrix(0.04938271604938272,0,0,0.04938271604938272,26.666666666666668,0)" xlink:href="#V"/><use transform="matrix(0.04938271604938272,0,0,0.04938271604938272,36.543209876543216,0)" xlink:href="#K"/><use transform="matrix(0.04938271604938272,0,0,0.04938271604938272,43.4567901234568,0)" xlink:href="#L"/><use transform="matrix(0.04938271604938272,0,0,0.04938271604938272,48.39506172839507,0)" xlink:href="#M"/><use transform="matrix(0.04938271604938272,0,0,0.04938271604938272,59.209876543209894,0)" xlink:href="#N"/><use transform="matrix(0.04938271604938272,0,0,0.04938271604938272,65.08641975308643,0)" xlink:href="#O"/><use transform="matrix(0.04938271604938272,0,0,0.04938271604938272,75.90123456790124,0)" xlink:href="#K"/><use transform="matrix(0.04938271604938272,0,0,0.04938271604938272,82.81481481481482,0)" xlink:href="#P"/><use transform="matrix(0.04938271604938272,0,0,0.04938271604938272,98.61728395061729,0)" xlink:href="#Q"/><use transform="matrix(0.04938271604938272,0,0,0.04938271604938272,108.49382716049384,0)" xlink:href="#R"/><use transform="matrix(0.04938271604938272,0,0,0.04938271604938272,114.37037037037038,0)" xlink:href="#S"/></g><g id="h"><use transform="matrix(0.04938271604938272,0,0,0.04938271604938272,0,0)" xlink:href="#T"/><use transform="matrix(0.04938271604938272,0,0,0.04938271604938272,11.851851851851853,0)" xlink:href="#Q"/></g><g id="i"><use transform="matrix(0.04938271604938272,0,0,0.04938271604938272,0,0)" xlink:href="#J"/><use transform="matrix(0.04938271604938272,0,0,0.04938271604938272,4.938271604938272,0)" xlink:href="#M"/><use transform="matrix(0.04938271604938272,0,0,0.04938271604938272,15.753086419753087,0)" xlink:href="#G"/><use transform="matrix(0.04938271604938272,0,0,0.04938271604938272,25.629629629629633,0)" xlink:href="#Q"/><use transform="matrix(0.04938271604938272,0,0,0.04938271604938272,35.50617283950618,0)" xlink:href="#K"/><use transform="matrix(0.04938271604938272,0,0,0.04938271604938272,42.41975308641976,0)" xlink:href="#U"/><use transform="matrix(0.04938271604938272,0,0,0.04938271604938272,48.296296296296305,0)" xlink:href="#V"/><use transform="matrix(0.04938271604938272,0,0,0.04938271604938272,58.17283950617284,0)" xlink:href="#M"/></g><path fill="#333" d="M25 0v-261h50V0H25" id="aj"/><g id="j"><use transform="matrix(0.04938271604938272,0,0,0.04938271604938272,0,0)" xlink:href="#aj"/><use transform="matrix(0.04938271604938272,0,0,0.04938271604938272,4.938271604938272,0)" xlink:href="#O"/><use transform="matrix(0.04938271604938272,0,0,0.04938271604938272,15.753086419753087,0)" xlink:href="#G"/></g><g id="k"><use transform="matrix(0.04938271604938272,0,0,0.04938271604938272,0,0)" xlink:href="#ag"/><use transform="matrix(0.04938271604938272,0,0,0.04938271604938272,10.814814814814815,0)" xlink:href="#V"/><use transform="matrix(0.04938271604938272,0,0,0.04938271604938272,20.69135802469136,0)" xlink:href="#U"/><use transform="matrix(0.04938271604938272,0,0,0.04938271604938272,26.567901234567902,0)" xlink:href="#O"/><use transform="matrix(0.04938271604938272,0,0,0.04938271604938272,37.38271604938272,0)" xlink:href="#G"/></g><g id="l"><use transform="matrix(0.04938271604938272,0,0,0.04938271604938272,0,0)" xlink:href="#Q"/><use transform="matrix(0.04938271604938272,0,0,0.04938271604938272,9.876543209876544,0)" xlink:href="#M"/></g><g id="m"><use transform="matrix(0.04938271604938272,0,0,0.04938271604938272,0,0)" xlink:href="#aj"/><use transform="matrix(0.04938271604938272,0,0,0.04938271604938272,4.938271604938272,0)" xlink:href="#V"/></g><g id="n"><use transform="matrix(0.04938271604938272,0,0,0.04938271604938272,0,0)" xlink:href="#I"/><use transform="matrix(0.04938271604938272,0,0,0.04938271604938272,10.814814814814815,0)" xlink:href="#V"/><use transform="matrix(0.04938271604938272,0,0,0.04938271604938272,20.69135802469136,0)" xlink:href="#G"/><use transform="matrix(0.04938271604938272,0,0,0.04938271604938272,30.567901234567906,0)" xlink:href="#Q"/></g><path fill="#333" d="M24 0v-248h195v40H76v63h132v40H76v65h150V0H24" id="ak"/><g id="o"><use transform="matrix(0.04938271604938272,0,0,0.04938271604938272,0,0)" xlink:href="#ak"/><use transform="matrix(0.04938271604938272,0,0,0.04938271604938272,11.851851851851853,0)" xlink:href="#G"/><use transform="matrix(0.04938271604938272,0,0,0.04938271604938272,21.7283950617284,0)" xlink:href="#ai"/><use transform="matrix(0.04938271604938272,0,0,0.04938271604938272,31.60493827160494,0)" xlink:href="#K"/><use transform="matrix(0.04938271604938272,0,0,0.04938271604938272,38.518518518518526,0)" xlink:href="#J"/><use transform="matrix(0.04938271604938272,0,0,0.04938271604938272,43.4567901234568,0)" xlink:href="#I"/><use transform="matrix(0.04938271604938272,0,0,0.04938271604938272,54.27160493827161,0)" xlink:href="#J"/><use transform="matrix(0.04938271604938272,0,0,0.04938271604938272,59.209876543209894,0)" xlink:href="#K"/></g><g id="p"><use transform="matrix(0.04938271604938272,0,0,0.04938271604938272,0,0)" xlink:href="#L"/><use transform="matrix(0.04938271604938272,0,0,0.04938271604938272,4.938271604938272,0)" xlink:href="#M"/><use transform="matrix(0.04938271604938272,0,0,0.04938271604938272,15.753086419753087,0)" xlink:href="#N"/><use transform="matrix(0.04938271604938272,0,0,0.04938271604938272,21.62962962962963,0)" xlink:href="#O"/><use transform="matrix(0.04938271604938272,0,0,0.04938271604938272,32.44444444444444,0)" xlink:href="#K"/><use transform="matrix(0.04938271604938272,0,0,0.04938271604938272,39.358024691358025,0)" xlink:href="#P"/><use transform="matrix(0.04938271604938272,0,0,0.04938271604938272,55.1604938271605,0)" xlink:href="#Q"/></g><path fill="#333" d="M30-248c87 1 191-15 191 75 0 78-77 80-158 76V0H30v-248zm33 125c57 0 124 11 124-50 0-59-68-47-124-48v98" id="al"/><path fill="#333" d="M114-163C36-179 61-72 57 0H25l-1-190h30c1 12-1 29 2 39 6-27 23-49 58-41v29" id="am"/><path fill="#333" d="M100-194c62-1 85 37 85 99 1 63-27 99-86 99S16-35 15-95c0-66 28-99 85-99zM99-20c44 1 53-31 53-75 0-43-8-75-51-75s-53 32-53 75 10 74 51 75" id="an"/><path fill="#333" d="M101-234c-31-9-42 10-38 44h38v23H63V0H32v-167H5v-23h27c-7-52 17-82 69-68v24" id="ao"/><g id="q"><use transform="matrix(0.06172839506172839,0,0,0.06172839506172839,0,0)" xlink:href="#al"/><use transform="matrix(0.06172839506172839,0,0,0.06172839506172839,14.814814814814813,0)" xlink:href="#am"/><use transform="matrix(0.06172839506172839,0,0,0.06172839506172839,22.160493827160494,0)" xlink:href="#an"/><use transform="matrix(0.06172839506172839,0,0,0.06172839506172839,34.50617283950617,0)" xlink:href="#ao"/><use transform="matrix(0.06172839506172839,0,0,0.06172839506172839,40.67901234567901,0)" xlink:href="#ae"/><use transform="matrix(0.06172839506172839,0,0,0.06172839506172839,53.02469135802469,0)" xlink:href="#X"/><use transform="matrix(0.06172839506172839,0,0,0.06172839506172839,64.1358024691358,0)" xlink:href="#an"/><use transform="matrix(0.06172839506172839,0,0,0.06172839506172839,76.48148148148148,0)" xlink:href="#am"/></g><path fill="#333" d="M179-190L93 31C79 59 56 82 12 73V49c39 6 53-20 64-50L1-190h34L92-34l54-156h33" id="ap"/><use transform="matrix(0.06172839506172839,0,0,0.06172839506172839,0,0)" xlink:href="#ap" id="r"/><path fill="#333" d="M210-169c-67 3-38 105-44 169h-31v-121c0-29-5-50-35-48C34-165 62-65 56 0H25l-1-190h30c1 10-1 24 2 32 10-44 99-50 107 0 11-21 27-35 58-36 85-2 47 119 55 194h-31v-121c0-29-5-49-35-48" id="aq"/><path fill="#333" d="M115-194c55 1 70 41 70 98S169 2 115 4C84 4 66-9 55-30l1 105H24l-1-265h31l2 30c10-21 28-34 59-34zm-8 174c40 0 45-34 45-75s-6-73-45-74c-42 0-51 32-51 76 0 43 10 73 51 73" id="ar"/><g id="s"><use transform="matrix(0.06172839506172839,0,0,0.06172839506172839,0,0)" xlink:href="#W"/><use transform="matrix(0.06172839506172839,0,0,0.06172839506172839,14.814814814814813,0)" xlink:href="#aq"/><use transform="matrix(0.06172839506172839,0,0,0.06172839506172839,33.2716049382716,0)" xlink:href="#ar"/><use transform="matrix(0.06172839506172839,0,0,0.06172839506172839,45.61728395061728,0)" xlink:href="#am"/><use transform="matrix(0.06172839506172839,0,0,0.06172839506172839,52.962962962962955,0)" xlink:href="#ae"/><use transform="matrix(0.06172839506172839,0,0,0.06172839506172839,65.30864197530863,0)" xlink:href="#X"/><use transform="matrix(0.06172839506172839,0,0,0.06172839506172839,76.41975308641975,0)" xlink:href="#ac"/></g><path fill="#333" d="M67-125c0 53 21 87 73 88 37 1 54-22 65-47l45 17C233-25 199 4 140 4 58 4 20-42 15-125 8-235 124-281 211-232c18 10 29 29 36 50l-46 12c-8-25-30-41-62-41-52 0-71 34-72 86" id="as"/><path fill="#333" d="M110-194c64 0 96 36 96 99 0 64-35 99-97 99-61 0-95-36-95-99 0-62 34-99 96-99zm-1 164c35 0 45-28 45-65 0-40-10-65-43-65-34 0-45 26-45 65 0 36 10 65 43 65zM81-208v-5l45-51h45v8l-60 48H81" id="at"/><g id="t"><use transform="matrix(0.04938271604938272,0,0,0.04938271604938272,0,0)" xlink:href="#as"/><use transform="matrix(0.04938271604938272,0,0,0.04938271604938272,12.790123456790125,0)" xlink:href="#O"/><use transform="matrix(0.04938271604938272,0,0,0.04938271604938272,23.60493827160494,0)" xlink:href="#M"/><use transform="matrix(0.04938271604938272,0,0,0.04938271604938272,34.41975308641975,0)" xlink:href="#N"/><use transform="matrix(0.04938271604938272,0,0,0.04938271604938272,40.2962962962963,0)" xlink:href="#J"/><use transform="matrix(0.04938271604938272,0,0,0.04938271604938272,45.23456790123457,0)" xlink:href="#K"/><use transform="matrix(0.04938271604938272,0,0,0.04938271604938272,52.14814814814815,0)" xlink:href="#P"/><use transform="matrix(0.04938271604938272,0,0,0.04938271604938272,67.95061728395062,0)" xlink:href="#V"/><use transform="matrix(0.04938271604938272,0,0,0.04938271604938272,77.82716049382717,0)" xlink:href="#ai"/><use transform="matrix(0.04938271604938272,0,0,0.04938271604938272,87.70370370370371,0)" xlink:href="#J"/><use transform="matrix(0.04938271604938272,0,0,0.04938271604938272,92.64197530864197,0)" xlink:href="#at"/><use transform="matrix(0.04938271604938272,0,0,0.04938271604938272,103.45679012345677,0)" xlink:href="#M"/></g><g id="u"><use transform="matrix(0.04938271604938272,0,0,0.04938271604938272,0,0)" xlink:href="#ag"/><use transform="matrix(0.04938271604938272,0,0,0.04938271604938272,10.814814814814815,0)" xlink:href="#Q"/></g><g id="v"><use transform="matrix(0.04938271604938272,0,0,0.04938271604938272,0,0)" xlink:href="#J"/><use transform="matrix(0.04938271604938272,0,0,0.04938271604938272,4.938271604938272,0)" xlink:href="#M"/><use transform="matrix(0.04938271604938272,0,0,0.04938271604938272,15.753086419753087,0)" xlink:href="#G"/><use transform="matrix(0.04938271604938272,0,0,0.04938271604938272,25.629629629629633,0)" xlink:href="#Q"/><use transform="matrix(0.04938271604938272,0,0,0.04938271604938272,35.50617283950618,0)" xlink:href="#K"/><use transform="matrix(0.04938271604938272,0,0,0.04938271604938272,42.41975308641976,0)" xlink:href="#ai"/><use transform="matrix(0.04938271604938272,0,0,0.04938271604938272,52.2962962962963,0)" xlink:href="#J"/><use transform="matrix(0.04938271604938272,0,0,0.04938271604938272,57.23456790123457,0)" xlink:href="#at"/><use transform="matrix(0.04938271604938272,0,0,0.04938271604938272,68.0493827160494,0)" xlink:href="#M"/></g><path fill="#333" d="M230 0l2-204L168 0h-37L68-204 70 0H24v-248h70l56 185 57-185h69V0h-46" id="au"/><g id="w"><use transform="matrix(0.04938271604938272,0,0,0.04938271604938272,0,0)" xlink:href="#au"/><use transform="matrix(0.04938271604938272,0,0,0.04938271604938272,14.765432098765434,0)" xlink:href="#O"/><use transform="matrix(0.04938271604938272,0,0,0.04938271604938272,25.58024691358025,0)" xlink:href="#G"/><use transform="matrix(0.04938271604938272,0,0,0.04938271604938272,35.45679012345679,0)" xlink:href="#U"/><use transform="matrix(0.04938271604938272,0,0,0.04938271604938272,41.333333333333336,0)" xlink:href="#K"/><use transform="matrix(0.04938271604938272,0,0,0.04938271604938272,48.24691358024692,0)" xlink:href="#V"/><use transform="matrix(0.04938271604938272,0,0,0.04938271604938272,58.12345679012346,0)" xlink:href="#K"/></g><path fill="#333" d="M128 0H69L1-190h53L99-40l48-150h52" id="av"/><g id="x"><use transform="matrix(0.04938271604938272,0,0,0.04938271604938272,0,0)" xlink:href="#ak"/><use transform="matrix(0.04938271604938272,0,0,0.04938271604938272,11.851851851851853,0)" xlink:href="#av"/><use transform="matrix(0.04938271604938272,0,0,0.04938271604938272,21.7283950617284,0)" xlink:href="#V"/><use transform="matrix(0.04938271604938272,0,0,0.04938271604938272,31.60493827160494,0)" xlink:href="#aj"/><use transform="matrix(0.04938271604938272,0,0,0.04938271604938272,36.543209876543216,0)" xlink:href="#H"/><use transform="matrix(0.04938271604938272,0,0,0.04938271604938272,47.35802469135803,0)" xlink:href="#V"/><use transform="matrix(0.04938271604938272,0,0,0.04938271604938272,57.23456790123457,0)" xlink:href="#ai"/><use transform="matrix(0.04938271604938272,0,0,0.04938271604938272,67.11111111111111,0)" xlink:href="#J"/><use transform="matrix(0.04938271604938272,0,0,0.04938271604938272,72.0493827160494,0)" xlink:href="#at"/><use transform="matrix(0.04938271604938272,0,0,0.04938271604938272,82.8641975308642,0)" xlink:href="#M"/></g><g id="y"><use transform="matrix(0.04938271604938272,0,0,0.04938271604938272,0,0)" xlink:href="#ag"/><use transform="matrix(0.04938271604938272,0,0,0.04938271604938272,10.814814814814815,0)" xlink:href="#Q"/></g><g id="z"><use transform="matrix(0.04938271604938272,0,0,0.04938271604938272,0,0)" xlink:href="#L"/><use transform="matrix(0.04938271604938272,0,0,0.04938271604938272,4.938271604938272,0)" xlink:href="#M"/><use transform="matrix(0.04938271604938272,0,0,0.04938271604938272,15.753086419753087,0)" xlink:href="#N"/><use transform="matrix(0.04938271604938272,0,0,0.04938271604938272,21.62962962962963,0)" xlink:href="#O"/><use transform="matrix(0.04938271604938272,0,0,0.04938271604938272,32.44444444444444,0)" xlink:href="#K"/><use transform="matrix(0.04938271604938272,0,0,0.04938271604938272,39.358024691358025,0)" xlink:href="#P"/><use transform="matrix(0.04938271604938272,0,0,0.04938271604938272,55.1604938271605,0)" xlink:href="#Q"/></g><path fill="#333" d="M132-34C116-15 102 5 68 4 31 3 10-16 10-54c-1-60 55-63 116-61 1-26-3-47-28-47-18 1-26 9-28 27l-52-2c7-38 36-58 82-57s74 22 75 68l1 82c-1 14 12 18 25 15v27c-30 8-71 5-69-32zm-48 3c29 0 43-24 42-57-32 0-66-3-65 30 0 17 8 27 23 27zM66-208v-5l45-51h45v8l-60 48H66" id="aw"/><g id="A"><use transform="matrix(0.04938271604938272,0,0,0.04938271604938272,0,0)" xlink:href="#as"/><use transform="matrix(0.04938271604938272,0,0,0.04938271604938272,12.790123456790125,0)" xlink:href="#aw"/><use transform="matrix(0.04938271604938272,0,0,0.04938271604938272,22.66666666666667,0)" xlink:href="#aj"/><use transform="matrix(0.04938271604938272,0,0,0.04938271604938272,27.604938271604947,0)" xlink:href="#ai"/><use transform="matrix(0.04938271604938272,0,0,0.04938271604938272,37.48148148148149,0)" xlink:href="#H"/><use transform="matrix(0.04938271604938272,0,0,0.04938271604938272,48.296296296296305,0)" xlink:href="#aj"/><use transform="matrix(0.04938271604938272,0,0,0.04938271604938272,53.23456790123457,0)" xlink:href="#O"/></g><g id="B"><use transform="matrix(0.04938271604938272,0,0,0.04938271604938272,0,0)" xlink:href="#M"/><use transform="matrix(0.04938271604938272,0,0,0.04938271604938272,10.814814814814815,0)" xlink:href="#O"/><use transform="matrix(0.04938271604938272,0,0,0.04938271604938272,21.62962962962963,0)" xlink:href="#U"/><use transform="matrix(0.04938271604938272,0,0,0.04938271604938272,27.506172839506174,0)" xlink:href="#V"/></g><g id="C"><use transform="matrix(0.04938271604938272,0,0,0.04938271604938272,0,0)" xlink:href="#N"/><use transform="matrix(0.04938271604938272,0,0,0.04938271604938272,5.8765432098765435,0)" xlink:href="#J"/><use transform="matrix(0.04938271604938272,0,0,0.04938271604938272,10.814814814814817,0)" xlink:href="#M"/><use transform="matrix(0.04938271604938272,0,0,0.04938271604938272,21.629629629629633,0)" xlink:href="#V"/><use transform="matrix(0.04938271604938272,0,0,0.04938271604938272,31.506172839506174,0)" xlink:href="#aj"/></g><g id="D"><use transform="matrix(0.04938271604938272,0,0,0.04938271604938272,0,0)" xlink:href="#M"/><use transform="matrix(0.04938271604938272,0,0,0.04938271604938272,10.814814814814815,0)" xlink:href="#O"/><use transform="matrix(0.04938271604938272,0,0,0.04938271604938272,21.62962962962963,0)" xlink:href="#U"/><use transform="matrix(0.04938271604938272,0,0,0.04938271604938272,27.506172839506174,0)" xlink:href="#V"/></g><g id="E"><use transform="matrix(0.04938271604938272,0,0,0.04938271604938272,0,0)" xlink:href="#Q"/><use transform="matrix(0.04938271604938272,0,0,0.04938271604938272,9.876543209876544,0)" xlink:href="#av"/><use transform="matrix(0.04938271604938272,0,0,0.04938271604938272,19.75308641975309,0)" xlink:href="#V"/><use transform="matrix(0.04938271604938272,0,0,0.04938271604938272,29.629629629629633,0)" xlink:href="#aj"/><use transform="matrix(0.04938271604938272,0,0,0.04938271604938272,34.567901234567906,0)" xlink:href="#H"/><use transform="matrix(0.04938271604938272,0,0,0.04938271604938272,45.38271604938272,0)" xlink:href="#V"/><use transform="matrix(0.04938271604938272,0,0,0.04938271604938272,55.25925925925927,0)" xlink:href="#ai"/><use transform="matrix(0.04938271604938272,0,0,0.04938271604938272,65.13580246913581,0)" xlink:href="#J"/><use transform="matrix(0.04938271604938272,0,0,0.04938271604938272,70.07407407407408,0)" xlink:href="#O"/><use transform="matrix(0.04938271604938272,0,0,0.04938271604938272,80.88888888888889,0)" xlink:href="#M"/><use transform="matrix(0.04938271604938272,0,0,0.04938271604938272,91.7037037037037,0)" xlink:href="#Q"/><use transform="matrix(0.04938271604938272,0,0,0.04938271604938272,101.58024691358024,0)" xlink:href="#G"/></g><path fill="#333" d="M12 0v-35l95-120H19v-35h142v35L67-36h103V0H12" id="ax"/><path fill="#333" d="M24-248c93 1 206-16 204 79-1 75-69 88-152 82V0H24v-248zm52 121c47 0 100 7 100-41 0-47-54-39-100-39v80" id="ay"/><g id="F"><use transform="matrix(0.04938271604938272,0,0,0.04938271604938272,0,0)" xlink:href="#V"/><use transform="matrix(0.04938271604938272,0,0,0.04938271604938272,9.876543209876544,0)" xlink:href="#ai"/><use transform="matrix(0.04938271604938272,0,0,0.04938271604938272,19.75308641975309,0)" xlink:href="#U"/><use transform="matrix(0.04938271604938272,0,0,0.04938271604938272,25.629629629629633,0)" xlink:href="#H"/><use transform="matrix(0.04938271604938272,0,0,0.04938271604938272,36.44444444444445,0)" xlink:href="#V"/><use transform="matrix(0.04938271604938272,0,0,0.04938271604938272,46.320987654320994,0)" xlink:href="#aj"/><use transform="matrix(0.04938271604938272,0,0,0.04938271604938272,51.25925925925927,0)" xlink:href="#J"/><use transform="matrix(0.04938271604938272,0,0,0.04938271604938272,56.19753086419754,0)" xlink:href="#ax"/><use transform="matrix(0.04938271604938272,0,0,0.04938271604938272,65.08641975308643,0)" xlink:href="#V"/><use transform="matrix(0.04938271604938272,0,0,0.04938271604938272,74.96296296296298,0)" xlink:href="#K"/><use transform="matrix(0.04938271604938272,0,0,0.04938271604938272,81.87654320987656,0)" xlink:href="#ay"/><use transform="matrix(0.04938271604938272,0,0,0.04938271604938272,93.7283950617284,0)" xlink:href="#K"/><use transform="matrix(0.04938271604938272,0,0,0.04938271604938272,100.64197530864199,0)" xlink:href="#V"/><use transform="matrix(0.04938271604938272,0,0,0.04938271604938272,110.51851851851853,0)" xlink:href="#ai"/><use transform="matrix(0.04938271604938272,0,0,0.04938271604938272,120.39506172839508,0)" xlink:href="#U"/><use transform="matrix(0.04938271604938272,0,0,0.04938271604938272,126.27160493827162,0)" xlink:href="#J"/><use transform="matrix(0.04938271604938272,0,0,0.04938271604938272,131.2098765432099,0)" xlink:href="#ai"/><use transform="matrix(0.04938271604938272,0,0,0.04938271604938272,141.08641975308643,0)" xlink:href="#V"/><use transform="matrix(0.04938271604938272,0,0,0.04938271604938272,150.962962962963,0)" xlink:href="#R"/><use transform="matrix(0.04938271604938272,0,0,0.04938271604938272,156.83950617283952,0)" xlink:href="#S"/></g></defs></g></svg>