<svg xmlns="http://www.w3.org/2000/svg" xmlns:xlink="http://www.w3.org/1999/xlink" xmlns:lucid="lucid" width="1760" height="1360"><g transform="translate(0 0)" lucid:page-tab-id="0_0"><path d="M0 0h1760v1360H0z" fill="#fff"/><path d="M1068 50c17.67 0 32 17.9 32 40s-14.33 40-32 40h-96c-17.67 0-32-17.9-32-40s14.33-40 32-40z" stroke="#000" stroke-opacity="0" fill="#ff741d"/><use xlink:href="#a" transform="matrix(1,0,0,1,945,55) translate(54.05 38.6)"/><path d="M640 237.92a9.06 9.06 0 0 1 7.94-9L792.06 211a7.07 7.07 0 0 1 7.94 7v104a8 8 0 0 1-8 8H648a8 8 0 0 1-8-8z" stroke="#000" stroke-opacity="0" stroke-width="2" fill="#ff8839"/><use xlink:href="#b" transform="matrix(1,0,0,1,645,235) translate(12.074999999999996 27)"/><use xlink:href="#c" transform="matrix(1,0,0,1,645,235) translate(84.975 27)"/><use xlink:href="#d" transform="matrix(1,0,0,1,645,235) translate(42.55 48.6)"/><use xlink:href="#e" transform="matrix(1,0,0,1,645,235) translate(30.074999999999996 70.2)"/><path d="M1020 130.5V164a12 12 0 0 1-12 12H732a12 12 0 0 0-12 12v17.62" stroke="#333" fill="none"/><path d="M1020.5 130.5h-1v-.5h1z" stroke="#333" stroke-width=".05" fill="#333"/><path d="M720 220.38l-4.63-14.26h9.26z" stroke="#333" fill="#333"/><path d="M940 218a8 8 0 0 1 8-8h144a8 8 0 0 1 8 8v104a8 8 0 0 1-8 8H948a8 8 0 0 1-8-8z" stroke="#000" stroke-opacity="0" stroke-width="2" fill="#ff8839"/><use xlink:href="#f" transform="matrix(1,0,0,1,945,215) translate(25.099999999999994 37)"/><use xlink:href="#g" transform="matrix(1,0,0,1,945,215) translate(110.95 37)"/><use xlink:href="#d" transform="matrix(1,0,0,1,945,215) translate(42.55 58.6)"/><use xlink:href="#e" transform="matrix(1,0,0,1,945,215) translate(30.074999999999996 80.20000000000002)"/><path d="M800.5 270.23h123.12" stroke="#333" fill="none"/><path d="M800.5 270.73h-.5v-1h.5z" stroke="#333" stroke-width=".05" fill="#333"/><path d="M938.38 270.23l-14.26 4.63v-9.27z" stroke="#333" fill="#333"/><path d="M1068 1230c17.67 0 32 17.9 32 40s-14.33 40-32 40h-96c-17.67 0-32-17.9-32-40s14.33-40 32-40z" stroke="#000" stroke-opacity="0" fill="#ffeadb"/><use xlink:href="#h" transform="matrix(1,0,0,1,945,1235) translate(55.574999999999996 38.6)"/><path d="M1014.05 415.35a8.9 8.9 0 0 1 11.9 0l88.1 79.3a7.2 7.2 0 0 1 0 10.7l-88.1 79.3a8.9 8.9 0 0 1-11.9 0l-88.1-79.3a7.2 7.2 0 0 1 0-10.7z" stroke="#fe5900" stroke-width="4" fill="#fff"/><use xlink:href="#i" transform="matrix(1,0,0,1,925,415) translate(30.525000000000006 77.8)"/><use xlink:href="#j" transform="matrix(1,0,0,1,925,415) translate(120.47500000000001 77.8)"/><use xlink:href="#k" transform="matrix(1,0,0,1,925,415) translate(13.099999999999994 99.4)"/><use xlink:href="#l" transform="matrix(1,0,0,1,925,415) translate(88 99.4)"/><use xlink:href="#m" transform="matrix(1,0,0,1,925,415) translate(102 99.4)"/><path d="M1020 330.5v64.18" stroke="#333" fill="none"/><path d="M1020.5 330.5h-1v-.5h1z" stroke="#333" stroke-width=".05" fill="#333"/><path d="M1020 409.45l-4.63-14.27h9.26z" stroke="#333" fill="#333"/><path d="M1020.5 672.12h-1v-22.6h1zm0-44.2h-1v-38.5h1z" stroke="#333" stroke-width=".05" fill="#333"/><path d="M1020 588.93l.5-.03v.55h-1v-.55z" fill="#333"/><path d="M1020 588.9l.52-.03v.6h-1.04v-.6zm-.48.52h.96v-.5l-.48.04-.48-.03z" stroke="#333" stroke-width=".05" fill="#333"/><path d="M1020 686.88l-4.63-14.26h9.26z" fill="#333"/><path d="M1020 688.5l-5.32-16.38h10.64zm-3.95-15.38l3.95 12.14 3.95-12.14z" stroke="#333" stroke-width=".05" fill="#333"/><use xlink:href="#n" transform="matrix(1,0,0,1,1011.5,627.9177338988075) translate(0.005000000000000782 14.4)"/><path d="M940 704.42a9.06 9.06 0 0 1 7.94-9l144.12-17.93a7.07 7.07 0 0 1 7.94 7v104a8 8 0 0 1-8 8H948a8 8 0 0 1-8-8z" stroke="#000" stroke-opacity="0" stroke-width="2" fill="#ff8839"/><use xlink:href="#o" transform="matrix(1,0,0,1,945,701.4999999999013) translate(34.05 16.19999999999999)"/><use xlink:href="#p" transform="matrix(1,0,0,1,945,701.4999999999013) translate(106.95 16.19999999999999)"/><use xlink:href="#q" transform="matrix(1,0,0,1,945,701.4999999999013) translate(5.074999999999989 37.79999999999999)"/><use xlink:href="#r" transform="matrix(1,0,0,1,945,701.4999999999013) translate(81.975 37.79999999999999)"/><use xlink:href="#l" transform="matrix(1,0,0,1,945,701.4999999999013) translate(28.525 59.39999999999999)"/><use xlink:href="#s" transform="matrix(1,0,0,1,945,701.4999999999013) translate(42.525 59.39999999999999)"/><use xlink:href="#t" transform="matrix(1,0,0,1,945,701.4999999999013) translate(41.55 81)"/><path d="M849.3 500.5h-32.92v-1h32.92zm71.76 0h-48.8v-1h48.8z" stroke="#333" stroke-width=".05" fill="#333"/><path d="M921.56 500l.04.5h-.56v-1h.56z" fill="#333"/><path d="M921.58 500l.04.52h-.6v-1.04h.6zm-.5-.48v.96h.5l-.05-.48.04-.48z" stroke="#333" stroke-width=".05" fill="#333"/><path d="M815.88 504.63L801.62 500l14.26-4.63z" fill="#333"/><path d="M816.38 505.32L800 500l16.38-5.32zM803.24 500l12.14 3.95v-7.9z" stroke="#333" stroke-width=".05" fill="#333"/><use xlink:href="#u" transform="matrix(1,0,0,1,849.3029200271486,489.2) translate(0.005000000000000782 14.4)"/><path d="M640 448a8 8 0 0 1 8-8h144a8 8 0 0 1 8 8v104a8 8 0 0 1-8 8H648a8 8 0 0 1-8-8z" stroke="#000" stroke-opacity="0" stroke-width="2" fill="#ff8839"/><use xlink:href="#v" transform="matrix(1,0,0,1,652,452) translate(8 19.19999999999999)"/><use xlink:href="#w" transform="matrix(1,0,0,1,652,452) translate(35 19.19999999999999)"/><use xlink:href="#x" transform="matrix(1,0,0,1,652,452) translate(59 19.19999999999999)"/><use xlink:href="#y" transform="matrix(1,0,0,1,652,452) translate(19.049999999999997 40.79999999999999)"/><use xlink:href="#z" transform="matrix(1,0,0,1,652,452) translate(38 40.79999999999999)"/><use xlink:href="#A" transform="matrix(1,0,0,1,652,452) translate(78 40.79999999999999)"/><use xlink:href="#B" transform="matrix(1,0,0,1,652,452) translate(103 40.79999999999999)"/><use xlink:href="#C" transform="matrix(1,0,0,1,652,452) translate(35.55 62.39999999999999)"/><use xlink:href="#D" transform="matrix(1,0,0,1,652,452) translate(23.074999999999996 84)"/><path d="M720 560.5v164a12 12 0 0 0 12 12h191.62" stroke="#333" fill="none"/><path d="M720.5 560.5h-1v-.5h1z" stroke="#333" stroke-width=".05" fill="#333"/><path d="M938.38 736.5l-14.26 4.63v-9.26z" stroke="#333" fill="#333"/><path d="M940 891a8 8 0 0 1 8-8h144a8 8 0 0 1 8 8v104a8 8 0 0 1-8 8H948a8 8 0 0 1-8-8z" stroke="#000" stroke-opacity="0" stroke-width="2" fill="#ff8839"/><g><use xlink:href="#E" transform="matrix(1,0,0,1,952,894.9999999998026) translate(4.099999999999994 40.8)"/><use xlink:href="#A" transform="matrix(1,0,0,1,952,894.9999999998026) translate(68.95 40.8)"/><use xlink:href="#F" transform="matrix(1,0,0,1,952,894.9999999998026) translate(93.95 40.8)"/><use xlink:href="#G" transform="matrix(1,0,0,1,952,894.9999999998026) translate(48.574999999999996 62.4)"/></g><path d="M1020 797v69.62" stroke="#333" fill="none"/><path d="M1020.5 797h-1v-.5h1z" stroke="#333" stroke-width=".05" fill="#333"/><path d="M1020 881.38l-4.63-14.26h9.26z" stroke="#333" fill="#333"/><path d="M940 1064.5a8 8 0 0 1 8-8h144a8 8 0 0 1 8 8v104a8 8 0 0 1-8 8H948a8 8 0 0 1-8-8z" stroke="#000" stroke-opacity="0" stroke-width="2" fill="#ff8839"/><g><use xlink:href="#H" transform="matrix(1,0,0,1,952,1068.4999999999013) translate(8.124999999999993 30)"/><use xlink:href="#I" transform="matrix(1,0,0,1,952,1068.4999999999013) translate(107.875 30)"/><use xlink:href="#y" transform="matrix(1,0,0,1,952,1068.4999999999013) translate(26.074999999999996 51.6)"/><use xlink:href="#C" transform="matrix(1,0,0,1,952,1068.4999999999013) translate(45.02499999999999 51.6)"/><use xlink:href="#D" transform="matrix(1,0,0,1,952,1068.4999999999013) translate(23.074999999999996 73.2)"/></g><path d="M1020 1003.5v36.62" stroke="#333" fill="none"/><path d="M1020.5 1003.5h-1v-.5h1z" stroke="#333" stroke-width=".05" fill="#333"/><path d="M1020 1054.88l-4.63-14.26h9.26z" stroke="#333" fill="#333"/><path d="M1020 1177v36.62" stroke="#333" fill="none"/><path d="M1020.5 1177h-1v-.5h1z" stroke="#333" stroke-width=".05" fill="#333"/><path d="M1020 1228.38l-4.63-14.26h9.26z" stroke="#333" fill="#333"/><defs><path fill="#fff" d="M14 0l48-248h34L48 0H14" id="J"/><path fill="#fff" d="M67-158c22-48 132-52 116 29L158 0h-32l25-140c3-38-53-32-70-12C52-117 51-52 38 0H6l36-190h30" id="K"/><path fill="#fff" d="M50-231l6-30h32l-6 30H50zM6 0l37-190h31L37 0H6" id="L"/><path fill="#fff" d="M44-68c0 29 11 47 38 47 30 0 42-19 51-41l28 9C148-21 126 4 82 4 31 4 10-29 12-85c3-77 74-140 146-93 12 8 15 23 18 40l-31 5c-1-22-13-36-36-36-52 0-65 49-65 101" id="M"/><path fill="#fff" d="M30-147c31-64 166-65 159 27C183-49 158 1 86 4 9 8 1-88 30-147zM88-20c53 0 68-48 68-100 0-31-11-51-44-50-52 1-68 46-68 97 0 32 13 53 44 53" id="N"/><g id="a"><use transform="matrix(0.05,0,0,0.05,0,0)" xlink:href="#J"/><use transform="matrix(0.05,0,0,0.05,5,0)" xlink:href="#K"/><use transform="matrix(0.05,0,0,0.05,15,0)" xlink:href="#L"/><use transform="matrix(0.05,0,0,0.05,18.95,0)" xlink:href="#M"/><use transform="matrix(0.05,0,0,0.05,27.950000000000003,0)" xlink:href="#L"/><use transform="matrix(0.05,0,0,0.05,31.899999999999995,0)" xlink:href="#N"/></g><path fill="#fff" d="M238-179c0 84-86 86-175 82L45 0H11l48-248c82 0 179-12 179 69zm-34 1c0-53-64-42-116-43l-19 98c63 0 135 9 135-55" id="O"/><path fill="#fff" d="M66-151c12-25 30-51 66-40l-6 26C45-176 58-65 38 0H6l36-190h30" id="P"/><path fill="#fff" d="M76-167L44 0H12l33-167H18l4-23h27c3-47 25-81 82-69l-4 24c-35-8-44 15-46 45h37l-5 23H76" id="Q"/><path fill="#fff" d="M111-194c62-3 86 47 72 106H45c-7 38 6 69 45 68 27-1 43-14 53-32l24 11C152-15 129 4 87 4 38 3 12-23 12-71c0-70 32-119 99-123zm44 81c14-66-71-72-95-28-4 8-8 17-11 28h106" id="R"/><path fill="#fff" d="M55-144c13 50 104 24 104 88C159 21 15 23 1-39l26-10c6 40 102 42 102-4-13-50-104-23-104-87 0-71 143-71 148-8l-29 4c-5-35-85-37-89 0" id="S"/><g id="b"><use transform="matrix(0.05,0,0,0.05,0,0)" xlink:href="#O"/><use transform="matrix(0.05,0,0,0.05,12,0)" xlink:href="#P"/><use transform="matrix(0.05,0,0,0.05,17.95,0)" xlink:href="#N"/><use transform="matrix(0.05,0,0,0.05,27.950000000000003,0)" xlink:href="#Q"/><use transform="matrix(0.05,0,0,0.05,32.95,0)" xlink:href="#R"/><use transform="matrix(0.05,0,0,0.05,42.95,0)" xlink:href="#S"/><use transform="matrix(0.05,0,0,0.05,51.95,0)" xlink:href="#N"/><use transform="matrix(0.05,0,0,0.05,61.95,0)" xlink:href="#P"/></g><path fill="#fff" d="M165-48c-4 18 1 34 23 27l-3 20c-29 8-62 0-52-35h-2C116-14 99 4 63 4 30 4 8-16 8-49c0-68 71-67 138-67 10-26 0-56-31-54-26 1-42 9-47 31l-32-5c8-67 160-71 144 15-5 28-9 54-15 81zM42-50c3 52 80 24 89-6 7-12 7-24 11-38-47 1-103-4-100 44" id="T"/><path fill="#fff" d="M103-194c29 0 47 14 56 36 2-11 5-23 8-32h30L160-5C157 61 82 97 21 62 9 55 4 45 1 30l28-7c7 42 83 31 92-3 4-16 9-38 13-55-13 20-29 36-62 36-40 0-60-25-60-64 0-71 23-131 91-131zm4 24c-53 0-58 54-61 104-2 27 10 44 36 44 49 0 65-50 67-102 1-29-15-46-42-46" id="U"/><g id="c"><use transform="matrix(0.05,0,0,0.05,0,0)" xlink:href="#T"/><use transform="matrix(0.05,0,0,0.05,10,0)" xlink:href="#S"/><use transform="matrix(0.05,0,0,0.05,19,0)" xlink:href="#L"/><use transform="matrix(0.05,0,0,0.05,22.95,0)" xlink:href="#U"/><use transform="matrix(0.05,0,0,0.05,32.95,0)" xlink:href="#K"/><use transform="matrix(0.05,0,0,0.05,42.95,0)" xlink:href="#T"/></g><path fill="#fff" d="M166-48c-4 18 1 34 23 27l-3 20c-29 8-62 0-52-35h-2C117-14 100 4 64 4 31 4 9-16 9-49c0-68 71-67 138-67 10-26 0-56-31-54-26 1-42 9-47 31l-32-5c8-67 160-71 144 15-5 28-9 54-15 81zM43-50c3 52 80 24 89-6 7-12 7-24 11-38-47 1-103-4-100 44zm52-161c10-23 31-35 45-54h38l-1 5-66 49H95" id="V"/><path fill="#fff" d="M51-54c-9 22 5 41 31 30L79-1C43 14 10-4 19-52l22-115H19l5-23h22l19-43h21l-9 43h35l-4 23H73" id="W"/><g id="d"><use transform="matrix(0.05,0,0,0.05,0,0)" xlink:href="#O"/><use transform="matrix(0.05,0,0,0.05,12,0)" xlink:href="#P"/><use transform="matrix(0.05,0,0,0.05,17.95,0)" xlink:href="#V"/><use transform="matrix(0.05,0,0,0.05,27.950000000000003,0)" xlink:href="#M"/><use transform="matrix(0.05,0,0,0.05,36.95,0)" xlink:href="#W"/><use transform="matrix(0.05,0,0,0.05,41.95,0)" xlink:href="#L"/><use transform="matrix(0.05,0,0,0.05,45.900000000000006,0)" xlink:href="#M"/><use transform="matrix(0.05,0,0,0.05,54.900000000000006,0)" xlink:href="#T"/></g><path fill="#fff" d="M6 0l50-261h32L37 0H6" id="X"/><g id="e"><use transform="matrix(0.05,0,0,0.05,0,0)" xlink:href="#O"/><use transform="matrix(0.05,0,0,0.05,12,0)" xlink:href="#P"/><use transform="matrix(0.05,0,0,0.05,17.95,0)" xlink:href="#N"/><use transform="matrix(0.05,0,0,0.05,27.950000000000003,0)" xlink:href="#Q"/><use transform="matrix(0.05,0,0,0.05,32.95,0)" xlink:href="#R"/><use transform="matrix(0.05,0,0,0.05,42.95,0)" xlink:href="#S"/><use transform="matrix(0.05,0,0,0.05,51.95,0)" xlink:href="#L"/><use transform="matrix(0.05,0,0,0.05,55.900000000000006,0)" xlink:href="#N"/><use transform="matrix(0.05,0,0,0.05,65.9,0)" xlink:href="#K"/><use transform="matrix(0.05,0,0,0.05,75.9,0)" xlink:href="#T"/><use transform="matrix(0.05,0,0,0.05,85.9,0)" xlink:href="#X"/></g><path fill="#fff" d="M125-24c46 0 70-25 89-51l25 16C214-24 183 4 123 4 8 4-5-146 60-208c32-50 158-61 191-5 5 7 9 14 11 22l-32 10c-9-28-33-43-69-43-74 0-108 51-108 125 0 46 24 75 72 75" id="Y"/><path fill="#fff" d="M248-111c6-24 9-61-24-58-72 9-57 108-77 169h-31l26-142c3-37-50-30-64-10C52-115 50-51 37 0H6l36-190h30c-1 10-6 24-4 32 13-43 101-52 105 5 13-22 29-41 61-41 90 0 28 129 23 194h-31" id="Z"/><path fill="#fff" d="M-8 0l5-24 140-142H31l5-24h145l-5 24L36-24h119l-5 24H-8" id="aa"/><g id="f"><use transform="matrix(0.05,0,0,0.05,0,0)" xlink:href="#Y"/><use transform="matrix(0.05,0,0,0.05,12.950000000000001,0)" xlink:href="#N"/><use transform="matrix(0.05,0,0,0.05,22.950000000000003,0)" xlink:href="#Z"/><use transform="matrix(0.05,0,0,0.05,37.900000000000006,0)" xlink:href="#L"/><use transform="matrix(0.05,0,0,0.05,41.85000000000001,0)" xlink:href="#R"/><use transform="matrix(0.05,0,0,0.05,51.85,0)" xlink:href="#K"/><use transform="matrix(0.05,0,0,0.05,61.85,0)" xlink:href="#aa"/><use transform="matrix(0.05,0,0,0.05,70.85000000000001,0)" xlink:href="#T"/></g><g id="g"><use transform="matrix(0.05,0,0,0.05,0,0)" xlink:href="#X"/><use transform="matrix(0.05,0,0,0.05,3.95,0)" xlink:href="#T"/></g><path fill="#333" d="M63-220v92h138v28H63V0H30v-248h175v28H63" id="ab"/><path fill="#333" d="M24-231v-30h32v30H24zM24 0v-190h32V0H24" id="ac"/><path fill="#333" d="M117-194c89-4 53 116 60 194h-32v-121c0-31-8-49-39-48C34-167 62-67 57 0H25l-1-190h30c1 10-1 24 2 32 11-22 29-35 61-36" id="ad"/><path fill="#333" d="M141-36C126-15 110 5 73 4 37 3 15-17 15-53c-1-64 63-63 125-63 3-35-9-54-41-54-24 1-41 7-42 31l-33-3c5-37 33-52 76-52 45 0 72 20 72 64v82c-1 20 7 32 28 27v20c-31 9-61-2-59-35zM48-53c0 20 12 33 32 33 41-3 63-29 60-74-43 2-92-5-92 41" id="ae"/><path fill="#333" d="M24 0v-261h32V0H24" id="af"/><g id="h"><use transform="matrix(0.05,0,0,0.05,0,0)" xlink:href="#ab"/><use transform="matrix(0.05,0,0,0.05,10.950000000000001,0)" xlink:href="#ac"/><use transform="matrix(0.05,0,0,0.05,14.9,0)" xlink:href="#ad"/><use transform="matrix(0.05,0,0,0.05,24.900000000000002,0)" xlink:href="#ae"/><use transform="matrix(0.05,0,0,0.05,34.900000000000006,0)" xlink:href="#af"/></g><path fill="#333" d="M30 0v-248h187v28H63v79h144v27H63v87h162V0H30" id="ag"/><path fill="#333" d="M135-143c-3-34-86-38-87 0 15 53 115 12 119 90S17 21 10-45l28-5c4 36 97 45 98 0-10-56-113-15-118-90-4-57 82-63 122-42 12 7 21 19 24 35" id="ah"/><path fill="#333" d="M59-47c-2 24 18 29 38 22v24C64 9 27 4 27-40v-127H5v-23h24l9-43h21v43h35v23H59v120" id="ai"/><path fill="#333" d="M84 4C-5 8 30-112 23-190h32v120c0 31 7 50 39 49 72-2 45-101 50-169h31l1 190h-30c-1-10 1-25-2-33-11 22-28 36-60 37" id="aj"/><path fill="#333" d="M85-194c31 0 48 13 60 33l-1-100h32l1 261h-30c-2-10 0-23-3-31C134-8 116 4 85 4 32 4 16-35 15-94c0-66 23-100 70-100zm9 24c-40 0-46 34-46 75 0 40 6 74 45 74 42 0 51-32 51-76 0-42-9-74-50-73" id="ak"/><path fill="#333" d="M100-194c63 0 86 42 84 106H49c0 40 14 67 53 68 26 1 43-12 49-29l28 8c-11 28-37 45-77 45C44 4 14-33 15-96c1-61 26-98 85-98zm52 81c6-60-76-77-97-28-3 7-6 17-6 28h103" id="al"/><g id="i"><use transform="matrix(0.05,0,0,0.05,0,0)" xlink:href="#ag"/><use transform="matrix(0.05,0,0,0.05,12,0)" xlink:href="#ah"/><use transform="matrix(0.05,0,0,0.05,21,0)" xlink:href="#ai"/><use transform="matrix(0.05,0,0,0.05,26,0)" xlink:href="#aj"/><use transform="matrix(0.05,0,0,0.05,36,0)" xlink:href="#ak"/><use transform="matrix(0.05,0,0,0.05,46,0)" xlink:href="#ac"/><use transform="matrix(0.05,0,0,0.05,49.95,0)" xlink:href="#ae"/><use transform="matrix(0.05,0,0,0.05,59.95,0)" xlink:href="#ad"/><use transform="matrix(0.05,0,0,0.05,69.95,0)" xlink:href="#ai"/><use transform="matrix(0.05,0,0,0.05,74.95,0)" xlink:href="#al"/></g><path fill="#333" d="M115-194c53 0 69 39 70 98 0 66-23 100-70 100C84 3 66-7 56-30L54 0H23l1-261h32v101c10-23 28-34 59-34zm-8 174c40 0 45-34 45-75 0-40-5-75-45-74-42 0-51 32-51 76 0 43 10 73 51 73" id="am"/><g id="j"><use transform="matrix(0.05,0,0,0.05,0,0)" xlink:href="#ah"/><use transform="matrix(0.05,0,0,0.05,9,0)" xlink:href="#aj"/><use transform="matrix(0.05,0,0,0.05,19,0)" xlink:href="#am"/><use transform="matrix(0.05,0,0,0.05,29,0)" xlink:href="#al"/></g><path fill="#333" d="M33 0v-248h34V0H33" id="an"/><path fill="#333" d="M101-234c-31-9-42 10-38 44h38v23H63V0H32v-167H5v-23h27c-7-52 17-82 69-68v24" id="ao"/><path fill="#333" d="M100-194c62-1 85 37 85 99 1 63-27 99-86 99S16-35 15-95c0-66 28-99 85-99zM99-20c44 1 53-31 53-75 0-43-8-75-51-75s-53 32-53 75 10 74 51 75" id="ap"/><path fill="#333" d="M114-163C36-179 61-72 57 0H25l-1-190h30c1 12-1 29 2 39 6-27 23-49 58-41v29" id="aq"/><path fill="#333" d="M210-169c-67 3-38 105-44 169h-31v-121c0-29-5-50-35-48C34-165 62-65 56 0H25l-1-190h30c1 10-1 24 2 32 10-44 99-50 107 0 11-21 27-35 58-36 85-2 47 119 55 194h-31v-121c0-29-5-49-35-48" id="ar"/><g id="k"><use transform="matrix(0.05,0,0,0.05,0,0)" xlink:href="#an"/><use transform="matrix(0.05,0,0,0.05,5,0)" xlink:href="#ad"/><use transform="matrix(0.05,0,0,0.05,15,0)" xlink:href="#ao"/><use transform="matrix(0.05,0,0,0.05,20,0)" xlink:href="#ap"/><use transform="matrix(0.05,0,0,0.05,30,0)" xlink:href="#aq"/><use transform="matrix(0.05,0,0,0.05,35.95,0)" xlink:href="#ar"/><use transform="matrix(0.05,0,0,0.05,50.900000000000006,0)" xlink:href="#al"/><use transform="matrix(0.05,0,0,0.05,60.900000000000006,0)" xlink:href="#ah"/></g><path fill="#333" d="M179-190L93 31C79 59 56 82 12 73V49c39 6 53-20 64-50L1-190h34L92-34l54-156h33" id="as"/><use transform="matrix(0.05,0,0,0.05,0,0)" xlink:href="#as" id="l"/><path fill="#333" d="M160-131c35 5 61 23 61 61C221 17 115-2 30 0v-248c76 3 177-17 177 60 0 33-19 50-47 57zm-97-11c50-1 110 9 110-42 0-47-63-36-110-37v79zm0 115c55-2 124 14 124-45 0-56-70-42-124-44v89" id="at"/><path fill="#333" d="M141-36C126-15 110 5 73 4 37 3 15-17 15-53c-1-64 63-63 125-63 3-35-9-54-41-54-24 1-41 7-42 31l-33-3c5-37 33-52 76-52 45 0 72 20 72 64v82c-1 20 7 32 28 27v20c-31 9-61-2-59-35zM48-53c0 20 12 33 32 33 41-3 63-29 60-74-43 2-92-5-92 41zm25-158c8-23 27-35 38-54h36v5l-58 49H73" id="au"/><path fill="#333" d="M96-169c-40 0-48 33-48 73s9 75 48 75c24 0 41-14 43-38l32 2c-6 37-31 61-74 61-59 0-76-41-82-99-10-93 101-131 147-64 4 7 5 14 7 22l-32 3c-4-21-16-35-41-35" id="av"/><g id="m"><use transform="matrix(0.05,0,0,0.05,0,0)" xlink:href="#at"/><use transform="matrix(0.05,0,0,0.05,12,0)" xlink:href="#ac"/><use transform="matrix(0.05,0,0,0.05,15.949999999999998,0)" xlink:href="#ai"/><use transform="matrix(0.05,0,0,0.05,20.95,0)" xlink:href="#au"/><use transform="matrix(0.05,0,0,0.05,30.950000000000003,0)" xlink:href="#av"/><use transform="matrix(0.05,0,0,0.05,39.95,0)" xlink:href="#ap"/><use transform="matrix(0.05,0,0,0.05,49.95,0)" xlink:href="#aq"/><use transform="matrix(0.05,0,0,0.05,55.900000000000006,0)" xlink:href="#ae"/><use transform="matrix(0.05,0,0,0.05,65.9,0)" xlink:href="#ah"/></g><path fill="#333" d="M185-189c-5-48-123-54-124 2 14 75 158 14 163 119 3 78-121 87-175 55-17-10-28-26-33-46l33-7c5 56 141 63 141-1 0-78-155-14-162-118-5-82 145-84 179-34 5 7 8 16 11 25" id="aw"/><path fill="#333" d="M34 0v-190h32V0H34zM24-211c8-23 27-35 38-54h36v5l-58 49H24" id="ax"/><g id="n"><use transform="matrix(0.05,0,0,0.05,0,0)" xlink:href="#aw"/><use transform="matrix(0.05,0,0,0.05,12,0)" xlink:href="#ax"/></g><path fill="#333" d="M30-248c87 1 191-15 191 75 0 78-77 80-158 76V0H30v-248zm33 125c57 0 124 11 124-50 0-59-68-47-124-48v98" id="ay"/><g id="o"><use transform="matrix(0.05,0,0,0.05,0,0)" xlink:href="#ay"/><use transform="matrix(0.05,0,0,0.05,12,0)" xlink:href="#aq"/><use transform="matrix(0.05,0,0,0.05,17.95,0)" xlink:href="#ap"/><use transform="matrix(0.05,0,0,0.05,27.950000000000003,0)" xlink:href="#ao"/><use transform="matrix(0.05,0,0,0.05,32.95,0)" xlink:href="#al"/><use transform="matrix(0.05,0,0,0.05,42.95,0)" xlink:href="#ah"/><use transform="matrix(0.05,0,0,0.05,51.95,0)" xlink:href="#ap"/><use transform="matrix(0.05,0,0,0.05,61.95,0)" xlink:href="#aq"/></g><use transform="matrix(0.05,0,0,0.05,0,0)" xlink:href="#as" id="p"/><path fill="#333" d="M115-194c55 1 70 41 70 98S169 2 115 4C84 4 66-9 55-30l1 105H24l-1-265h31l2 30c10-21 28-34 59-34zm-8 174c40 0 45-34 45-75s-6-73-45-74c-42 0-51 32-51 76 0 43 10 73 51 73" id="az"/><g id="q"><use transform="matrix(0.05,0,0,0.05,0,0)" xlink:href="#ag"/><use transform="matrix(0.05,0,0,0.05,12,0)" xlink:href="#ar"/><use transform="matrix(0.05,0,0,0.05,26.950000000000003,0)" xlink:href="#az"/><use transform="matrix(0.05,0,0,0.05,36.95,0)" xlink:href="#aq"/><use transform="matrix(0.05,0,0,0.05,42.900000000000006,0)" xlink:href="#al"/><use transform="matrix(0.05,0,0,0.05,52.900000000000006,0)" xlink:href="#ah"/><use transform="matrix(0.05,0,0,0.05,61.900000000000006,0)" xlink:href="#ae"/></g><path fill="#333" d="M108 0H70L1-190h34L89-25l56-165h34" id="aA"/><path fill="#333" d="M85 4C-4 8 31-112 24-190h32v120c0 31 7 50 39 49 72-2 45-101 50-169h31l1 190h-30c-1-10 1-25-2-33-11 22-28 36-60 37zM73-211c8-23 27-35 38-54h36v5l-58 49H73" id="aB"/><g id="r"><use transform="matrix(0.05,0,0,0.05,0,0)" xlink:href="#al"/><use transform="matrix(0.05,0,0,0.05,10,0)" xlink:href="#aA"/><use transform="matrix(0.05,0,0,0.05,19,0)" xlink:href="#ae"/><use transform="matrix(0.05,0,0,0.05,29,0)" xlink:href="#af"/><use transform="matrix(0.05,0,0,0.05,32.95,0)" xlink:href="#aB"/><use transform="matrix(0.05,0,0,0.05,42.95,0)" xlink:href="#ae"/><use transform="matrix(0.05,0,0,0.05,52.95,0)" xlink:href="#ad"/></g><g id="s"><use transform="matrix(0.05,0,0,0.05,0,0)" xlink:href="#av"/><use transform="matrix(0.05,0,0,0.05,9,0)" xlink:href="#ap"/><use transform="matrix(0.05,0,0,0.05,19,0)" xlink:href="#ar"/><use transform="matrix(0.05,0,0,0.05,33.95,0)" xlink:href="#al"/><use transform="matrix(0.05,0,0,0.05,43.95,0)" xlink:href="#ad"/><use transform="matrix(0.05,0,0,0.05,53.95,0)" xlink:href="#ai"/><use transform="matrix(0.05,0,0,0.05,58.95,0)" xlink:href="#ae"/><use transform="matrix(0.05,0,0,0.05,68.95,0)" xlink:href="#ad"/></g><path fill="#333" d="M106-169C34-169 62-67 57 0H25v-261h32l-1 103c12-21 28-36 61-36 89 0 53 116 60 194h-32v-121c2-32-8-49-39-48" id="aC"/><g id="t"><use transform="matrix(0.05,0,0,0.05,0,0)" xlink:href="#ae"/><use transform="matrix(0.05,0,0,0.05,10,0)" xlink:href="#aq"/><use transform="matrix(0.05,0,0,0.05,15.949999999999998,0)" xlink:href="#av"/><use transform="matrix(0.05,0,0,0.05,24.95,0)" xlink:href="#aC"/><use transform="matrix(0.05,0,0,0.05,34.95,0)" xlink:href="#ac"/><use transform="matrix(0.05,0,0,0.05,38.900000000000006,0)" xlink:href="#aA"/><use transform="matrix(0.05,0,0,0.05,47.900000000000006,0)" xlink:href="#ap"/><use transform="matrix(0.05,0,0,0.05,57.900000000000006,0)" xlink:href="#ah"/></g><path fill="#333" d="M190 0L58-211 59 0H30v-248h39L202-35l-2-213h31V0h-41" id="aD"/><g id="u"><use transform="matrix(0.05,0,0,0.05,0,0)" xlink:href="#aD"/><use transform="matrix(0.05,0,0,0.05,12.950000000000001,0)" xlink:href="#ap"/></g><g id="v"><use transform="matrix(0.05,0,0,0.05,0,0)" xlink:href="#aw"/><use transform="matrix(0.05,0,0,0.05,12,0)" xlink:href="#al"/></g><g id="w"><use transform="matrix(0.05,0,0,0.05,0,0)" xlink:href="#aA"/><use transform="matrix(0.05,0,0,0.05,9,0)" xlink:href="#al"/></g><g id="x"><use transform="matrix(0.05,0,0,0.05,0,0)" xlink:href="#ae"/><use transform="matrix(0.05,0,0,0.05,10,0)" xlink:href="#ao"/><use transform="matrix(0.05,0,0,0.05,15,0)" xlink:href="#al"/><use transform="matrix(0.05,0,0,0.05,25,0)" xlink:href="#av"/><use transform="matrix(0.05,0,0,0.05,34,0)" xlink:href="#ai"/><use transform="matrix(0.05,0,0,0.05,39,0)" xlink:href="#ae"/><use transform="matrix(0.05,0,0,0.05,49,0)" xlink:href="#ak"/><use transform="matrix(0.05,0,0,0.05,59,0)" xlink:href="#ae"/></g><g id="y"><use transform="matrix(0.05,0,0,0.05,0,0)" xlink:href="#af"/><use transform="matrix(0.05,0,0,0.05,3.95,0)" xlink:href="#ae"/></g><g id="z"><use transform="matrix(0.05,0,0,0.05,0,0)" xlink:href="#ad"/><use transform="matrix(0.05,0,0,0.05,10,0)" xlink:href="#ap"/><use transform="matrix(0.05,0,0,0.05,20,0)" xlink:href="#ai"/><use transform="matrix(0.05,0,0,0.05,25,0)" xlink:href="#ae"/></g><g id="A"><use transform="matrix(0.05,0,0,0.05,0,0)" xlink:href="#ak"/><use transform="matrix(0.05,0,0,0.05,10,0)" xlink:href="#al"/></g><g id="B"><use transform="matrix(0.05,0,0,0.05,0,0)" xlink:href="#af"/><use transform="matrix(0.05,0,0,0.05,3.95,0)" xlink:href="#ae"/></g><g id="C"><use transform="matrix(0.05,0,0,0.05,0,0)" xlink:href="#ay"/><use transform="matrix(0.05,0,0,0.05,12,0)" xlink:href="#aq"/><use transform="matrix(0.05,0,0,0.05,17.95,0)" xlink:href="#au"/><use transform="matrix(0.05,0,0,0.05,27.950000000000003,0)" xlink:href="#av"/><use transform="matrix(0.05,0,0,0.05,36.95,0)" xlink:href="#ai"/><use transform="matrix(0.05,0,0,0.05,41.95,0)" xlink:href="#ac"/><use transform="matrix(0.05,0,0,0.05,45.900000000000006,0)" xlink:href="#av"/><use transform="matrix(0.05,0,0,0.05,54.900000000000006,0)" xlink:href="#ae"/></g><g id="D"><use transform="matrix(0.05,0,0,0.05,0,0)" xlink:href="#ay"/><use transform="matrix(0.05,0,0,0.05,12,0)" xlink:href="#aq"/><use transform="matrix(0.05,0,0,0.05,17.95,0)" xlink:href="#ap"/><use transform="matrix(0.05,0,0,0.05,27.950000000000003,0)" xlink:href="#ao"/><use transform="matrix(0.05,0,0,0.05,32.95,0)" xlink:href="#al"/><use transform="matrix(0.05,0,0,0.05,42.95,0)" xlink:href="#ah"/><use transform="matrix(0.05,0,0,0.05,51.95,0)" xlink:href="#ac"/><use transform="matrix(0.05,0,0,0.05,55.900000000000006,0)" xlink:href="#ap"/><use transform="matrix(0.05,0,0,0.05,65.9,0)" xlink:href="#ad"/><use transform="matrix(0.05,0,0,0.05,75.9,0)" xlink:href="#ae"/><use transform="matrix(0.05,0,0,0.05,85.9,0)" xlink:href="#af"/></g><path fill="#333" d="M212-179c-10-28-35-45-73-45-59 0-87 40-87 99 0 60 29 101 89 101 43 0 62-24 78-52l27 14C228-24 195 4 139 4 59 4 22-46 18-125c-6-104 99-153 187-111 19 9 31 26 39 46" id="aE"/><g id="E"><use transform="matrix(0.05,0,0,0.05,0,0)" xlink:href="#aE"/><use transform="matrix(0.05,0,0,0.05,12.950000000000001,0)" xlink:href="#au"/><use transform="matrix(0.05,0,0,0.05,22.950000000000003,0)" xlink:href="#af"/><use transform="matrix(0.05,0,0,0.05,26.900000000000002,0)" xlink:href="#av"/><use transform="matrix(0.05,0,0,0.05,35.900000000000006,0)" xlink:href="#aj"/><use transform="matrix(0.05,0,0,0.05,45.900000000000006,0)" xlink:href="#af"/><use transform="matrix(0.05,0,0,0.05,49.85000000000001,0)" xlink:href="#ap"/></g><g id="F"><use transform="matrix(0.05,0,0,0.05,0,0)" xlink:href="#aD"/><use transform="matrix(0.05,0,0,0.05,12.950000000000001,0)" xlink:href="#ap"/><use transform="matrix(0.05,0,0,0.05,22.950000000000003,0)" xlink:href="#ai"/><use transform="matrix(0.05,0,0,0.05,27.950000000000003,0)" xlink:href="#ae"/></g><g id="G"><use transform="matrix(0.05,0,0,0.05,0,0)" xlink:href="#ab"/><use transform="matrix(0.05,0,0,0.05,10.950000000000001,0)" xlink:href="#ac"/><use transform="matrix(0.05,0,0,0.05,14.9,0)" xlink:href="#ad"/><use transform="matrix(0.05,0,0,0.05,24.900000000000002,0)" xlink:href="#ae"/><use transform="matrix(0.05,0,0,0.05,34.900000000000006,0)" xlink:href="#af"/></g><path fill="#333" d="M9 0v-24l116-142H16v-24h144v24L44-24h123V0H9" id="aF"/><path fill="#333" d="M100-194c62-1 85 37 85 99 1 63-27 99-86 99S16-35 15-95c0-66 28-99 85-99zM99-20c44 1 53-31 53-75 0-43-8-75-51-75s-53 32-53 75 10 74 51 75zM76-211c8-23 27-35 38-54h36v5l-58 49H76" id="aG"/><g id="H"><use transform="matrix(0.05,0,0,0.05,0,0)" xlink:href="#ab"/><use transform="matrix(0.05,0,0,0.05,10.950000000000001,0)" xlink:href="#ac"/><use transform="matrix(0.05,0,0,0.05,14.9,0)" xlink:href="#ad"/><use transform="matrix(0.05,0,0,0.05,24.900000000000002,0)" xlink:href="#ae"/><use transform="matrix(0.05,0,0,0.05,34.900000000000006,0)" xlink:href="#af"/><use transform="matrix(0.05,0,0,0.05,38.85000000000001,0)" xlink:href="#ac"/><use transform="matrix(0.05,0,0,0.05,42.80000000000001,0)" xlink:href="#aF"/><use transform="matrix(0.05,0,0,0.05,51.80000000000001,0)" xlink:href="#ae"/><use transform="matrix(0.05,0,0,0.05,61.80000000000001,0)" xlink:href="#av"/><use transform="matrix(0.05,0,0,0.05,70.80000000000001,0)" xlink:href="#ac"/><use transform="matrix(0.05,0,0,0.05,74.75000000000001,0)" xlink:href="#aG"/><use transform="matrix(0.05,0,0,0.05,84.75000000000001,0)" xlink:href="#ad"/></g><g id="I"><use transform="matrix(0.05,0,0,0.05,0,0)" xlink:href="#ak"/><use transform="matrix(0.05,0,0,0.05,10,0)" xlink:href="#al"/></g></defs></g></svg>